<svg xmlns="http://www.w3.org/2000/svg" version="1.1" xmlns:xlink="http://www.w3.org/1999/xlink" width="1000" height="1000"><style>
    #light-icon {
      display: inline;
    }
    #dark-icon {
      display: none;
    }

    @media (prefers-color-scheme: dark) {
      #light-icon {
        display: none;
      }
      #dark-icon {
        display: inline;
      }
    }
  </style><g id="light-icon"><svg xmlns="http://www.w3.org/2000/svg" version="1.1" xmlns:xlink="http://www.w3.org/1999/xlink" width="1000" height="1000"><g clip-path="url(#SvgjsClipPath1118)"><rect width="1000" height="1000" fill="#ffffff"></rect><g transform="matrix(3.422430610219378,0,0,3.422430610219378,0,0)"><svg xmlns="http://www.w3.org/2000/svg" version="1.1" xmlns:xlink="http://www.w3.org/1999/xlink" width="292.19" height="292.19"><svg id="b" xmlns="http://www.w3.org/2000/svg" viewBox="0 0 292.19 292.19"><g id="c"><path d="M144.15,24.11h-.13c-83.28,1.49-120.84,65.27-120.5,123.91.34,58.78,38.72,122.28,122.19,122.8,58.87-.88,121.98-40.27,121.32-124.66-.47-58.8-39.13-122.05-122.87-122.05ZM162.95,251.79c1.09-22.02-14.84-47.63-2.17-65.9,29.41-42.41,29.14-118.31,20.77-123.36-13.32-8.16-5.76,55.08-10.44,71.5-7.23,33.33-9.3-9.79-7.29-22.4,4.62-72.58-14.46-57.36-11.47-3.86,1.14,25.39-3.97,55.29-7.94,28-2.01-20.39.22-50.56-4.68-70.08-10.77-16.58-8.97,27.51-8.48,46.97,2.01,17.13-.54,57.36-10.44,17.72-4.13-7.61,0-79.43-11.91-66.44-7.18,32.35-5.11,78.78,14.03,107,19.14,28.22,26.37,50.13,22.02,82.26h-.05c-138.64-2.01-139.51-209.54-.71-212.04,128.75-2.94,145.38,190.4,18.76,210.63Z" style="stroke-width:0px;"></path><path d="M0,0v292.19h292.19V0H0ZM245.74,238.88c-24.14,27.84-58.71,42.88-99.98,43.5-41.09-.26-75.63-14.88-99.95-42.3-21.57-24.32-33.56-57-33.77-92C11.67,83.93,52.77,14.17,143.88,12.54h.21c91.62,0,133.9,69.18,134.41,133.5.28,35.17-11.35,68.14-32.76,92.83Z" style="stroke-width:0px;"></path></g></svg></svg></g></g><defs><clipPath id="SvgjsClipPath1118"><rect width="1000" height="1000" x="0" y="0" rx="500" ry="500"></rect></clipPath></defs></svg></g><g id="dark-icon"><svg xmlns="http://www.w3.org/2000/svg" version="1.1" xmlns:xlink="http://www.w3.org/1999/xlink" width="1000" height="1000"><g><g transform="matrix(3.422430610219378,0,0,3.422430610219378,0,0)" style="filter: invert(100%)"><svg xmlns="http://www.w3.org/2000/svg" version="1.1" xmlns:xlink="http://www.w3.org/1999/xlink" width="292.19" height="292.19"><svg id="b" xmlns="http://www.w3.org/2000/svg" viewBox="0 0 292.19 292.19"><g id="c"><path d="M144.15,24.11h-.13c-83.28,1.49-120.84,65.27-120.5,123.91.34,58.78,38.72,122.28,122.19,122.8,58.87-.88,121.98-40.27,121.32-124.66-.47-58.8-39.13-122.05-122.87-122.05ZM162.95,251.79c1.09-22.02-14.84-47.63-2.17-65.9,29.41-42.41,29.14-118.31,20.77-123.36-13.32-8.16-5.76,55.08-10.44,71.5-7.23,33.33-9.3-9.79-7.29-22.4,4.62-72.58-14.46-57.36-11.47-3.86,1.14,25.39-3.97,55.29-7.94,28-2.01-20.39.22-50.56-4.68-70.08-10.77-16.58-8.97,27.51-8.48,46.97,2.01,17.13-.54,57.36-10.44,17.72-4.13-7.61,0-79.43-11.91-66.44-7.18,32.35-5.11,78.78,14.03,107,19.14,28.22,26.37,50.13,22.02,82.26h-.05c-138.64-2.01-139.51-209.54-.71-212.04,128.75-2.94,145.38,190.4,18.76,210.63Z" style="stroke-width:0px;"></path><path d="M0,0v292.19h292.19V0H0ZM245.74,238.88c-24.14,27.84-58.71,42.88-99.98,43.5-41.09-.26-75.63-14.88-99.95-42.3-21.57-24.32-33.56-57-33.77-92C11.67,83.93,52.77,14.17,143.88,12.54h.21c91.62,0,133.9,69.18,134.41,133.5.28,35.17-11.35,68.14-32.76,92.83Z" style="stroke-width:0px;"></path></g></svg></svg></g></g></svg></g></svg>