<svg xmlns="http://www.w3.org/2000/svg" viewBox="0 0 512 512">
 <style>
    path {
      fill: black;
    }
    @media (prefers-color-scheme: dark) {
      path {
        fill: #7ea1c4;
      }
    }
  </style>
  <path d="M256,0h0c141.4,0,256,114.6,256,256h0c0,141.4-114.6,256-256,256h0C114.6,512,0,397.4,0,256h0C0,114.6,114.6,0,256,0ZM255.1,38.5c-10,.7-19.9,1.2-29.8,2.4-22.5,2.6-43.8,9-64.1,19-29.9,14.8-54.9,35.6-75.8,61.5-22.6,27.9-37.1,59.5-43.1,94.8-3.2,18.4-3.9,36.9-2.7,55.5,1.2,18.2,4.4,35.9,10,53.2,11.4,34.9,31.2,64.4,57.9,89.4,21.5,20.1,45.7,35.8,73.4,45.9,36.9,13.3,74.7,15.8,113.3,9.7,25-4,48.5-12.5,70.3-25.4,17.9-10.6,34-23.6,48.4-38.6,20.6-21.4,36.5-45.7,46.9-73.5,12.2-33,15.4-67.1,12-102-2.6-26-9.6-51-21.9-74.1-23.2-43.4-56.8-76.2-101.3-97.5-29.4-14.1-60.8-19.8-93.5-20.3h0ZM287.5,442.9c0-6.8.4-13.4,0-19.9-1-13.6-2.3-27.2-3.7-40.8-1.7-17.3-3-34.7-.8-52.1,1.6-12.7,6.2-24.4,12.3-35.6,5.9-10.5,11.6-21.1,17.4-31.7,6.7-12.3,9.8-25.7,11.8-39.5,4.2-29,4.5-58.1,2.3-87.2-.7-9-2.4-18-3.8-26.9-.3-1.7-1.1-3.3-1.8-4.9-.8-1.9-2.5-2.3-3.8-1-1.5,1.4-3.2,3.2-3.7,5.1-1.8,7.1-4,14.2-4.5,21.4-1.8,22.6-2.8,45.4-4.2,68-.9,14.9-1.3,30-4.4,44.7-.7,3.1-1.9,6.2-3.1,9.2-.7,1.8-2.1,3.4-4.3,3.2-2.2-.2-2.8-2.3-3-4.1-.7-6.1-1.7-12.2-1.7-18.4,0-15.4.7-30.8,1.1-46.2.3-13.8,1-27.6.8-41.5-.1-10.4-1.3-20.7-2.4-31.1-.3-3-1.7-5.9-2.9-8.7-.9-2.1-2.6-3.8-5.2-3.6-2.4,0-3.8,2-4.4,3.9-1.5,5.1-3.3,10.2-3.7,15.4-1.2,16.1-2,32.2-2.7,48.4-.8,21.7-1.2,43.4-2.1,65.2-.2,5.4-1.5,10.9-2.6,16.2-.4,2.1-1.2,4.9-3.9,4.8-2.6,0-3.2-2.8-3.5-4.9-1.1-6.8-2.5-13.6-2.8-20.5-1-21-1.4-41.9-2.2-62.9-.6-16.4-1-32.8-3.9-49-.7-3.7-1.9-7.4-3-11.1-.4-1.2-1.1-2.3-1.8-3.2-2.2-2.9-5.6-2.9-7.1.3-1.8,4-3.3,8.4-4,12.8-2.3,15.9-2.3,31.9-1.9,47.9.3,14.6.7,29.1.8,43.7.1,11.2,0,22.3-.1,33.5,0,3.7-.7,7.5-1.5,11.1-.7,3.4-2.7,4.2-5.5,2.1-2.1-1.5-3.9-3.7-5.1-5.9-4.1-7.5-5.5-15.8-6.8-24.1-3.2-20.3-4.1-40.9-5.6-61.4-1.2-16.8-2.8-33.7-4.5-50.5-.3-3.3-1.6-6.6-2.9-9.8-1.3-3.1-3.8-3.4-6-.7-3.3,3.8-4.1,8.7-5,13.4-2.5,14.1-2.9,28.3-2.1,42.6.8,13.6,1.5,27.3,3.1,40.8,3.7,30.3,9.8,60.1,21.9,88.4,5.3,12.3,12.1,23.6,21.4,33.5,17.6,18.5,25.7,40.7,25.1,66.1-.4,15.1-1.3,30.1-1.9,45.2l-.5,12.5s0,.1-.1.1c-86.1,3.1-172.6-65.8-187.1-158.4-19.6-124.8,76.3-209.8,161-220,124.6-15,209.9,79.2,216.7,171.7,8.8,119.8-83.9,195-158.3,204.4h.2Z"/>
</svg>