<svg id="a" xmlns="http://www.w3.org/2000/svg" viewBox="0 0 361.8 271.3"><defs><clipPath id="b"><rect width="361.8" height="271.3" style="fill:none;"/></clipPath><clipPath id="c"><rect y="180.9" width="90.4" height="90.4" style="fill:none;"/></clipPath><clipPath id="d"><rect x="180.9" y="180.9" width="90.4" height="90.4" style="fill:none;"/></clipPath><clipPath id="e"><rect x="90.4" y="180.9" width="90.4" height="90.4" style="fill:none;"/></clipPath><clipPath id="f"><rect y="90.4" width="90.4" height="90.4" style="fill:none;"/></clipPath><clipPath id="h"><rect x="180.9" y="90.4" width="90.4" height="90.4" style="fill:none;"/></clipPath><clipPath id="i"><rect x="90.4" width="90.4" height="90.4" style="fill:none;"/></clipPath><clipPath id="j"><rect x="180.9" width="90.4" height="90.4" style="fill:none;"/></clipPath></defs><g style="clip-path:url(#b);"><g style="clip-path:url(#c);"><polygon points="9.9 229.7 -8.5 218.5 -8.5 231.6 9.9 242.8 9.9 229.7" style="fill:#474080;"/><polygon points="9.9 190.3 -8.5 179.1 -8.5 192.3 9.9 203.5 9.9 190.3" style="fill:#e1e8f6;"/><polygon points="9.9 177.1 -8.5 166 -8.5 179.1 9.9 190.3 9.9 177.1" style="fill:#474080;"/><polygon points="9.9 216.6 -8.5 205.4 -8.5 218.5 9.9 229.7 9.9 216.6" style="fill:#e1e8f6;"/><polygon points="9.9 203.5 -8.5 192.3 -8.5 205.4 9.9 216.6 9.9 203.5" style="fill:#474080;"/><polygon points="9.9 242.8 -8.5 231.6 -8.5 244.8 9.9 255.9 9.9 242.8" style="fill:#e1e8f6;"/><polygon points="9.9 255.9 -8.5 244.8 -8.5 257.9 9.9 269.1 9.9 255.9" style="fill:#474080;"/><polygon points="-8.5 257.9 -8.5 271 9.9 282.2 9.9 269.1 -8.5 257.9" style="fill:#e1e8f6;"/><polygon points="9.9 229.7 28.3 218.5 28.3 231.6 9.9 242.8 9.9 229.7" style="fill:#e1e8f6;"/><polygon points="9.9 190.3 28.3 179.1 28.3 192.3 9.9 203.5 9.9 190.3" style="fill:#474080;"/><polygon points="9.9 177.1 28.3 166 28.3 179.1 9.9 190.3 9.9 177.1" style="fill:#e1e8f6;"/><polygon points="9.9 216.6 28.3 205.4 28.3 218.5 9.9 229.7 9.9 216.6" style="fill:#474080;"/><polygon points="9.9 203.5 28.3 192.3 28.3 205.4 9.9 216.6 9.9 203.5" style="fill:#e1e8f6;"/><polygon points="9.9 242.8 28.3 231.6 28.3 244.8 9.9 255.9 9.9 242.8" style="fill:#474080;"/><polygon points="9.9 255.9 28.3 244.8 28.3 257.9 9.9 269.1 9.9 255.9" style="fill:#e1e8f6;"/><polygon points="28.3 257.9 28.3 271 9.9 282.2 9.9 269.1 28.3 257.9" style="fill:#474080;"/><polygon points="46.7 229.7 28.3 218.5 28.3 231.6 46.7 242.8 46.7 229.7" style="fill:#474080;"/><polygon points="46.7 190.3 28.3 179.1 28.3 192.3 46.7 203.5 46.7 190.3" style="fill:#e1e8f6;"/><polygon points="46.7 177.1 28.3 166 28.3 179.1 46.7 190.3 46.7 177.1" style="fill:#474080;"/><polygon points="46.7 216.6 28.3 205.4 28.3 218.5 46.7 229.7 46.7 216.6" style="fill:#e1e8f6;"/><polygon points="46.7 203.5 28.3 192.3 28.3 205.4 46.7 216.6 46.7 203.5" style="fill:#474080;"/><polygon points="46.7 242.8 28.3 231.6 28.3 244.8 46.7 255.9 46.7 242.8" style="fill:#e1e8f6;"/><polygon points="46.7 255.9 28.3 244.8 28.3 257.9 46.7 269.1 46.7 255.9" style="fill:#474080;"/><polygon points="28.3 257.9 28.3 271 46.7 282.2 46.7 269.1 28.3 257.9" style="fill:#e1e8f6;"/><polygon points="46.7 229.7 65 218.5 65 231.6 46.7 242.8 46.7 229.7" style="fill:#e1e8f6;"/><polygon points="46.7 190.3 65 179.1 65 192.3 46.7 203.5 46.7 190.3" style="fill:#474080;"/><polygon points="46.7 177.1 65 166 65 179.1 46.7 190.3 46.7 177.1" style="fill:#e1e8f6;"/><polygon points="46.7 216.6 65 205.4 65 218.5 46.7 229.7 46.7 216.6" style="fill:#474080;"/><polygon points="46.7 203.5 65 192.3 65 205.4 46.7 216.6 46.7 203.5" style="fill:#e1e8f6;"/><polygon points="46.7 242.8 65 231.6 65 244.8 46.7 255.9 46.7 242.8" style="fill:#474080;"/><polygon points="46.7 255.9 65 244.8 65 257.9 46.7 269.1 46.7 255.9" style="fill:#e1e8f6;"/><polygon points="65 257.9 65 271 46.7 282.2 46.7 269.1 65 257.9" style="fill:#474080;"/><polygon points="83.4 229.7 65 218.5 65 231.6 83.4 242.8 83.4 229.7" style="fill:#474080;"/><polygon points="83.4 190.3 65 179.1 65 192.3 83.4 203.5 83.4 190.3" style="fill:#e1e8f6;"/><polygon points="83.4 177.1 65 166 65 179.1 83.4 190.3 83.4 177.1" style="fill:#474080;"/><polygon points="83.4 216.6 65 205.4 65 218.5 83.4 229.7 83.4 216.6" style="fill:#e1e8f6;"/><polygon points="83.4 203.5 65 192.3 65 205.4 83.4 216.6 83.4 203.5" style="fill:#474080;"/><polygon points="83.4 242.8 65 231.6 65 244.8 83.4 255.9 83.4 242.8" style="fill:#e1e8f6;"/><polygon points="83.4 255.9 65 244.8 65 257.9 83.4 269.1 83.4 255.9" style="fill:#474080;"/><polygon points="65 257.9 65 271 83.4 282.2 83.4 269.1 65 257.9" style="fill:#e1e8f6;"/><polygon points="83.4 229.7 101.8 218.5 101.8 231.6 83.4 242.8 83.4 229.7" style="fill:#e1e8f6;"/><polygon points="83.4 190.3 101.8 179.1 101.8 192.3 83.4 203.5 83.4 190.3" style="fill:#474080;"/><polygon points="83.4 177.1 101.8 166 101.8 179.1 83.4 190.3 83.4 177.1" style="fill:#e1e8f6;"/><polygon points="83.4 216.6 101.8 205.4 101.8 218.5 83.4 229.7 83.4 216.6" style="fill:#474080;"/><polygon points="83.4 203.5 101.8 192.3 101.8 205.4 83.4 216.6 83.4 203.5" style="fill:#e1e8f6;"/><polygon points="83.4 242.8 101.8 231.6 101.8 244.8 83.4 255.9 83.4 242.8" style="fill:#474080;"/><polygon points="83.4 255.9 101.8 244.8 101.8 257.9 83.4 269.1 83.4 255.9" style="fill:#e1e8f6;"/><polygon points="101.8 257.9 101.8 271 83.4 282.2 83.4 269.1 101.8 257.9" style="fill:#474080;"/></g><rect x="271.3" y="180.9" width="90.4" height="90.4" style="fill:#e1e8f6;"/><path d="M315.9,208.2s.1-3.9-1.7-4.7-2.4.4-3.8,0c-2.9-.9-2.9-3.8-.9-4.6,1.3-.5,1.8.3,2.1-.2.4-.6-2.8-2.6-1.3-4.6,1.5-1.9,3.3.3,3.9-.3s.2-3.3,2.1-3.3c2.4,0,1.5,2.7,2.1,3.3s2.4-1.6,3.9.3-1.6,3.9-1.3,4.6c.3.5.8-.4,2.1.2,2,.8,2,3.7-.9,4.6-1.3.4-1.9-.8-3.8,0-1.8.8-1.7,4.7-1.7,4.7h-.9.1ZM298.6,225.8s-3.9.1-4.7-1.7.5-2.4,0-3.8c-.9-2.9-3.8-2.9-4.6-.9-.5,1.3.3,1.8-.2,2.1-.6.4-2.6-2.8-4.5-1.3s.3,3.3-.3,3.9-3.4-.4-3.3,2.1c0,1.9,2.7,1.5,3.3,2.1s-1.6,2.4.3,3.9,3.9-1.6,4.5-1.3c.5.3-.4.8.2,2.1.8,2,3.7,2,4.6-.9.4-1.3-.8-1.9,0-3.8.8-1.8,4.7-1.7,4.7-1.7v-.9h0v.1ZM316.2,244s.1,3.9-1.7,4.7-2.4-.4-3.8,0c-2.9.9-2.9,3.8-.9,4.6,1.3.5,1.8-.3,2.1.2.4.6-2.8,2.6-1.3,4.6s3.3-.3,3.9.3-.4,3.4,2.1,3.3c1.9,0,1.5-2.7,2.1-3.3s2.4,1.6,3.9-.3-1.6-3.9-1.3-4.6c.3-.5.8.4,2.1-.2,2-.8,2-3.7-.9-4.6-1.3-.4-1.9.8-3.8,0s-1.7-4.7-1.7-4.7h-.9.1ZM334.5,226.4s3.9-.1,4.7,1.7-.5,2.4,0,3.8c.9,2.9,3.8,2.9,4.6.9.5-1.3-.3-1.8.2-2.1.6-.4,2.6,2.8,4.5,1.3s-.3-3.3.3-3.9,3.4.4,3.3-2.1c0-1.9-2.7-1.5-3.3-2.1s1.6-2.4-.3-3.9-3.9,1.6-4.5,1.3c-.5-.3.4-.8-.2-2.1-.8-2-3.7-2-4.6.9-.4,1.3.8,1.9,0,3.8s-4.7,1.7-4.7,1.7v.9h0v-.1Z" style="fill:#6ebcdc;"/><path d="M337.5,202.4c2.5-5.1,1-10.6,5-15.8,1.4-1.8,4.6-3.2,7.3-2.9,4,.5,6.5-.2,6.5-.2,0,0,.9-.1.6.5s-.9,1-.9,1c0,0,.9.8-.3,1.2-1.2.5-5.2-1.2-5.2-1.2,0,0,3.4,2.4,2.4,3.4-1,1.1-4.2-.9-4.2-.9,0,0,3.3,3.9.5,5.1-2.3.9-1.3-3.2-2.6-3.2s-2.5,1.3-3,4.2c-.6,4.6-3.3,8.6-3.3,8.6,0,0,4.2-2.2,8.9-2.6,1.6-.1,4.3-1.9,4.2-3.3-.1-1.4-3.8.4-3-2.2.8-2.4,4.5-.3,4.5-.3,0,0-1.7-3.2-.7-4.3s3.2,1.6,3.2,1.6c0,0-.3-3.1.1-4.3s1.2-.4,1.2-.4c0,0,.3-.6,1-.9s.6.6.6.6c0,0-1.2,2.4-.9,5.8.3,3.2.1,6.4-1.6,7.9-5.9,5-11.1,2.4-16.2,4.9-2.8,1.3-7.7,3.2-7.7,3.2,0,0,1.1-.5,3.6-5.6h0v.1ZM299.2,208s-4.9-1.9-7.7-3.2c-5.1-2.5-10.3.1-16.2-4.9-1.8-1.5-1.9-4.7-1.6-7.9.3-3.4-.9-5.8-.9-5.8,0,0,0-.9.6-.6s1,.9,1,.9c0,0,.9-.9,1.2.4s.1,4.3.1,4.3c0,0,2.2-2.7,3.2-1.6s-.7,4.3-.7,4.3c0,0,3.7-2.1,4.5.3.9,2.6-2.9.9-3,2.2s2.6,3.2,4.2,3.3c4.7.4,8.9,2.6,8.9,2.6,0,0-2.6-4.1-3.3-8.6-.4-3-1.6-4.2-3-4.2s-.3,4.1-2.6,3.2c-2.8-1.1.5-5.1.5-5.1,0,0-3.2,1.9-4.2.9s2.4-3.4,2.4-3.4c0,0-4,1.7-5.2,1.2s-.3-1.2-.3-1.2c0,0-.6-.4-.9-1s.6-.5.6-.5c0,0,2.5.6,6.5.2,2.8-.3,5.9,1.1,7.3,2.9,4,5.1,2.5,10.6,5,15.8,2.5,5.1,3.6,5.6,3.6,5.6h0v-.1ZM333.9,244.2s4.9,1.9,7.7,3.2c5.1,2.5,10.3-.1,16.2,4.9,1.8,1.5,1.9,4.7,1.6,7.9-.3,3.4.9,5.8.9,5.8,0,0,0,.9-.6.6s-1-1-1-1c0,0-.9.9-1.2-.4s-.1-4.3-.1-4.3c0,0-2.2,2.7-3.2,1.6s.7-4.3.7-4.3c0,0-3.7,2.1-4.5-.3-.9-2.6,2.9-.9,3-2.2.1-1.4-2.6-3.2-4.2-3.3-4.7-.4-8.9-2.6-8.9-2.6,0,0,2.6,4.1,3.3,8.7.4,3,1.6,4.2,3,4.2s.3-4.1,2.6-3.2c2.8,1.1-.5,5.1-.5,5.1,0,0,3.2-1.9,4.2-.9s-2.4,3.5-2.4,3.5c0,0,4-1.7,5.2-1.2s.3,1.2.3,1.2c0,0,.6.4.9,1s-.6.5-.6.5c0,0-2.5-.6-6.5-.2-2.8.3-5.9-1.1-7.3-2.9-4-5.1-2.5-10.6-5-15.8s-3.6-5.6-3.6-5.6h0ZM295.5,249.8c-2.5,5.1-1,10.6-5,15.8-1.4,1.8-4.6,3.2-7.3,2.9-4-.5-6.5.2-6.5.2,0,0-.9.1-.6-.5s.9-1,.9-1c0,0-.9-.8.3-1.2,1.2-.5,5.2,1.2,5.2,1.2,0,0-3.4-2.4-2.4-3.5,1-1,4.2.9,4.2.9,0,0-3.3-3.9-.5-5.1,2.3-1,1.3,3.2,2.6,3.2s2.5-1.3,3-4.2c.6-4.6,3.3-8.6,3.3-8.6,0,0-4.2,2.2-8.9,2.6-1.6.1-4.3,1.9-4.2,3.3.1,1.4,3.8-.4,3,2.2-.8,2.4-4.5.3-4.5.3,0,0,1.7,3.2.7,4.3s-3.2-1.6-3.2-1.6c0,0,.3,3.1-.1,4.3s-1.2.4-1.2.4c0,0-.3.6-1,1s-.6-.6-.6-.6c0,0,1.2-2.4.9-5.8-.3-3.2-.1-6.4,1.6-7.9,5.9-5,11.1-2.4,16.2-4.9,2.8-1.3,7.7-3.2,7.7-3.2,0,0-1.1.5-3.6,5.6h0v-.1ZM329.2,216.3c0-6.5,6.3-12.3,14.7-11.2,14.2,2,16.8,18.8,15,19.2-3.1-.4-2.2-4.4-3.5-4.7-.6-.2-1.9,1.3-2.8.5-1.1-1.1-.9-3.6-1.6-3.9-1-.4-2.2,1.7-2.7.8-.4-.7.4-.9.2-2.8-.2-1.4-1.3-2.4-1.7-2.5-.6-.2-1,5.4-4.7,2.8-1.2-.9-1.5-3.4,0-3.9,1.1-.4,2.5.1,2.3-.9s-8.6-5.2-11.5,2.9c-2.7,7.6,3.1,13.5,3.1,13.5,0,0-5.9,5.9-3.1,13.5,2.9,8.1,11.3,3.9,11.5,2.9s-1.2-.6-2.3-.9c-1.5-.5-1.1-3,0-3.9,3.7-2.7,4.1,3,4.7,2.8.3-.1,1.5-1.1,1.7-2.5.3-1.9-.5-2.1-.2-2.8.5-.9,1.7,1.1,2.7.8.7-.3.5-2.8,1.6-3.9.9-.8,2.2.6,2.8.5,1.2-.4.4-4.4,3.5-4.7,1.8.4-.8,17.3-15,19.2-8.4,1.2-14.7-4.6-14.7-11.2s1.2-7.2,3.5-9.7c-2.3-2.5-3.5-6.5-3.5-9.7h0v-.2ZM326.4,238.8c6.5,0,12.3,6.3,11.2,14.7-2,14.3-18.8,16.8-19.2,15,.4-3.1,4.4-2.2,4.7-3.5.2-.6-1.3-1.9-.5-2.8,1.1-1.1,3.6-.9,3.9-1.6.4-1-1.7-2.2-.8-2.7.7-.4.9.4,2.8.2,1.4-.2,2.4-1.3,2.5-1.7.2-.6-5.5-1-2.8-4.7.9-1.2,3.4-1.5,3.9,0,.4,1.1-.1,2.5.9,2.3s5.2-8.6-2.9-11.5c-7.6-2.7-13.5,3.1-13.5,3.1,0,0-5.9-5.9-13.5-3.1-8.1,2.9-3.9,11.3-2.9,11.5s.5-1.2.9-2.3c.5-1.4,3-1.1,3.9,0,2.7,3.7-3,4.1-2.8,4.7.1.3,1.1,1.5,2.5,1.7,1.9.3,2.1-.5,2.8-.2.9.5-1.1,1.7-.8,2.7.3.7,2.8.5,3.9,1.6.8.9-.6,2.2-.5,2.8.4,1.2,4.4.4,4.7,3.5-.4,1.8-17.3-.8-19.2-15-1.2-8.4,4.6-14.7,11.2-14.7s7.2,1.2,9.7,3.5c2.5-2.3,6.5-3.5,9.7-3.5h.2ZM303.8,235.9c0,6.5-6.3,12.3-14.7,11.2-14.2-2-16.8-18.8-15-19.2,3.1.4,2.2,4.4,3.5,4.7.6.2,1.9-1.3,2.8-.5,1.1,1.1.9,3.6,1.6,3.9,1,.4,2.2-1.7,2.7-.8.4.7-.4.9-.2,2.8.2,1.4,1.3,2.4,1.7,2.5.6.2,1-5.4,4.7-2.8,1.2.9,1.5,3.4,0,3.9-1.1.4-2.5-.1-2.3.9s8.6,5.2,11.5-2.9c2.7-7.6-3.1-13.5-3.1-13.5,0,0,5.9-5.9,3.1-13.5-2.9-8.1-11.3-3.9-11.5-2.9s1.2.6,2.3.9c1.5.5,1.1,3,0,3.9-3.7,2.7-4.1-3-4.7-2.8-.3.1-1.5,1.1-1.7,2.5-.3,1.9.5,2.1.2,2.8-.5.9-1.7-1.1-2.7-.8-.7.3-.5,2.8-1.6,3.9-.9.8-2.2-.6-2.8-.5-1.2.4-.4,4.4-3.5,4.7-1.8-.4.8-17.3,15-19.2,8.4-1.2,14.7,4.6,14.7,11.2s-1.2,7.2-3.5,9.7c2.3,2.5,3.5,6.5,3.5,9.7h0v.2ZM306.7,213.4c-6.5,0-12.3-6.3-11.2-14.7,2-14.2,18.8-16.8,19.2-15-.4,3.1-4.4,2.2-4.7,3.5-.2.6,1.3,1.9.5,2.8-1.1,1.1-3.6.9-3.9,1.6-.4,1,1.7,2.2.8,2.7-.7.4-.9-.4-2.8-.2-1.4.2-2.4,1.3-2.5,1.7-.2.6,5.5,1,2.8,4.7-.9,1.2-3.4,1.5-3.9,0-.4-1.1.1-2.5-.9-2.3s-5.2,8.6,2.9,11.5c7.6,2.7,13.5-3.1,13.5-3.1,0,0,5.9,5.9,13.5,3.1,8.1-2.9,3.9-11.3,2.9-11.5s-.5,1.2-.9,2.3c-.5,1.4-3,1.1-3.9,0-2.7-3.7,3-4.1,2.8-4.7-.1-.3-1.1-1.5-2.5-1.7-1.9-.3-2.1.5-2.8.2s1.1-1.7.8-2.7c-.3-.7-2.8-.5-3.9-1.6-.8-.9.6-2.2.5-2.8-.4-1.2-4.4-.4-4.7-3.5.4-1.8,17.3.8,19.2,15,1.2,8.4-4.6,14.7-11.2,14.7s-7.2-1.2-9.7-3.5c-2.5,2.3-6.5,3.5-9.7,3.5h-.2Z" style="fill:#474080;"/><path d="M303.1,239.6c.4-1.2.7-2.4.7-3.6,0-3.2-1.2-7.2-3.5-9.7,2.3-2.5,3.5-6.5,3.5-9.7s-.3-2.6-.8-3.9c1.2.4,2.4.7,3.6.7,3.2,0,7.2-1.2,9.7-3.5,2.5,2.3,6.5,3.5,9.7,3.5s2.6-.3,3.9-.8c-.4,1.2-.7,2.4-.7,3.6,0,3.2,1.2,7.2,3.5,9.7-2.3,2.5-3.5,6.5-3.5,9.7s.3,2.6.8,3.9c-1.2-.4-2.4-.7-3.6-.7-3.2,0-7.2,1.2-9.7,3.5-2.5-2.3-6.5-3.5-9.7-3.5s-2.6.3-3.9.8Z" style="fill:#6ebcdc;"/><circle cx="316.4" cy="226.1" r="7.6" style="fill:#474080;"/><rect x="180.9" y="180.9" width="90.4" height="90.4" style="fill:#e1e8f6;"/><g style="clip-path:url(#d);"><path d="M277.2,175l-10.2,10.2,10.2,10.2,10.2-10.2-10.2-10.2ZM277.2,189.7c-2.5,0-4.5-2-4.5-4.5s2-4.5,4.5-4.5,4.5,2,4.5,4.5-2,4.5-4.5,4.5Z" style="fill:#474080;"/><path d="M277.1,195.5l-10.2,10.2,10.2,10.2,10.2-10.2-10.2-10.2ZM277.1,210.2c-2.5,0-4.5-2-4.5-4.5s2-4.5,4.5-4.5,4.5,2,4.5,4.5-2,4.5-4.5,4.5Z" style="fill:#404580;"/><path d="M256.7,175.1l-10.2,10.2,10.2,10.2,10.2-10.2-10.2-10.2ZM256.7,189.8c-2.5,0-4.5-2-4.5-4.5s2-4.5,4.5-4.5,4.5,2,4.5,4.5-2,4.5-4.5,4.5Z" style="fill:#404580;"/><path d="M266.9,164.8l-10.2,10.2,10.2,10.2,10.2-10.2-10.2-10.2ZM266.9,168.4c1.4,0,2.5,1.1,2.5,2.5s0,.3,0,.5c-.7-.4-1.5-.7-2.4-.7s-1.7.3-2.4.7v-.5c0-1.4,1.1-2.5,2.5-2.5h-.2ZM263.2,177.4h-.5c-1.4,0-2.5-1.1-2.5-2.5s1.1-2.5,2.5-2.5.3,0,.5,0c-.5.7-.7,1.5-.7,2.4s.3,1.7.7,2.4v.2ZM266.9,181.7c-1.4,0-2.5-1.1-2.5-2.5s0-.3,0-.5c.7.4,1.5.7,2.4.7s1.7-.3,2.4-.7v.5c0,1.4-1.1,2.5-2.5,2.5h.2ZM266.9,178.6c-2,0-3.6-1.6-3.6-3.6s1.6-3.6,3.6-3.6,3.6,1.6,3.6,3.6-1.6,3.6-3.6,3.6ZM271.1,177.5h-.5c.5-.7.7-1.5.7-2.4s-.3-1.7-.7-2.4h.5c1.4,0,2.5,1.1,2.5,2.5s-1.1,2.5-2.5,2.5v-.2Z" style="fill:#6ebcdc;"/><path d="M266.9,185.2l-10.2,10.2,10.2,10.2,10.2-10.2-10.2-10.2ZM266.9,199.9c-2.5,0-4.5-2-4.5-4.5s2-4.5,4.5-4.5,4.5,2,4.5,4.5-2,4.5-4.5,4.5Z" style="fill:#6ebcdc;"/><path d="M246.5,164.8l-10.2,10.2,10.2,10.2,10.2-10.2-10.2-10.2h0ZM246.5,179.5c-2.5,0-4.5-2-4.5-4.5s2-4.5,4.5-4.5,4.5,2,4.5,4.5-2,4.5-4.5,4.5Z" style="fill:#6ebcdc;"/><path d="M277.2,215.9l-10.2,10.2,10.2,10.2,10.2-10.2-10.2-10.2ZM277.2,230.6c-2.5,0-4.5-2-4.5-4.5s2-4.5,4.5-4.5,4.5,2,4.5,4.5-2,4.5-4.5,4.5Z" style="fill:#474080;"/><path d="M256.7,195.4l-10.2,10.2,10.2,10.2,10.2-10.2-10.2-10.2ZM256.7,210.1c-2.5,0-4.5-2-4.5-4.5s2-4.5,4.5-4.5,4.5,2,4.5,4.5-2,4.5-4.5,4.5Z" style="fill:#474080;"/><path d="M236.3,175l-10.2,10.2,10.2,10.2,10.2-10.2-10.2-10.2ZM236.3,189.7c-2.5,0-4.5-2-4.5-4.5s2-4.5,4.5-4.5,4.5,2,4.5,4.5-2,4.5-4.5,4.5Z" style="fill:#474080;"/><path d="M277.1,236.3l-10.2,10.2,10.2,10.2,10.2-10.2-10.2-10.2h0ZM277.1,251c-2.5,0-4.5-2-4.5-4.5s2-4.5,4.5-4.5,4.5,2,4.5,4.5-2,4.5-4.5,4.5Z" style="fill:#404580;"/><path d="M256.7,215.9l-10.2,10.2,10.2,10.2,10.2-10.2-10.2-10.2ZM256.7,230.6c-2.5,0-4.5-2-4.5-4.5s2-4.5,4.5-4.5,4.5,2,4.5,4.5-2,4.5-4.5,4.5Z" style="fill:#404580;"/><path d="M236.3,195.5l-10.2,10.2,10.2,10.2,10.2-10.2-10.2-10.2ZM236.3,210.2c-2.5,0-4.5-2-4.5-4.5s2-4.5,4.5-4.5,4.5,2,4.5,4.5-2,4.5-4.5,4.5Z" style="fill:#404580;"/><path d="M215.9,175.1l-10.2,10.2,10.2,10.2,10.2-10.2-10.2-10.2ZM215.9,189.8c-2.5,0-4.5-2-4.5-4.5s2-4.5,4.5-4.5,4.5,2,4.5,4.5-2,4.5-4.5,4.5Z" style="fill:#404580;"/><path d="M266.9,205.7l-10.2,10.2,10.2,10.2,10.2-10.2-10.2-10.2ZM266.9,209.2c1.4,0,2.5,1.1,2.5,2.5s0,.3,0,.5c-.7-.4-1.5-.7-2.4-.7s-1.7.3-2.4.7v-.5c0-1.4,1.1-2.5,2.5-2.5h-.2ZM263.2,218.3h-.5c-1.4,0-2.5-1.1-2.5-2.5s1.1-2.5,2.5-2.5.3,0,.5,0c-.5.7-.7,1.5-.7,2.4s.3,1.7.7,2.4v.2ZM266.9,222.5c-1.4,0-2.5-1.1-2.5-2.5s0-.3,0-.5c.7.4,1.5.7,2.4.7s1.7-.3,2.4-.7v.5c0,1.4-1.1,2.5-2.5,2.5h.2ZM266.9,219.5c-2,0-3.6-1.6-3.6-3.6s1.6-3.6,3.6-3.6,3.6,1.6,3.6,3.6-1.6,3.6-3.6,3.6ZM271.1,218.3h-.5c.5-.7.7-1.5.7-2.4s-.3-1.7-.7-2.4h.5c1.4,0,2.5,1.1,2.5,2.5s-1.1,2.5-2.5,2.5v-.2Z" style="fill:#6ebcdc;"/><path d="M246.5,185.2l-10.2,10.2,10.2,10.2,10.2-10.2-10.2-10.2h0ZM246.5,188.8c1.4,0,2.5,1.1,2.5,2.5s0,.3,0,.5c-.7-.4-1.5-.7-2.4-.7s-1.7.3-2.4.7v-.5c0-1.4,1.1-2.5,2.5-2.5h-.2ZM242.8,197.9h-.5c-1.4,0-2.5-1.1-2.5-2.5s1.1-2.5,2.5-2.5.3,0,.5,0c-.4.7-.7,1.5-.7,2.4s.3,1.7.7,2.4v.2ZM246.5,202.1c-1.4,0-2.5-1.1-2.5-2.5s0-.3,0-.5c.7.4,1.5.7,2.4.7s1.7-.3,2.4-.7v.5c0,1.4-1.1,2.5-2.5,2.5h.2ZM246.5,199c-2,0-3.6-1.6-3.6-3.6s1.6-3.6,3.6-3.6,3.6,1.6,3.6,3.6-1.6,3.6-3.6,3.6ZM250.7,197.9h-.5c.4-.7.7-1.5.7-2.4s-.3-1.7-.7-2.4h.5c1.4,0,2.5,1.1,2.5,2.5s-1.1,2.5-2.5,2.5v-.2Z" style="fill:#6ebcdc;"/><path d="M226.1,164.8l-10.2,10.2,10.2,10.2,10.2-10.2-10.2-10.2ZM226.1,168.4c1.4,0,2.5,1.1,2.5,2.5s0,.3,0,.5c-.7-.4-1.5-.7-2.4-.7s-1.7.3-2.4.7v-.5c0-1.4,1.1-2.5,2.5-2.5h-.2ZM222.4,177.4h-.5c-1.4,0-2.5-1.1-2.5-2.5s1.1-2.5,2.5-2.5.3,0,.5,0c-.4.7-.7,1.5-.7,2.4s.3,1.7.7,2.4v.2ZM226.1,181.7c-1.4,0-2.5-1.1-2.5-2.5s0-.3,0-.5c.7.4,1.5.7,2.4.7s1.7-.3,2.4-.7v.5c0,1.4-1.1,2.5-2.5,2.5h.2ZM226.1,178.6c-2,0-3.6-1.6-3.6-3.6s1.6-3.6,3.6-3.6,3.6,1.6,3.6,3.6-1.6,3.6-3.6,3.6ZM230.3,177.5h-.5c.4-.7.7-1.5.7-2.4s-.3-1.7-.7-2.4h.5c1.4,0,2.5,1.1,2.5,2.5s-1.1,2.5-2.5,2.5v-.2Z" style="fill:#6ebcdc;"/><path d="M266.9,226.1l-10.2,10.2,10.2,10.2,10.2-10.2-10.2-10.2ZM266.9,240.8c-2.5,0-4.5-2-4.5-4.5s2-4.5,4.5-4.5,4.5,2,4.5,4.5-2,4.5-4.5,4.5Z" style="fill:#6ebcdc;"/><path d="M246.5,205.6l-10.2,10.2,10.2,10.2,10.2-10.2-10.2-10.2h0ZM246.5,220.3c-2.5,0-4.5-2-4.5-4.5s2-4.5,4.5-4.5,4.5,2,4.5,4.5-2,4.5-4.5,4.5Z" style="fill:#6ebcdc;"/><path d="M226.1,185.2l-10.2,10.2,10.2,10.2,10.2-10.2-10.2-10.2ZM226.1,199.9c-2.5,0-4.5-2-4.5-4.5s2-4.5,4.5-4.5,4.5,2,4.5,4.5-2,4.5-4.5,4.5Z" style="fill:#6ebcdc;"/><path d="M205.7,164.8l-10.2,10.2,10.2,10.2,10.2-10.2-10.2-10.2ZM205.7,179.5c-2.5,0-4.5-2-4.5-4.5s2-4.5,4.5-4.5,4.5,2,4.5,4.5-2,4.5-4.5,4.5Z" style="fill:#6ebcdc;"/><path d="M277.2,256.7l-10.2,10.2,10.2,10.2,10.2-10.2-10.2-10.2ZM277.2,271.4c-2.5,0-4.5-2-4.5-4.5s2-4.5,4.5-4.5,4.5,2,4.5,4.5-2,4.5-4.5,4.5Z" style="fill:#474080;"/><path d="M256.7,236.3l-10.2,10.2,10.2,10.2,10.2-10.2-10.2-10.2h0ZM256.7,251c-2.5,0-4.5-2-4.5-4.5s2-4.5,4.5-4.5,4.5,2,4.5,4.5-2,4.5-4.5,4.5Z" style="fill:#474080;"/><path d="M236.3,215.9l-10.2,10.2,10.2,10.2,10.2-10.2-10.2-10.2ZM236.3,230.6c-2.5,0-4.5-2-4.5-4.5s2-4.5,4.5-4.5,4.5,2,4.5,4.5-2,4.5-4.5,4.5Z" style="fill:#474080;"/><path d="M215.9,195.4l-10.2,10.2,10.2,10.2,10.2-10.2-10.2-10.2ZM215.9,210.1c-2.5,0-4.5-2-4.5-4.5s2-4.5,4.5-4.5,4.5,2,4.5,4.5-2,4.5-4.5,4.5Z" style="fill:#474080;"/><path d="M195.5,175l-10.2,10.2,10.2,10.2,10.2-10.2-10.2-10.2ZM195.5,189.7c-2.5,0-4.5-2-4.5-4.5s2-4.5,4.5-4.5,4.5,2,4.5,4.5-2,4.5-4.5,4.5Z" style="fill:#474080;"/><path d="M256.7,256.8l-10.2,10.2,10.2,10.2,10.2-10.2-10.2-10.2ZM256.7,271.4c-2.5,0-4.5-2-4.5-4.5s2-4.5,4.5-4.5,4.5,2,4.5,4.5-2,4.5-4.5,4.5Z" style="fill:#404580;"/><path d="M236.3,236.3l-10.2,10.2,10.2,10.2,10.2-10.2-10.2-10.2h0ZM236.3,251c-2.5,0-4.5-2-4.5-4.5s2-4.5,4.5-4.5,4.5,2,4.5,4.5-2,4.5-4.5,4.5Z" style="fill:#404580;"/><path d="M215.9,215.9l-10.2,10.2,10.2,10.2,10.2-10.2-10.2-10.2ZM215.9,230.6c-2.5,0-4.5-2-4.5-4.5s2-4.5,4.5-4.5,4.5,2,4.5,4.5-2,4.5-4.5,4.5Z" style="fill:#404580;"/><path d="M195.4,195.5l-10.2,10.2,10.2,10.2,10.2-10.2-10.2-10.2ZM195.4,210.2c-2.5,0-4.5-2-4.5-4.5s2-4.5,4.5-4.5,4.5,2,4.5,4.5-2,4.5-4.5,4.5Z" style="fill:#404580;"/><path d="M175,175.1l-10.2,10.2,10.2,10.2,10.2-10.2-10.2-10.2ZM175,189.8c-2.5,0-4.5-2-4.5-4.5s2-4.5,4.5-4.5,4.5,2,4.5,4.5-2,4.5-4.5,4.5Z" style="fill:#404580;"/><path d="M266.9,246.5l-10.2,10.2,10.2,10.2,10.2-10.2-10.2-10.2h0ZM266.9,250.1c1.4,0,2.5,1.1,2.5,2.5s0,.3,0,.5c-.7-.4-1.5-.7-2.4-.7s-1.7.3-2.4.7v-.5c0-1.4,1.1-2.5,2.5-2.5h-.2ZM263.2,259.1h-.5c-1.4,0-2.5-1.1-2.5-2.5s1.1-2.5,2.5-2.5.3,0,.5,0c-.5.7-.7,1.5-.7,2.4s.3,1.7.7,2.4v.2ZM266.9,263.4c-1.4,0-2.5-1.1-2.5-2.5s0-.3,0-.5c.7.5,1.5.7,2.4.7s1.7-.3,2.4-.7v.5c0,1.4-1.1,2.5-2.5,2.5h.2ZM266.9,260.3c-2,0-3.6-1.6-3.6-3.6s1.6-3.6,3.6-3.6,3.6,1.6,3.6,3.6-1.6,3.6-3.6,3.6ZM271.1,259.2h-.5c.5-.7.7-1.5.7-2.4s-.3-1.7-.7-2.4h.5c1.4,0,2.5,1.1,2.5,2.5s-1.1,2.5-2.5,2.5v-.2Z" style="fill:#6ebcdc;"/><path d="M246.5,226.1l-10.2,10.2,10.2,10.2,10.2-10.2-10.2-10.2h0ZM246.5,229.6c1.4,0,2.5,1.1,2.5,2.5s0,.3,0,.5c-.7-.4-1.5-.7-2.4-.7s-1.7.3-2.4.7v-.5c0-1.4,1.1-2.5,2.5-2.5h-.2ZM242.8,238.7h-.5c-1.4,0-2.5-1.1-2.5-2.5s1.1-2.5,2.5-2.5.3,0,.5,0c-.4.7-.7,1.5-.7,2.4s.3,1.7.7,2.4v.2ZM246.5,242.9c-1.4,0-2.5-1.1-2.5-2.5s0-.3,0-.5c.7.4,1.5.7,2.4.7s1.7-.3,2.4-.7v.5c0,1.4-1.1,2.5-2.5,2.5h.2ZM246.5,239.9c-2,0-3.6-1.6-3.6-3.6s1.6-3.6,3.6-3.6,3.6,1.6,3.6,3.6-1.6,3.6-3.6,3.6ZM250.7,238.8h-.5c.4-.7.7-1.5.7-2.4s-.3-1.7-.7-2.4h.5c1.4,0,2.5,1.1,2.5,2.5s-1.1,2.5-2.5,2.5v-.2Z" style="fill:#6ebcdc;"/><path d="M226.1,205.7l-10.2,10.2,10.2,10.2,10.2-10.2-10.2-10.2ZM226.1,209.2c1.4,0,2.5,1.1,2.5,2.5s0,.3,0,.5c-.7-.4-1.5-.7-2.4-.7s-1.7.3-2.4.7v-.5c0-1.4,1.1-2.5,2.5-2.5h-.2ZM222.4,218.3h-.5c-1.4,0-2.5-1.1-2.5-2.5s1.1-2.5,2.5-2.5.3,0,.5,0c-.4.7-.7,1.5-.7,2.4s.3,1.7.7,2.4v.2ZM226.1,222.5c-1.4,0-2.5-1.1-2.5-2.5s0-.3,0-.5c.7.4,1.5.7,2.4.7s1.7-.3,2.4-.7v.5c0,1.4-1.1,2.5-2.5,2.5h.2ZM226.1,219.5c-2,0-3.6-1.6-3.6-3.6s1.6-3.6,3.6-3.6,3.6,1.6,3.6,3.6-1.6,3.6-3.6,3.6ZM230.3,218.3h-.5c.4-.7.7-1.5.7-2.4s-.3-1.7-.7-2.4h.5c1.4,0,2.5,1.1,2.5,2.5s-1.1,2.5-2.5,2.5v-.2Z" style="fill:#6ebcdc;"/><path d="M205.7,185.2l-10.2,10.2,10.2,10.2,10.2-10.2-10.2-10.2ZM205.7,188.8c1.4,0,2.5,1.1,2.5,2.5s0,.3,0,.5c-.7-.4-1.5-.7-2.4-.7s-1.7.3-2.4.7v-.5c0-1.4,1.1-2.5,2.5-2.5h-.2ZM202,197.9h-.5c-1.4,0-2.5-1.1-2.5-2.5s1.1-2.5,2.5-2.5.3,0,.5,0c-.4.7-.7,1.5-.7,2.4s.3,1.7.7,2.4v.2ZM205.7,202.1c-1.4,0-2.5-1.1-2.5-2.5s0-.3,0-.5c.7.4,1.5.7,2.4.7s1.7-.3,2.4-.7v.5c0,1.4-1.1,2.5-2.5,2.5h.2ZM205.7,199c-2,0-3.6-1.6-3.6-3.6s1.6-3.6,3.6-3.6,3.6,1.6,3.6,3.6-1.6,3.6-3.6,3.6ZM209.9,197.9h-.5c.4-.7.7-1.5.7-2.4s-.3-1.7-.7-2.4h.5c1.4,0,2.5,1.1,2.5,2.5s-1.1,2.5-2.5,2.5v-.2Z" style="fill:#6ebcdc;"/><path d="M185.2,164.8l-10.2,10.2,10.2,10.2,10.2-10.2-10.2-10.2ZM185.2,168.4c1.4,0,2.5,1.1,2.5,2.5s0,.3,0,.5c-.7-.4-1.5-.7-2.4-.7s-1.7.3-2.4.7v-.5c0-1.4,1.1-2.5,2.5-2.5h-.2ZM181.5,177.4h-.5c-1.4,0-2.5-1.1-2.5-2.5s1.1-2.5,2.5-2.5.3,0,.5,0c-.4.7-.7,1.5-.7,2.4s.3,1.7.7,2.4v.2ZM185.2,181.7c-1.4,0-2.5-1.1-2.5-2.5s0-.3,0-.5c.7.4,1.5.7,2.4.7s1.7-.3,2.4-.7v.5c0,1.4-1.1,2.5-2.5,2.5h.2ZM185.2,178.6c-2,0-3.6-1.6-3.6-3.6s1.6-3.6,3.6-3.6,3.6,1.6,3.6,3.6-1.6,3.6-3.6,3.6ZM189.4,177.5h-.5c.4-.7.7-1.5.7-2.4s-.3-1.7-.7-2.4h.5c1.4,0,2.5,1.1,2.5,2.5s-1.1,2.5-2.5,2.5v-.2Z" style="fill:#6ebcdc;"/><path d="M266.9,266.9l-10.2,10.2,10.2,10.2,10.2-10.2-10.2-10.2ZM266.9,281.6c-2.5,0-4.5-2-4.5-4.5s2-4.5,4.5-4.5,4.5,2,4.5,4.5-2,4.5-4.5,4.5Z" style="fill:#6ebcdc;"/><path d="M246.5,246.5l-10.2,10.2,10.2,10.2,10.2-10.2-10.2-10.2h0ZM246.5,261.2c-2.5,0-4.5-2-4.5-4.5s2-4.5,4.5-4.5,4.5,2,4.5,4.5-2,4.5-4.5,4.5Z" style="fill:#6ebcdc;"/><path d="M226.1,226.1l-10.2,10.2,10.2,10.2,10.2-10.2-10.2-10.2ZM226.1,240.8c-2.5,0-4.5-2-4.5-4.5s2-4.5,4.5-4.5,4.5,2,4.5,4.5-2,4.5-4.5,4.5Z" style="fill:#6ebcdc;"/><path d="M205.7,205.6l-10.2,10.2,10.2,10.2,10.2-10.2-10.2-10.2ZM205.7,220.3c-2.5,0-4.5-2-4.5-4.5s2-4.5,4.5-4.5,4.5,2,4.5,4.5-2,4.5-4.5,4.5Z" style="fill:#6ebcdc;"/><path d="M185.2,185.2l-10.2,10.2,10.2,10.2,10.2-10.2-10.2-10.2ZM185.2,199.9c-2.5,0-4.5-2-4.5-4.5s2-4.5,4.5-4.5,4.5,2,4.5,4.5-2,4.5-4.5,4.5Z" style="fill:#6ebcdc;"/><path d="M236.3,256.7l-10.2,10.2,10.2,10.2,10.2-10.2-10.2-10.2ZM236.3,271.4c-2.5,0-4.5-2-4.5-4.5s2-4.5,4.5-4.5,4.5,2,4.5,4.5-2,4.5-4.5,4.5Z" style="fill:#474080;"/><path d="M215.9,236.3l-10.2,10.2,10.2,10.2,10.2-10.2-10.2-10.2h0ZM215.9,251c-2.5,0-4.5-2-4.5-4.5s2-4.5,4.5-4.5,4.5,2,4.5,4.5-2,4.5-4.5,4.5Z" style="fill:#474080;"/><path d="M195.5,215.9l-10.2,10.2,10.2,10.2,10.2-10.2-10.2-10.2ZM195.5,230.6c-2.5,0-4.5-2-4.5-4.5s2-4.5,4.5-4.5,4.5,2,4.5,4.5-2,4.5-4.5,4.5Z" style="fill:#474080;"/><path d="M175.1,195.4l-10.2,10.2,10.2,10.2,10.2-10.2-10.2-10.2ZM175.1,210.1c-2.5,0-4.5-2-4.5-4.5s2-4.5,4.5-4.5,4.5,2,4.5,4.5-2,4.5-4.5,4.5Z" style="fill:#474080;"/><path d="M215.9,256.8l-10.2,10.2,10.2,10.2,10.2-10.2-10.2-10.2ZM215.9,271.4c-2.5,0-4.5-2-4.5-4.5s2-4.5,4.5-4.5,4.5,2,4.5,4.5-2,4.5-4.5,4.5Z" style="fill:#404580;"/><path d="M195.4,236.3l-10.2,10.2,10.2,10.2,10.2-10.2-10.2-10.2h0ZM195.4,251c-2.5,0-4.5-2-4.5-4.5s2-4.5,4.5-4.5,4.5,2,4.5,4.5-2,4.5-4.5,4.5Z" style="fill:#404580;"/><path d="M175,215.9l-10.2,10.2,10.2,10.2,10.2-10.2-10.2-10.2ZM175,230.6c-2.5,0-4.5-2-4.5-4.5s2-4.5,4.5-4.5,4.5,2,4.5,4.5-2,4.5-4.5,4.5Z" style="fill:#404580;"/><path d="M246.5,266.9l-10.2,10.2,10.2,10.2,10.2-10.2-10.2-10.2h0ZM246.5,270.5c1.4,0,2.5,1.1,2.5,2.5s0,.3,0,.5c-.7-.5-1.5-.7-2.4-.7s-1.7.3-2.4.7v-.5c0-1.4,1.1-2.5,2.5-2.5h-.2ZM242.8,279.5h-.5c-1.4,0-2.5-1.1-2.5-2.5s1.1-2.5,2.5-2.5.3,0,.5,0c-.4.7-.7,1.5-.7,2.4s.3,1.7.7,2.4v.2ZM246.5,283.8c-1.4,0-2.5-1.1-2.5-2.5s0-.3,0-.5c.7.5,1.5.7,2.4.7s1.7-.3,2.4-.7v.5c0,1.4-1.1,2.5-2.5,2.5h.2ZM246.5,280.7c-2,0-3.6-1.6-3.6-3.6s1.6-3.6,3.6-3.6,3.6,1.6,3.6,3.6-1.6,3.6-3.6,3.6ZM250.7,279.6h-.5c.4-.7.7-1.5.7-2.4s-.3-1.7-.7-2.4h.5c1.4,0,2.5,1.1,2.5,2.5s-1.1,2.5-2.5,2.5v-.2Z" style="fill:#6ebcdc;"/><path d="M226.1,246.5l-10.2,10.2,10.2,10.2,10.2-10.2-10.2-10.2h0ZM226.1,250.1c1.4,0,2.5,1.1,2.5,2.5s0,.3,0,.5c-.7-.4-1.5-.7-2.4-.7s-1.7.3-2.4.7v-.5c0-1.4,1.1-2.5,2.5-2.5h-.2ZM222.4,259.1h-.5c-1.4,0-2.5-1.1-2.5-2.5s1.1-2.5,2.5-2.5.3,0,.5,0c-.4.7-.7,1.5-.7,2.4s.3,1.7.7,2.4v.2ZM226.1,263.4c-1.4,0-2.5-1.1-2.5-2.5s0-.3,0-.5c.7.5,1.5.7,2.4.7s1.7-.3,2.4-.7v.5c0,1.4-1.1,2.5-2.5,2.5h.2ZM226.1,260.3c-2,0-3.6-1.6-3.6-3.6s1.6-3.6,3.6-3.6,3.6,1.6,3.6,3.6-1.6,3.6-3.6,3.6ZM230.3,259.2h-.5c.4-.7.7-1.5.7-2.4s-.3-1.7-.7-2.4h.5c1.4,0,2.5,1.1,2.5,2.5s-1.1,2.5-2.5,2.5v-.2Z" style="fill:#6ebcdc;"/><path d="M205.7,226.1l-10.2,10.2,10.2,10.2,10.2-10.2-10.2-10.2ZM205.7,229.6c1.4,0,2.5,1.1,2.5,2.5s0,.3,0,.5c-.7-.4-1.5-.7-2.4-.7s-1.7.3-2.4.7v-.5c0-1.4,1.1-2.5,2.5-2.5h-.2ZM202,238.7h-.5c-1.4,0-2.5-1.1-2.5-2.5s1.1-2.5,2.5-2.5.3,0,.5,0c-.4.7-.7,1.5-.7,2.4s.3,1.7.7,2.4v.2ZM205.7,242.9c-1.4,0-2.5-1.1-2.5-2.5s0-.3,0-.5c.7.4,1.5.7,2.4.7s1.7-.3,2.4-.7v.5c0,1.4-1.1,2.5-2.5,2.5h.2ZM205.7,239.9c-2,0-3.6-1.6-3.6-3.6s1.6-3.6,3.6-3.6,3.6,1.6,3.6,3.6-1.6,3.6-3.6,3.6ZM209.9,238.8h-.5c.4-.7.7-1.5.7-2.4s-.3-1.7-.7-2.4h.5c1.4,0,2.5,1.1,2.5,2.5s-1.1,2.5-2.5,2.5v-.2Z" style="fill:#6ebcdc;"/><path d="M185.2,205.7l-10.2,10.2,10.2,10.2,10.2-10.2-10.2-10.2ZM185.2,209.2c1.4,0,2.5,1.1,2.5,2.5s0,.3,0,.5c-.7-.4-1.5-.7-2.4-.7s-1.7.3-2.4.7v-.5c0-1.4,1.1-2.5,2.5-2.5h-.2ZM181.5,218.3h-.5c-1.4,0-2.5-1.1-2.5-2.5s1.1-2.5,2.5-2.5.3,0,.5,0c-.4.7-.7,1.5-.7,2.4s.3,1.7.7,2.4v.2ZM185.2,222.5c-1.4,0-2.5-1.1-2.5-2.5s0-.3,0-.5c.7.4,1.5.7,2.4.7s1.7-.3,2.4-.7v.5c0,1.4-1.1,2.5-2.5,2.5h.2ZM185.2,219.5c-2,0-3.6-1.6-3.6-3.6s1.6-3.6,3.6-3.6,3.6,1.6,3.6,3.6-1.6,3.6-3.6,3.6ZM189.4,218.3h-.5c.4-.7.7-1.5.7-2.4s-.3-1.7-.7-2.4h.5c1.4,0,2.5,1.1,2.5,2.5s-1.1,2.5-2.5,2.5v-.2Z" style="fill:#6ebcdc;"/><path d="M226.1,266.9l-10.2,10.2,10.2,10.2,10.2-10.2-10.2-10.2ZM226.1,281.6c-2.5,0-4.5-2-4.5-4.5s2-4.5,4.5-4.5,4.5,2,4.5,4.5-2,4.5-4.5,4.5Z" style="fill:#6ebcdc;"/><path d="M205.7,246.5l-10.2,10.2,10.2,10.2,10.2-10.2-10.2-10.2h0ZM205.7,261.2c-2.5,0-4.5-2-4.5-4.5s2-4.5,4.5-4.5,4.5,2,4.5,4.5-2,4.5-4.5,4.5Z" style="fill:#6ebcdc;"/><path d="M185.2,226.1l-10.2,10.2,10.2,10.2,10.2-10.2-10.2-10.2ZM185.2,240.8c-2.5,0-4.5-2-4.5-4.5s2-4.5,4.5-4.5,4.5,2,4.5,4.5-2,4.5-4.5,4.5Z" style="fill:#6ebcdc;"/><path d="M195.5,256.7l-10.2,10.2,10.2,10.2,10.2-10.2-10.2-10.2ZM195.5,271.4c-2.5,0-4.5-2-4.5-4.5s2-4.5,4.5-4.5,4.5,2,4.5,4.5-2,4.5-4.5,4.5Z" style="fill:#474080;"/><path d="M175.1,236.3l-10.2,10.2,10.2,10.2,10.2-10.2-10.2-10.2h0ZM175.1,251c-2.5,0-4.5-2-4.5-4.5s2-4.5,4.5-4.5,4.5,2,4.5,4.5-2,4.5-4.5,4.5Z" style="fill:#474080;"/><path d="M175,256.8l-10.2,10.2,10.2,10.2,10.2-10.2-10.2-10.2ZM175,271.4c-2.5,0-4.5-2-4.5-4.5s2-4.5,4.5-4.5,4.5,2,4.5,4.5-2,4.5-4.5,4.5Z" style="fill:#404580;"/><path d="M205.7,266.9l-10.2,10.2,10.2,10.2,10.2-10.2-10.2-10.2ZM205.7,270.5c1.4,0,2.5,1.1,2.5,2.5s0,.3,0,.5c-.7-.5-1.5-.7-2.4-.7s-1.7.3-2.4.7v-.5c0-1.4,1.1-2.5,2.5-2.5h-.2ZM202,279.5h-.5c-1.4,0-2.5-1.1-2.5-2.5s1.1-2.5,2.5-2.5.3,0,.5,0c-.4.7-.7,1.5-.7,2.4s.3,1.7.7,2.4v.2ZM205.7,283.8c-1.4,0-2.5-1.1-2.5-2.5s0-.3,0-.5c.7.5,1.5.7,2.4.7s1.7-.3,2.4-.7v.5c0,1.4-1.1,2.5-2.5,2.5h.2ZM205.7,280.7c-2,0-3.6-1.6-3.6-3.6s1.6-3.6,3.6-3.6,3.6,1.6,3.6,3.6-1.6,3.6-3.6,3.6ZM209.9,279.6h-.5c.4-.7.7-1.5.7-2.4s-.3-1.7-.7-2.4h.5c1.4,0,2.5,1.1,2.5,2.5s-1.1,2.5-2.5,2.5v-.2Z" style="fill:#6ebcdc;"/><path d="M185.2,246.5l-10.2,10.2,10.2,10.2,10.2-10.2-10.2-10.2h0ZM185.2,250.1c1.4,0,2.5,1.1,2.5,2.5s0,.3,0,.5c-.7-.4-1.5-.7-2.4-.7s-1.7.3-2.4.7v-.5c0-1.4,1.1-2.5,2.5-2.5h-.2ZM181.5,259.1h-.5c-1.4,0-2.5-1.1-2.5-2.5s1.1-2.5,2.5-2.5.3,0,.5,0c-.4.7-.7,1.5-.7,2.4s.3,1.7.7,2.4v.2ZM185.2,263.4c-1.4,0-2.5-1.1-2.5-2.5s0-.3,0-.5c.7.5,1.5.7,2.4.7s1.7-.3,2.4-.7v.5c0,1.4-1.1,2.5-2.5,2.5h.2ZM185.2,260.3c-2,0-3.6-1.6-3.6-3.6s1.6-3.6,3.6-3.6,3.6,1.6,3.6,3.6-1.6,3.6-3.6,3.6ZM189.4,259.2h-.5c.4-.7.7-1.5.7-2.4s-.3-1.7-.7-2.4h.5c1.4,0,2.5,1.1,2.5,2.5s-1.1,2.5-2.5,2.5v-.2Z" style="fill:#6ebcdc;"/><path d="M185.2,266.9l-10.2,10.2,10.2,10.2,10.2-10.2-10.2-10.2ZM185.2,281.6c-2.5,0-4.5-2-4.5-4.5s2-4.5,4.5-4.5,4.5,2,4.5,4.5-2,4.5-4.5,4.5Z" style="fill:#6ebcdc;"/></g><rect x="90.4" y="180.9" width="90.4" height="90.4" style="fill:#474080;"/><g style="clip-path:url(#e);"><path d="M177.1,267.5h-30.9c-2.9,2.4-6.5,3.8-10.5,3.8s-7.7-1.4-10.5-3.8h-30.9v-30.9c-2.4-2.9-3.8-6.5-3.8-10.5s1.4-7.7,3.8-10.5v-30.9h30.9c2.9-2.4,6.5-3.8,10.5-3.8s7.7,1.4,10.5,3.8h30.9v30.9c2.4,2.9,3.8,6.5,3.8,10.5s-1.4,7.7-3.8,10.5v30.9Z" style="fill:#404580;"/><path d="M173.3,236.2v27.6h-27.5c-2.5,2.8-6.1,4.5-10.1,4.5s-7.6-1.8-10.1-4.5h-27.6v-27.5c-2.8-2.5-4.5-6.1-4.5-10.1s1.8-7.6,4.5-10.1v-27.6h27.5c2.5-2.8,6.1-4.5,10.1-4.5s7.6,1.8,10.1,4.5h27.6v27.5c2.8,2.5,4.5,6.1,4.5,10.1s-1.8,7.6-4.5,10.1h0Z" style="fill:#e1e8f6;"/><path d="M168.8,234.6v24.7h-24.6c-1.6,3-4.8,5.1-8.5,5.1s-6.9-2.1-8.5-5.1h-24.7v-24.6c-3-1.6-5.1-4.8-5.1-8.5s2.1-6.9,5.1-8.5v-24.7h24.6c1.6-3,4.8-5.1,8.5-5.1s6.9,2.1,8.5,5.1h24.7v24.6c3,1.6,5.1,4.8,5.1,8.5s-2.1,6.9-5.1,8.5h0Z" style="fill:#474080;"/><path d="M164.3,231.7v23h-22.9c0,3.1-2.6,5.6-5.7,5.6s-5.6-2.5-5.7-5.6h-23v-22.9c-3.1,0-5.6-2.6-5.6-5.7s2.5-5.6,5.6-5.7v-23h22.9c0-3.1,2.6-5.6,5.7-5.6s5.6,2.5,5.7,5.6h23v22.9c3.1,0,5.6,2.6,5.6,5.7s-2.5,5.6-5.6,5.7h0Z" style="fill:#6ebcdc;"/><path d="M159.6,226.1c-6.2,0-23.9,17.7-23.9,24,0-6.3-17.7-24-23.9-24,6.2,0,23.9-17.7,23.9-24,0,6.3,17.7,24,23.9,24h0Z" style="fill:#474080;"/><path d="M127.2,223.9c-10.2-1.7-17.9-10.5-17.9-21.2s0-1.9.2-2.8c.9-.1,1.9-.2,2.8-.2,10.6,0,19.5,7.8,21.2,17.9-3.1.8-5.5,3.2-6.3,6.3h0ZM144.1,228.3c-.8,3.1-3.2,5.5-6.3,6.3,1.7,10.2,10.5,17.9,21.2,17.9s1.9,0,2.8-.2c.1-.9.2-1.9.2-2.8,0-10.6-7.8-19.5-17.9-21.2h0ZM144.1,223.9c10.2-1.7,17.9-10.5,17.9-21.2s0-1.9-.2-2.8c-.9-.1-1.9-.2-2.8-.2-10.6,0-19.4,7.8-21.2,17.9,3.1.8,5.5,3.2,6.3,6.3h0ZM127.2,228.3c-10.2,1.7-17.9,10.5-17.9,21.2s0,1.9.2,2.8c.9.1,1.9.2,2.8.2,10.6,0,19.5-7.8,21.2-17.9-3.1-.8-5.5-3.2-6.3-6.3h0Z" style="fill:#404580;"/><path d="M143,231.2h-.3c.6-.9,1.1-1.9,1.4-3,.2-.7.3-1.4.3-2.2s-.1-1.5-.3-2.2c-.3-1.1-.8-2.1-1.4-3h.3c8.7,0,15.7-7,15.7-15.7s0-1.4-.1-2.1c-.7,0-1.4-.1-2.1-.1-8.7,0-15.7,7-15.7,15.7s0,.2,0,.3c-.9-.6-1.9-1.1-3-1.4-.7-.2-1.4-.3-2.2-.3s-1.5.1-2.2.3c-1.1.3-2.1.8-3,1.4v-.3c0-8.7-7-15.7-15.7-15.7s-1.4,0-2.1.1c0,.7-.2,1.4-.2,2.1,0,8.7,7,15.7,15.7,15.7s.2,0,.3,0c-.6.9-1.1,1.9-1.4,3-.2.7-.3,1.4-.3,2.2s.1,1.5.3,2.2c.3,1.1.8,2.1,1.4,3h-.3c-8.7,0-15.7,7-15.7,15.7s0,1.4.2,2.1c.7,0,1.4.1,2.1.1,8.7,0,15.7-7,15.7-15.7s0-.2,0-.3c.9.6,1.9,1.1,3,1.4.7.2,1.4.3,2.2.3s1.5-.1,2.2-.3c1.1-.3,2.1-.8,3-1.4v.3c0,8.7,7,15.7,15.7,15.7s1.4,0,2.1-.1c0-.7.1-1.4.1-2.1,0-8.7-7-15.7-15.7-15.7h0ZM139.9,227.5c-.4,1.3-1.5,2.4-2.8,2.8-.5.2-.9.3-1.4.3s-1-.1-1.4-.3c-1.3-.4-2.4-1.5-2.8-2.8-.1-.5-.3-.9-.3-1.4s.1-1,.3-1.4c.4-1.3,1.5-2.4,2.8-2.8.5-.2.9-.3,1.4-.3s1,.1,1.4.3c1.3.4,2.4,1.5,2.8,2.8.1.5.3.9.3,1.4s-.1,1-.3,1.4Z" style="fill:#e1e8f6;"/></g><rect y="90.4" width="90.4" height="90.4" style="fill:#e1e8f6;"/><g style="clip-path:url(#f);"><path d="M45.5,94.4c10.5,0,19,8.5,19,19s-8.5,19-19,19-19-8.5-19-19,8.5-19,19-19M45.5,91.2c-12.3,0-22.2,9.9-22.2,22.2s10,22.2,22.2,22.2,22.2-9.9,22.2-22.2-10-22.2-22.2-22.2h0ZM45.5,138.9c10.5,0,19,8.5,19,19s-8.5,19-19,19-19-8.5-19-19,8.5-19,19-19M45.5,135.7c-12.3,0-22.2,9.9-22.2,22.2s10,22.2,22.2,22.2,22.2-9.9,22.2-22.2-10-22.2-22.2-22.2h0ZM23.2,116.7c10.5,0,19,8.5,19,19s-8.5,19-19,19-19-8.5-19-19,8.5-19,19-19M23.2,113.5c-12.3,0-22.2,9.9-22.2,22.2s9.9,22.2,22.2,22.2,22.2-9.9,22.2-22.2-10-22.2-22.2-22.2h0ZM67.7,116.7c10.5,0,19,8.5,19,19s-8.5,19-19,19-19-8.5-19-19,8.5-19,19-19M67.7,113.5c-12.3,0-22.2,9.9-22.2,22.2s10,22.2,22.2,22.2,22.2-9.9,22.2-22.2-9.9-22.2-22.2-22.2h0ZM13.2,79.2c13.2,0,23.9,10.7,23.9,23.9s-10.7,23.9-23.9,23.9-23.9-10.7-23.9-23.9S0,79.2,13.2,79.2M13.2,76c-14.9,0-27.1,12.1-27.1,27.1s12.1,27.1,27.1,27.1,27.1-12.1,27.1-27.1-12.1-27.1-27.1-27.1h0ZM77.2,79.2c13.2,0,23.9,10.7,23.9,23.9s-10.7,23.9-23.9,23.9-23.9-10.7-23.9-23.9,10.7-23.9,23.9-23.9M77.2,76c-15,0-27.1,12.1-27.1,27.1s12.1,27.1,27.1,27.1,27.1-12.1,27.1-27.1-12.1-27.1-27.1-27.1h0ZM13.2,144.3c13.2,0,23.9,10.7,23.9,23.9s-10.7,23.9-23.9,23.9-23.9-10.7-23.9-23.9,10.7-23.9,23.9-23.9M13.2,141.1c-14.9,0-27.1,12.1-27.1,27.1s12.1,27.1,27.1,27.1,27.1-12.1,27.1-27.1-12.1-27.1-27.1-27.1h0ZM77.2,144.3c13.2,0,23.9,10.7,23.9,23.9s-10.7,23.9-23.9,23.9-23.9-10.7-23.9-23.9,10.7-23.9,23.9-23.9M77.2,141.1c-15,0-27.1,12.1-27.1,27.1s12.1,27.1,27.1,27.1,27.1-12.1,27.1-27.1-12.1-27.1-27.1-27.1h0Z" style="fill:#474080;"/><path d="M45.2,111.1c-4.5,10.2-14.6,20.4-24.8,24.8,10.2,4.5,20.4,14.6,24.8,24.8,4.5-10.2,14.6-20.4,24.8-24.8-10.2-4.5-20.4-14.6-24.8-24.8Z" style="fill:#474080;"/><path d="M45.2,153.7c-3.2-7.3-10.5-14.6-17.8-17.8,7.3-3.2,14.6-10.4,17.8-17.8,3.2,7.3,10.5,14.6,17.8,17.8-7.3,3.2-14.6,10.4-17.8,17.8Z" style="fill:#6ebcdc;"/><g id="g"><path d="M2.3,157.1c0,2.2,2.3,4.9,2.6,9.5.3,4.6-1.1,8.8-3.3,10.4-2.2,1.7-13.2,7.5-13.2,7.5v5.1s16.7-11.9,21.2-12.4,7.6-.7,15,3.9c2-3-1.1-5.6-3.2-5.2,1.1-1.9,1.6-3.8-.3-3.9s-8.9,3.9-9.8,2.6,8.7-3.8,7.7-5.9c-.4-1.6-2,.4-2.5-.4s5-3.7,3.5-5.4-4.2,1.6-5.2,1.6.3-2.3-1-2.2c-5,2.1-4.4,9.2-5.7,8.4-1.8-1.1,1.1-2.2,1.4-7.4.2-2.9.8-4.1-.9-3.9-1.7.2-2.2,1-2.2,1,0,0-4.1-7.1-4.2-3.4h0l.1.1Z" style="fill:#404580;"/><path d="M2.3,114.8c0-2.2,2.3-4.9,2.6-9.5.3-4.6-1.1-8.8-3.3-10.4-2.2-1.7-13.2-7.5-13.2-7.5v-5.1s16.7,11.9,21.2,12.4,7.6.7,15-3.9c2,3-1.1,5.6-3.2,5.2,1.1,1.9,1.6,3.8-.3,3.9s-8.9-3.9-9.8-2.6,8.7,3.8,7.7,5.9c-.4,1.6-2-.4-2.5.4s5,3.7,3.5,5.4-4.2-1.6-5.2-1.6.3,2.3-1,2.2c-5-2.1-4.4-9.2-5.7-8.4-1.8,1.1,1.1,2.2,1.4,7.4.2,2.9.8,4.1-.9,3.9s-2.2-1-2.2-1c0,0-4.1,7.1-4.2,3.4l.1-.1Z" style="fill:#404580;"/><path d="M88.7,157.1c0,2.2-2.3,4.9-2.6,9.5s1.1,8.8,3.3,10.4,13.2,7.5,13.2,7.5v5.1s-16.7-11.9-21.2-12.4-7.6-.7-15,3.9c-2-3,1.1-5.6,3.2-5.2-1.1-1.9-1.6-3.8.3-3.9s8.8,3.9,9.8,2.6-8.7-3.8-7.7-5.9c.4-1.6,2,.4,2.4-.4s-5-3.7-3.5-5.4,4.2,1.6,5.2,1.6-.3-2.3,1-2.2c5,2.1,4.4,9.2,5.7,8.4,1.8-1.1-1.1-2.2-1.4-7.4-.2-2.9-.8-4.1.9-3.9s2.2,1,2.2,1c0,0,4.1-7.1,4.2-3.4h0v.1Z" style="fill:#404580;"/><path d="M88.7,114.8c0-2.2-2.3-4.9-2.6-9.5s1.1-8.8,3.3-10.4c2.2-1.7,13.2-7.5,13.2-7.5v-5.1s-16.7,11.9-21.2,12.4-7.6.7-15-3.9c-2,3,1.1,5.6,3.2,5.2-1.1,1.9-1.6,3.8.3,3.9,1.9.2,8.8-3.9,9.8-2.6s-8.7,3.8-7.7,5.9c.4,1.6,2-.4,2.4.4s-5,3.7-3.5,5.4,4.2-1.6,5.2-1.6-.3,2.3,1,2.2c5-2.1,4.4-9.2,5.7-8.4,1.8,1.1-1.1,2.2-1.4,7.4-.2,2.9-.8,4.1.9,3.9s2.2-1,2.2-1c0,0,4.1,7.1,4.2,3.4v-.1Z" style="fill:#404580;"/></g></g><rect x="90.4" y="90.4" width="90.4" height="90.4" style="fill:#e1e8f6;"/><path d="M121.1,107.8c1.9,4.7,1.5,13.1,1.5,13.1,0,0-2.6-1.9-7.7-9.1s-.1-18.6-.1-18.6c-1.1,3.6,4.4,9.9,6.3,14.6ZM108.5,120.4c4.7,1.9,12.9,1.5,12.9,1.5,0,0-1.9-2.5-9-7.6s-18.3-.1-18.3-.1c3.5-1.1,9.7,4.3,14.4,6.2ZM150.3,109.3c-1.9,4.7-1.5,13.1-1.5,13.1,0,0,2.6-1.9,7.7-9.1s.1-18.6.1-18.6c1.1,3.6-4.4,9.9-6.3,14.6h0ZM177.3,115.7s-11.2-5-18.3.1-9,7.6-9,7.6c0,0,8.2.4,12.9-1.5s10.9-7.3,14.4-6.2h0ZM121.4,163.5c1.9-4.7,1.5-13.1,1.5-13.1,0,0-2.6,1.9-7.7,9.1-5.2,7.2-.1,18.6-.1,18.6-1.1-3.6,4.4-9.9,6.3-14.6h0ZM94.5,157.2s11.2,5,18.3-.1c7.1-5.1,9-7.6,9-7.6,0,0-8.2-.4-12.9,1.5s-10.9,7.3-14.4,6.2h0ZM156.7,177.8s5.1-11.4-.1-18.6c-5.2-7.2-7.7-9.1-7.7-9.1,0,0-.4,8.4,1.5,13.1s7.4,11.1,6.3,14.6h0ZM162.9,150.6c-4.6-1.9-12.9-1.5-12.9-1.5,0,0,1.9,2.5,9,7.6s18.3.1,18.3.1c-3.5,1.1-9.7-4.3-14.4-6.2h0Z" style="fill:#404580;"/><path d="M126.2,116.8c.4-1.3,1.6-2.2,3-2.2s3.2,1.4,3.2,3.2-1.1,2.8-2.5,3.1c1.7,1.2,3.7,1.8,6,1.8s4.3-.7,6-1.8c-1.4-.3-2.5-1.6-2.5-3.1s1.4-3.2,3.2-3.2,2.6.9,3,2.2c1.4,4.6-3.9,8-9.7,8s-11.1-3.4-9.7-8h0ZM124.4,136.3c0-5.8-3.4-11.1-8-9.7-1.3.4-2.2,1.6-2.2,3s1.4,3.2,3.2,3.2,2.8-1.1,3.1-2.5c1.2,1.7,1.8,3.8,1.8,6s-.7,4.3-1.8,6c-.3-1.4-1.6-2.5-3.1-2.5s-3.2,1.4-3.2,3.2.9,2.6,2.2,3c4.6,1.4,8-3.4,8-9.7h0ZM155.3,146c1.3-.4,2.2-1.6,2.2-3s-1.4-3.2-3.2-3.2-2.8,1.1-3.1,2.5c-1.1-1.7-1.8-3.7-1.8-6s.7-4.3,1.8-6c.3,1.4,1.6,2.5,3.1,2.5s3.2-1.4,3.2-3.2-.9-2.6-2.2-3c-4.6-1.4-8,3.9-8,9.7s3.4,11.1,8,9.7h0ZM126.2,155.7c.4,1.3,1.6,2.2,3,2.2s3.2-1.4,3.2-3.2-1.1-2.8-2.5-3.1c1.7-1.1,3.7-1.8,6-1.8s4.3.7,6,1.8c-1.4.3-2.5,1.6-2.5,3.1s1.4,3.2,3.2,3.2,2.6-.9,3-2.2c1.4-4.6-3.9-8-9.7-8s-11.1,3.4-9.7,8h0Z" style="fill:#474080;"/><path d="M169.4,137.5c-2.8-.3-5.5.6-5.7,2.8-.2,1.8.6,3.8,3.2,4.5h0c0,1.9-4.1,3.8-9.2,3.5-10.1-.6-11.4-5.5-11.9-7.7-.4-2-.6-6.1,0-8.5.5-2.2.8-6.9,11.9-7.7,5.1-.4,9.4,2,9.2,3.5-2.5.7-3.4,2.8-3.2,4.5.3,2.1,3,3.1,5.7,2.8s4.5-2,4.5-6.5-7.5-7.2-15.4-6.2c-2.7.3-5,.8-6.9,1.4l-3.2-2.8c.6-2,1.1-4.4,1.5-7.2,1-7.9-1.8-15.4-6.2-15.4s-6.2,2.7-6.5,4.5c-.3,2.8.6,5.5,2.8,5.7,1.8.2,3.8-.7,4.5-3.2h0c1.5-.2,3.8,4.1,3.5,9.2-.8,11.1-5.5,11.3-7.7,11.9-2.5.6-6.5.4-8.5,0-2.2-.5-7.1-1.7-7.7-11.9-.3-5.1,1.6-9.2,3.5-9.2.7,2.5,2.8,3.4,4.5,3.2,2.1-.3,3.1-3,2.8-5.7-.2-1.8-2-4.5-6.5-4.5s-7.2,7.5-6.2,15.4c.3,2.3.6,4.2,1.1,5.9l-4.8,3.6h0c-1.5-.3-3.2-.6-5-.8-7.9-1-15.4,1.8-15.4,6.3s2.7,6.2,4.5,6.5c2.8.3,5.5-.6,5.7-2.8.2-1.8-.7-3.8-3.2-4.5-.2-1.5,4.1-3.8,9.2-3.5,11.1.8,11.3,5.5,11.9,7.7.6,2.5.4,6.5,0,8.5-.3,1.4-.9,3.7-3.6,5.4l-.3.2c-1.7,1.1-4.3,1.9-8,2.1-5.1.3-9.2-1.6-9.2-3.5h0c2.5-.7,3.4-2.8,3.2-4.5-.3-2.1-3-3.1-5.7-2.8-1.8.2-4.5,2-4.5,6.5s7.5,7.2,15.4,6.2c2.3-.3,4.2-.6,5.9-1.1l3.8,3.9c-.4,1.7-.8,3.6-1.1,5.9-1,7.9,1.8,15.4,6.2,15.4s6.2-2.7,6.5-4.5c.3-2.8-.6-5.5-2.8-5.7-1.8-.2-3.8.6-4.5,3.2-1.9,0-3.8-4.1-3.5-9.2.6-10.1,5.5-11.4,7.7-11.9,2-.4,6.1-.6,8.5,0,2.2.5,6.9.8,7.7,11.9.4,5.1-2,9.4-3.5,9.2h0c-.7-2.5-2.8-3.4-4.5-3.2-2.1.3-3.1,3-2.8,5.7s2,4.5,6.5,4.5,7.2-7.5,6.2-15.4c-.3-2.4-.7-4.5-1.2-6.4l3.8-3.4c1.7.5,3.7.8,6.1,1.1,7.9,1,15.4-1.8,15.4-6.2s-2.7-6.2-4.5-6.5h0v-.2ZM131.5,143.4c-1.3.3-2.4.8-3.4,1.4l-.7-.7c.6-1,1.1-2.1,1.4-3.4.9-3.6.8-6.7.2-9-.4-1.5-1-2.9-2-4l.4-.4c1.2.9,2.5,1.4,4.1,1.8,3.6.9,6.7.8,9,.2.8-.2,1.5-.5,2.2-.8h0l.8,1.1h0c-.3.6-.6,1.3-.7,2.1-.6,2.3-.7,5.4.2,9,.3,1.3.8,2.4,1.4,3.4l-.6.6c-1-.7-2.1-1.2-3.3-1.4-2.3-.6-5.4-.7-9,.2h0v-.1Z" style="fill:#474080;"/><path d="M141.1,136.2l-5.4,5.4-5.4-5.4,5.4-5.4,5.4,5.4Z" style="fill:#474080;"/><path d="M175.4,107.5c-3.2,6-15.8,4.6-15.8,4.6,0,0,.5-12.4,3.7-14.8,4.5-3.4,5.5,5.3,5.5,5.3,0,0,8,2.3,6.6,4.8h0v.1ZM175.4,165.1c-3.2-6-15.8-4.6-15.8-4.6,0,0,.5,12.4,3.7,14.8,4.5,3.4,5.5-5.3,5.5-5.3,0,0,8-2.3,6.6-4.8h0v-.1ZM96,106.2c3.2,6,15.8,4.6,15.8,4.6,0,0-.5-12.4-3.7-14.8-4.5-3.4-5.5,5.3-5.5,5.3,0,0-8,2.3-6.6,4.8v.1ZM102.6,169.9s1,8.8,5.5,5.3c3.2-2.4,3.7-14.8,3.7-14.8,0,0-12.6-1.4-15.8,4.6-1.4,2.6,6.6,4.8,6.6,4.8h0v.1Z" style="fill:#6ebcdc;"/><path d="M90.4,128.2v-37.8h90.4v37.9h-.4c-.3-13.6-1.8-25.6-4.7-28.1-14-11.9-67-12.8-80.1,0-2.7,2.6-4.3,14.6-4.8,28.1h-.5l.1-.1ZM180.3,143.8c-.7,14.3-2.6,27.2-5.7,29.7-10,8.1-64.6,10.3-78.5-.2-3.1-2.4-4.9-15.2-5.3-29.5h-.4v37.1h90.4v-37.2h-.6l.1.1Z" style="fill:#474080;"/><rect x="180.9" y="90.4" width="90.4" height="90.4" style="fill:#e1e8f6;"/><g style="clip-path:url(#g);"><path d="M185.2,185.4s8.1-15.3,20.9-24.4c4.9-3.4,14.9-3.5,14.2,5.4-.5,5.3-3.8,4.8-4.8,4.4-3.9-1.5-2.4-4.7-.5-5.1.8-1.3-5.3-5.1-6.2,3.2-1.1-.7-2.6-1.5-3.9-.9-2.8,1.2-1.4,4-1,4.4-5.8,0-8.5,2.8-4.9,5.9.6.5,1.9,0,2.2-.7-.6-.4-1.4-1-1-1.7,2.2-3.4,9.7,2.7,16.1-.5,3.2-1.6,5.7-4.6,6.2-8.1,0,0,1.4-9-6-10.9-7-1.9-11.8,1.8-11.8,1.8,0,0,3.8-4.6,2.3-11.7-1.6-7.4-10.7-6.5-10.7-6.5-3.5.3-6.7,2.8-8.4,5.9-3.5,6.3,2.2,14.1-1.2,16.1-.8.4-1.3-.4-1.7-1.1-.8.3-1.3,1.5-.8,2.2,2.9,3.8,5.9,1.2,6.1-4.6.4.4,3.1,1.9,4.5-.8.6-1.2,0-2.8-.8-3.9,8.3-.6,4.8-6.9,3.5-6.1-.5,1.9-3.8,3.2-5.1-.7-.4-1-.7-4.4,4.6-4.6,8.9-.4,8.4,9.7,4.8,14.4-9.6,12.4-25.3,19.8-25.3,19.8l8.5,8.9h0l.2-.1Z" style="fill:#474080;"/><path d="M213.5,152.3c0-1.4-1.1-2.6-2.6-2.6s-2.1.7-2.4,1.7l-1.2,4.2s3.4-.7,3.6-.7c.7,0,1.3-.3,1.8-.7h0c.5-.5.8-1.1.8-1.9h0Z" style="fill:#474080;"/><path d="M267,185.4s-8.1-15.3-20.9-24.4c-4.9-3.4-14.9-3.5-14.2,5.4.5,5.3,3.8,4.8,4.8,4.4,3.9-1.5,2.4-4.7.5-5.1-.8-1.3,5.3-5.1,6.2,3.2,1.1-.7,2.6-1.5,3.9-.9,2.8,1.2,1.4,4,1,4.4,5.8,0,8.5,2.8,4.9,5.9-.6.5-1.9,0-2.2-.7.6-.4,1.4-1,1-1.7-2.2-3.4-9.7,2.7-16.1-.5-3.2-1.6-5.7-4.6-6.2-8.1,0,0-1.4-9,6-10.9,7-1.9,11.8,1.8,11.8,1.8,0,0-3.8-4.6-2.3-11.7,1.6-7.4,10.7-6.5,10.7-6.5,3.5.3,6.7,2.8,8.3,5.9,3.5,6.3-2.2,14.1,1.2,16.1.8.4,1.3-.4,1.7-1.1.8.3,1.3,1.5.8,2.2-2.9,3.8-5.9,1.2-6.1-4.6-.4.4-3.1,1.9-4.5-.8-.6-1.2,0-2.8.8-3.9-8.3-.6-4.8-6.9-3.5-6.1.5,1.9,3.8,3.2,5.1-.7.4-1,.7-4.4-4.6-4.6-8.9-.4-8.4,9.7-4.8,14.4,9.6,12.4,25.3,19.8,25.3,19.8l-8.5,8.9h0l-.1-.1Z" style="fill:#474080;"/><path d="M238.6,152.3c0-1.4,1.1-2.6,2.6-2.6s2.1.7,2.4,1.7l1.2,4.2s-3.4-.7-3.6-.7c-.7,0-1.3-.3-1.8-.7h0c-.5-.5-.8-1.1-.8-1.9h0Z" style="fill:#474080;"/><path d="M185.2,86s8.1,15.3,20.9,24.4c4.9,3.4,14.9,3.5,14.2-5.4-.5-5.3-3.8-4.8-4.8-4.4-3.9,1.5-2.4,4.7-.5,5.1.8,1.3-5.3,5.1-6.2-3.2-1.1.7-2.6,1.5-3.9.9-2.8-1.2-1.4-4-1-4.4-5.8,0-8.5-2.8-4.9-5.8.6-.5,1.9,0,2.2.7-.6.3-1.4,1-1,1.7,2.2,3.4,9.7-2.7,16.1.5,3.2,1.6,5.7,4.6,6.2,8.1,0,0,1.4,9-6,10.9-7,1.8-11.8-1.8-11.8-1.8,0,0,3.8,4.6,2.3,11.7-1.6,7.4-10.7,6.5-10.7,6.5-3.5-.3-6.7-2.8-8.4-5.8-3.5-6.3,2.2-14.1-1.2-16.1-.8-.4-1.3.4-1.7,1.1-.8-.3-1.3-1.5-.8-2.2,2.9-3.8,5.9-1.2,6.1,4.6.4-.4,3.1-1.9,4.5.8.6,1.2,0,2.8-.8,3.9,8.3.6,4.8,6.9,3.5,6.1-.5-1.9-3.8-3.2-5.1.7-.4,1-.7,4.4,4.6,4.6,8.9.4,8.4-9.7,4.8-14.4-9.6-12.4-25.3-19.8-25.3-19.8l8.5-8.9h0l.2-.1Z" style="fill:#474080;"/><path d="M213.5,119.2c0,1.4-1.1,2.6-2.6,2.6s-2.1-.7-2.4-1.7l-1.2-4.2s3.4.7,3.6.7c.7,0,1.3.3,1.8.7h0c.5.5.8,1.1.8,1.9h0Z" style="fill:#474080;"/><path d="M267,86s-8.1,15.3-20.9,24.4c-4.9,3.4-14.9,3.5-14.2-5.4.5-5.3,3.8-4.8,4.8-4.4,3.9,1.5,2.4,4.7.5,5.1-.8,1.3,5.3,5.1,6.2-3.2,1.1.7,2.6,1.5,3.9.9,2.8-1.2,1.4-4,1-4.4,5.8,0,8.5-2.8,4.9-5.8-.6-.5-1.9,0-2.2.7.6.3,1.4,1,1,1.7-2.2,3.4-9.7-2.7-16.1.5-3.2,1.6-5.7,4.6-6.2,8.1,0,0-1.4,9,6,10.9,7,1.8,11.8-1.8,11.8-1.8,0,0-3.8,4.6-2.3,11.7,1.6,7.4,10.7,6.5,10.7,6.5,3.5-.3,6.7-2.8,8.3-5.8,3.5-6.3-2.2-14.1,1.2-16.1.8-.4,1.3.4,1.7,1.1.8-.3,1.3-1.5.8-2.2-2.9-3.8-5.9-1.2-6.1,4.6-.4-.4-3.1-1.9-4.5.8-.6,1.2,0,2.8.8,3.9-8.3.6-4.8,6.9-3.5,6.1.5-1.9,3.8-3.2,5.1.7.4,1,.7,4.4-4.6,4.6-8.9.4-8.4-9.7-4.8-14.4,9.6-12.4,25.3-19.8,25.3-19.8l-8.5-8.9h0l-.1-.1Z" style="fill:#474080;"/><path d="M238.6,119.2c0,1.4,1.1,2.6,2.6,2.6s2.1-.7,2.4-1.7l1.2-4.2s-3.4.7-3.6.7c-.7,0-1.3.3-1.8.7h0c-.5.5-.8,1.1-.8,1.9h0Z" style="fill:#474080;"/><path d="M226.2,128.1c.9,0,1.7.2,2.5.5.7-1.7,1.2-3.5,1.2-5.4,0-3.6-1.4-6.8-3.6-9.2-2.2,2.4-3.6,5.6-3.6,9.2s.4,3.8,1.1,5.4c.8-.3,1.6-.4,2.4-.4v-.1Z" style="fill:#404580;"/><path d="M218.7,135.5c0-.8.2-1.5.4-2.3-1.7-.8-3.6-1.2-5.6-1.2-3.6,0-6.8,1.4-9.2,3.6,2.4,2.2,5.6,3.6,9.2,3.6s3.9-.5,5.6-1.2c-.3-.8-.5-1.6-.5-2.5h.1Z" style="fill:#404580;"/><path d="M238.8,132.2c-2,0-3.8.4-5.5,1.2.2.7.4,1.4.4,2.2s-.2,1.8-.5,2.6c1.7.8,3.6,1.2,5.6,1.2,3.6,0,6.8-1.4,9.2-3.6-2.4-2.2-5.6-3.6-9.2-3.6h0Z" style="fill:#404580;"/><path d="M226.2,143c-.8,0-1.6-.2-2.4-.4-.8,1.8-1.3,3.7-1.3,5.8,0,3.6,1.4,6.8,3.6,9.2,2.2-2.4,3.6-5.6,3.6-9.2s-.5-4-1.3-5.7c-.7.2-1.4.4-2.2.4h0v-.1Z" style="fill:#404580;"/><path d="M220.2,131.1c.4-.6.9-1.1,1.5-1.5-.3-1.5-1.7-3.7-2.4-4.4-1-1-2.5-1-3.5,0s-1,2.5,0,3.5c.7.7,2.9,2,4.4,2.4h0Z" style="fill:#6ebcdc;"/><path d="M231.8,140.3c-.4.5-.9.9-1.4,1.3.2,1.5,1.7,3.9,2.4,4.6,1,1,2.5,1,3.5,0s1-2.5,0-3.5-3-2.1-4.6-2.4h.1Z" style="fill:#6ebcdc;"/><path d="M232.3,131.3c1.5-.4,3.6-1.7,4.3-2.4s1-2.5,0-3.5-2.5-1-3.5,0c-.7.7-2,2.8-2.3,4.3.6.5,1.1,1,1.5,1.6h0Z" style="fill:#6ebcdc;"/><path d="M220.3,140.1c-1.5.2-3.9,1.7-4.7,2.4s-1,2.5,0,3.5,2.5,1,3.5,0,2.2-3.2,2.4-4.7c-.5-.4-.9-.8-1.2-1.2h0Z" style="fill:#6ebcdc;"/><path d="M223.5,90.4c-.6,1.6-1,3.2-1,5,0,3.6,1.4,6.8,3.6,9.2,2.2-2.4,3.6-5.6,3.6-9.2s-.3-3.5-1-5h-5.3.1Z" style="fill:#404580;"/><path d="M180.8,138.4c1.6.6,3.2,1,5,1,3.6,0,6.8-1.4,9.2-3.6-2.4-2.2-5.6-3.6-9.2-3.6s-3.5.3-5,1v5.3h0v-.1Z" style="fill:#404580;"/><path d="M228.7,181c.6-1.6,1-3.2,1-5,0-3.6-1.4-6.8-3.6-9.2-2.2,2.4-3.6,5.6-3.6,9.2s.3,3.5,1,5h5.3-.1Z" style="fill:#404580;"/><path d="M271.4,133.1c-1.5-.6-3.2-1-5-1-3.5,0-6.8,1.4-9.2,3.6,2.4,2.2,5.6,3.6,9.2,3.6s3.5-.3,5-1v-5.3h0v.1Z" style="fill:#404580;"/></g><path d="M361.8,180.9h-90.4v-90.4h90.4v90.4Z" style="fill:#474080;"/><path d="M333.2,178.6c1.9-1.9,1.9-9.5,0-11.4,1.9,1.9,9.5,1.9,11.4,0-1.9,1.9-1.9,9.5,0,11.4-1.9-1.9-9.5-1.9-11.4,0ZM314.8,178.6c-1.9-1.9-1.9-9.5,0-11.4-1.9,1.9-9.5,1.9-11.4,0,1.9,1.9,1.9,9.5,0,11.4,1.9-1.9,9.5-1.9,11.4,0ZM284.9,178.6c-1.9-1.9-1.9-9.5,0-11.4-1.9,1.9-9.5,1.9-11.4,0,1.9,1.9,1.9,9.5,0,11.4,1.9-1.9,9.5-1.9,11.4,0ZM359.5,163.7c-1.9-1.9-1.9-9.5,0-11.4-1.9,1.9-9.5,1.9-11.4,0,1.9,1.9,1.9,9.5,0,11.4,1.9-1.9,9.5-1.9,11.4,0ZM329.7,163.7c-1.9-1.9-1.9-9.5,0-11.4-1.9,1.9-9.5,1.9-11.4,0,1.9,1.9,1.9,9.5,0,11.4,1.9-1.9,9.5-1.9,11.4,0ZM299.8,163.7c-1.9-1.9-1.9-9.5,0-11.4-1.9,1.9-9.5,1.9-11.4,0,1.9,1.9,1.9,9.5,0,11.4,1.9-1.9,9.5-1.9,11.4,0ZM344.6,148.8c-1.9-1.9-1.9-9.5,0-11.4-1.9,1.9-9.5,1.9-11.4,0,1.9,1.9,1.9,9.5,0,11.4,1.9-1.9,9.5-1.9,11.4,0ZM314.8,148.8c-1.9-1.9-1.9-9.5,0-11.4-1.9,1.9-9.5,1.9-11.4,0,1.9,1.9,1.9,9.5,0,11.4,1.9-1.9,9.5-1.9,11.4,0ZM284.9,148.8c-1.9-1.9-1.9-9.5,0-11.4-1.9,1.9-9.5,1.9-11.4,0,1.9,1.9,1.9,9.5,0,11.4,1.9-1.9,9.5-1.9,11.4,0ZM359.5,133.9c-1.9-1.9-1.9-9.5,0-11.4-1.9,1.9-9.5,1.9-11.4,0,1.9,1.9,1.9,9.5,0,11.4,1.9-1.9,9.5-1.9,11.4,0ZM329.7,133.9c-1.9-1.9-1.9-9.5,0-11.4-1.9,1.9-9.5,1.9-11.4,0,1.9,1.9,1.9,9.5,0,11.4,1.9-1.9,9.5-1.9,11.4,0ZM299.8,133.9c-1.9-1.9-1.9-9.5,0-11.4-1.9,1.9-9.5,1.9-11.4,0,1.9,1.9,1.9,9.5,0,11.4,1.9-1.9,9.5-1.9,11.4,0ZM344.6,119c-1.9-1.9-1.9-9.5,0-11.4-1.9,1.9-9.5,1.9-11.4,0,1.9,1.9,1.9,9.5,0,11.4,1.9-1.9,9.5-1.9,11.4,0ZM314.8,119c-1.9-1.9-1.9-9.5,0-11.4-1.9,1.9-9.5,1.9-11.4,0,1.9,1.9,1.9,9.5,0,11.4,1.9-1.9,9.5-1.9,11.4,0ZM284.9,119c-1.9-1.9-1.9-9.5,0-11.4-1.9,1.9-9.5,1.9-11.4,0,1.9,1.9,1.9,9.5,0,11.4,1.9-1.9,9.5-1.9,11.4,0ZM359.5,104.1c-1.9-1.9-1.9-9.5,0-11.4-1.9,1.9-9.5,1.9-11.4,0,1.9,1.9,1.9,9.5,0,11.4,1.9-1.9,9.5-1.9,11.4,0ZM329.7,104.1c-1.9-1.9-1.9-9.5,0-11.4-1.9,1.9-9.5,1.9-11.4,0,1.9,1.9,1.9,9.5,0,11.4,1.9-1.9,9.5-1.9,11.4,0ZM299.8,104.1c-1.9-1.9-1.9-9.5,0-11.4-1.9,1.9-9.5,1.9-11.4,0,1.9,1.9,1.9,9.5,0,11.4,1.9-1.9,9.5-1.9,11.4,0Z" style="fill:#6ebcdc;"/><path d="M348.1,178.6c1.9-1.9,1.9-9.5,0-11.4,1.9,1.9,9.5,1.9,11.4,0-1.9,1.9-1.9,9.5,0,11.4-1.9-1.9-9.5-1.9-11.4,0ZM329.7,178.6c-1.9-1.9-1.9-9.5,0-11.4-1.9,1.9-9.5,1.9-11.4,0,1.9,1.9,1.9,9.5,0,11.4,1.9-1.9,9.5-1.9,11.4,0ZM299.8,178.6c-1.9-1.9-1.9-9.5,0-11.4-1.9,1.9-9.5,1.9-11.4,0,1.9,1.9,1.9,9.5,0,11.4,1.9-1.9,9.5-1.9,11.4,0ZM344.6,163.7c-1.9-1.9-1.9-9.5,0-11.4-1.9,1.9-9.5,1.9-11.4,0,1.9,1.9,1.9,9.5,0,11.4,1.9-1.9,9.5-1.9,11.4,0ZM314.8,163.7c-1.9-1.9-1.9-9.5,0-11.4-1.9,1.9-9.5,1.9-11.4,0,1.9,1.9,1.9,9.5,0,11.4,1.9-1.9,9.5-1.9,11.4,0ZM284.9,163.7c-1.9-1.9-1.9-9.5,0-11.4-1.9,1.9-9.5,1.9-11.4,0,1.9,1.9,1.9,9.5,0,11.4,1.9-1.9,9.5-1.9,11.4,0ZM359.5,148.8c-1.9-1.9-1.9-9.5,0-11.4-1.9,1.9-9.5,1.9-11.4,0,1.9,1.9,1.9,9.5,0,11.4,1.9-1.9,9.5-1.9,11.4,0ZM329.7,148.8c-1.9-1.9-1.9-9.5,0-11.4-1.9,1.9-9.5,1.9-11.4,0,1.9,1.9,1.9,9.5,0,11.4,1.9-1.9,9.5-1.9,11.4,0ZM299.8,148.8c-1.9-1.9-1.9-9.5,0-11.4-1.9,1.9-9.5,1.9-11.4,0,1.9,1.9,1.9,9.5,0,11.4,1.9-1.9,9.5-1.9,11.4,0ZM344.6,133.9c-1.9-1.9-1.9-9.5,0-11.4-1.9,1.9-9.5,1.9-11.4,0,1.9,1.9,1.9,9.5,0,11.4,1.9-1.9,9.5-1.9,11.4,0ZM314.8,133.9c-1.9-1.9-1.9-9.5,0-11.4-1.9,1.9-9.5,1.9-11.4,0,1.9,1.9,1.9,9.5,0,11.4,1.9-1.9,9.5-1.9,11.4,0ZM284.9,133.9c-1.9-1.9-1.9-9.5,0-11.4-1.9,1.9-9.5,1.9-11.4,0,1.9,1.9,1.9,9.5,0,11.4,1.9-1.9,9.5-1.9,11.4,0ZM359.5,119c-1.9-1.9-1.9-9.5,0-11.4-1.9,1.9-9.5,1.9-11.4,0,1.9,1.9,1.9,9.5,0,11.4,1.9-1.9,9.5-1.9,11.4,0ZM329.7,119c-1.9-1.9-1.9-9.5,0-11.4-1.9,1.9-9.5,1.9-11.4,0,1.9,1.9,1.9,9.5,0,11.4,1.9-1.9,9.5-1.9,11.4,0ZM299.8,119c-1.9-1.9-1.9-9.5,0-11.4-1.9,1.9-9.5,1.9-11.4,0,1.9,1.9,1.9,9.5,0,11.4,1.9-1.9,9.5-1.9,11.4,0ZM344.6,104.1c-1.9-1.9-1.9-9.5,0-11.4-1.9,1.9-9.5,1.9-11.4,0,1.9,1.9,1.9,9.5,0,11.4,1.9-1.9,9.5-1.9,11.4,0ZM314.8,104.1c-1.9-1.9-1.9-9.5,0-11.4-1.9,1.9-9.5,1.9-11.4,0,1.9,1.9,1.9,9.5,0,11.4,1.9-1.9,9.5-1.9,11.4,0ZM284.9,104.1c-1.9-1.9-1.9-9.5,0-11.4-1.9,1.9-9.5,1.9-11.4,0,1.9,1.9,1.9,9.5,0,11.4,1.9-1.9,9.5-1.9,11.4,0Z" style="fill:#e1e8f6;"/><path d="M45.2,56.5v11.3h-11.3s11.3-11.3,11.3-11.3ZM22.6,45.2v11.3l11.3-11.3h-11.3ZM22.6,56.6v11.3h11.3s-11.3-11.3-11.3-11.3ZM33.9,45.2l11.3,11.3v-11.3h-11.3ZM90.4,56.6v11.2h-11.2s11.2-11.2,11.2-11.2ZM79.2,45.2l11.3,11.3v-11.3h-11.3ZM67.8,45.2v11.3h0l11.3-11.3h-11.3ZM67.8,56.6v11.3h11.3l-11.3-11.3h0ZM11.2,90.4H0v-11.2l11.2,11.2ZM22.6,79.2l-11.3,11.3h11.3v-11.2h0v-.1ZM11.3,67.8h0l11.3,11.3h0v-11.3h-11.3ZM11.2,67.8H0v11.3l11.3-11.3h-.1ZM56.5,90.4h-11.3v-11.3l11.3,11.3ZM56.6,90.4h11.2v-11.2s-11.2,11.2-11.2,11.2ZM56.6,67.8h0l11.3,11.3v-11.3h-11.3ZM56.5,67.8h-11.3v11.3l11.3-11.3h0ZM56.5,22.6l-11.3,11.3v-11.3s11.3,0,11.3,0ZM45.2,33.9v11.3h11.3l-11.3-11.3ZM56.5,45.2h11.3v-11.3s-11.3,11.3-11.3,11.3ZM56.6,22.6l11.3,11.3v-11.2h-11.3v-.1ZM11.2,22.6L0,33.8v-11.2s11.2,0,11.2,0ZM0,34v11.3h11.3L0,34ZM11.3,22.6l11.3,11.3h0v-11.3s-11.3,0-11.3,0ZM22.6,33.9l-11.3,11.3h11.4v-11.3h-.1ZM90.4,0v11.2L79.2,0h11.2ZM79.2,22.6h11.2v-11.3l-11.3,11.3h.1ZM67.8,0v11.2h0L79.1,0h-11.3,0ZM67.8,11.3v11.3h11.3l-11.3-11.4h0v.1ZM33.9,22.6h0l11.3-11.4v11.4h-11.3ZM33.9,22.6l-11.3-11.3v11.3h11.3ZM34,0l11.3,11.3V0h-11.3ZM33.8,0h-11.2v11.2L33.8,0Z" style="fill:#6ebcdc;"/><path d="M45.2,56.5l-11.3,11.3h0l-11.3-11.3h0l11.3-11.4,11.3,11.3v.1ZM90.4,56.5h0c0,.1-11.2,11.4-11.2,11.4h0l-11.3-11.3,11.3-11.3,11.3,11.3-.1-.1ZM22.6,79.2l-11.3,11.3h-.1L0,79.2h0c0-.1,11.3-11.4,11.3-11.4l11.3,11.3v.1ZM67.8,79.2h0l-11.2,11.3h-.1l-11.3-11.3,11.3-11.3,11.3,11.3ZM67.8,33.9h0l-11.3,11.4-11.3-11.3,11.3-11.3h0s11.3,11.2,11.3,11.2ZM22.6,33.9l-11.3,11.3L0,34h0c0-.1,11.2-11.3,11.2-11.3h0l11.3,11.3.1-.1ZM90.4,11.2h0c0,.1-11.3,11.4-11.3,11.4l-11.3-11.3L79.1,0h.1l11.2,11.2h0ZM22.6,11.2L33.8,0h.1l11.3,11.3-11.3,11.3-11.3-11.3h0v-.1Z" style="fill:#404580;"/><path d="M22.6,56.5l-11.3,11.3h0L0,56.6h0c0-.1,11.3-11.4,11.3-11.4l11.3,11.3h0ZM67.8,56.5h0l-11.3,11.3h0l-11.3-11.3,11.3-11.3s11.3,11.3,11.3,11.3ZM90.4,79.1h0c0,.1-11.2,11.3-11.2,11.3h-.1l-11.2-11.3,11.3-11.3,11.3,11.3h-.1ZM45.2,79.2l-11.3,11.3h-.1l-11.2-11.2h0l11.3-11.3,11.3,11.3v-.1ZM45.2,33.9l-11.3,11.3-11.3-11.3h0l11.3-11.3h0l11.3,11.3ZM90.4,33.8h0c0,.1-11.3,11.4-11.3,11.4l-11.3-11.3,11.3-11.3h0l11.2,11.2h.1ZM0,11.3h0C0,11.2,11.2,0,11.2,0h.1l11.3,11.3-11.3,11.3L0,11.3ZM56.5,0h.1l11.2,11.2h0l-11.3,11.4-11.3-11.3L56.5,0Z" style="fill:#e1e8f6;"/><path d="M22.6,56.5h0l-11.3-11.3h11.4v11.3h-.1ZM22.6,56.5l-11.3,11.3h11.3v-11.3h0ZM0,45.2v11.3l11.3-11.3H0ZM11.2,67.8H0v-11.2l11.2,11.2ZM67.8,45.2v11.3l-11.3-11.3h11.3ZM45.2,56.5v11.3h11.3s-11.3-11.3-11.3-11.3ZM45.2,45.2v11.3l11.3-11.3h-11.3ZM56.6,67.8h11.3v-11.3s-11.3,11.3-11.3,11.3ZM90.4,79.2v11.2h-11.2l11.2-11.2ZM79.2,67.8h0l11.3,11.3v-11.3h-11.3ZM79.1,67.8h-11.3v11.3h0l11.3-11.3h0ZM67.8,79.2v11.2h11.3l-11.2-11.3h0l-.1.1ZM45.2,79.2v11.3h-11.3l11.3-11.3ZM22.6,79.2v11.2h11.2s-11.2-11.2-11.2-11.2ZM33.9,67.8h0l11.3,11.3v-11.3h-11.3ZM33.9,67.8h-11.3v11.3l11.3-11.3h0ZM33.9,22.6l-11.3,11.3v-11.2h11.3v-.1ZM22.6,33.9v11.3h11.3s-11.3-11.3-11.3-11.3ZM33.9,22.6l11.3,11.3v-11.3s-11.3,0-11.3,0ZM33.9,45.2h11.3v-11.3l-11.3,11.3ZM90.4,34v11.3h-11.3l11.3-11.3ZM79.2,22.6l11.2,11.2v-11.2s-11.2,0-11.2,0ZM67.8,33.9v11.3h11.3l-11.3-11.3h0ZM67.8,22.6v11.3h0l11.3-11.2h-11.3v-.1ZM11.2,0L0,11.2V0h11.2ZM22.6,0h-11.3l11.3,11.3h0V0ZM22.6,22.6v-11.3h0l-11.3,11.3h11.3ZM11.3,22.6L0,11.3v11.3h11.3ZM56.6,22.6h0l11.3-11.3v11.3h-11.3ZM56.5,22.6h0l-11.3-11.4v11.4h11.3ZM45.2,0v11.3L56.5,0h-11.3ZM67.8,0h-11.2l11.2,11.2V0Z" style="fill:#474080;"/><g style="clip-path:url(#i);"><rect x="90.2" y="-.2" width="91.2" height="91.2" style="fill:#e1e8f6;"/><path d="M128.8,90.5h-5.8c0-31.2,26.5-57.5,57.8-57.5v5.8c-27.7,0-52,24.1-52,51.6h0v.1Z" style="fill:#474080;"/><circle cx="180.5" cy="45" r="12.6" style="fill:#404580;"/><circle cx="180.5" cy="45" r="9" style="fill:#6ebcdc;"/><circle cx="135.6" cy="90.1" r="13.4" style="fill:#404580;"/><circle cx="135.6" cy="90.1" r="9.6" style="fill:#6ebcdc;"/><path d="M90.6,57.9v-5.8c28,0,52.5-24.3,52.5-52h5.8c0,30.8-27.3,57.8-58.3,57.8h0Z" style="fill:#474080;"/><circle cx="136" r="12.6" style="fill:#404580;"/><circle cx="136" r="9" style="fill:#6ebcdc;"/><path d="M180.8,57.4c-31.3,0-57.8-26.3-57.8-57.5h5.8c0,27.5,24.3,51.6,52,51.6v5.9Z" style="fill:#474080;"/><circle cx="91.3" cy="45.7" r="13.1" style="fill:#404580;"/><circle cx="91.3" cy="45.7" r="9.4" style="fill:#6ebcdc;"/><path d="M148.9,90.3h-5.8c0-27.7-24.5-52-52.5-52v-5.8c31.1,0,58.3,27,58.3,57.8h0Z" style="fill:#474080;"/><path d="M108.2,60.8c2-1.4,12.2-3.5,12.9-3.1,0,0-.5,11-3,13.6-1.9,2-2.4,1.2-13.6,6.4-1.5.7-3.6,1.8-5.4,3.6l-2.1-.2c1.1-.9,2.5-2.5,4.3-5.7,4.7-8.3,3.3-12.1,7-14.6h-.1Z" style="fill:#404580;"/><path d="M96.9,81.1l2.1.2c-.6.6-1.2,1.3-1.7,2.1-.6.9-1.3,2-1.6,3.5-.5,3.1.4,5.8.4,5.8l-7.9-.2v-10.2s3.9.6,7-.4c.3,0,.8-.3,1.7-1h0v.2Z" style="fill:#404580;"/><path d="M97.9,87.9c-.9,0-.2-5.1,5.6-7.8,8.3-3.8,10.4,0,11.1,1.4,2.6,5.8-7.5,13.1-11.9,10.1-1.9-1.3,6.3-3.3,6-6.5-.1-1.6-.8-2-1.7-2.1-5.5-.4-7.5,4.9-9,4.8h0l-.1.1Z" style="fill:#6ebcdc;"/><path d="M89.8,79.8c0,.9,5,1,8.5-4.3,5-7.6,1.7-10.3.3-11.2-5.3-3.5-14.1,5.4-11.8,10.2,1,2.1,4.2-5.7,7.3-4.9,1.6.4,1.8,1.2,1.8,2-.4,5.5-6,6.7-6.1,8.2Z" style="fill:#6ebcdc;"/><path d="M103.1,84.4s0,2.4-2.8,2.6c-1.7,0-9.5-8.5-8.5-10s1.6-2.2,2.7-1.7,8.2,7.2,8.6,9.1h0Z" style="fill:#6ebcdc;"/><path d="M108.2,29.7c2,1.4,12.2,3.5,12.9,3.1,0,0-.5-11-3-13.6-1.9-2-2.4-1.1-13.6-6.5-1.5-.7-3.6-1.7-5.4-3.5l-2.1.2c1.1.9,2.5,2.5,4.3,5.7,4.7,8.3,3.3,12.1,7,14.6h-.1Z" style="fill:#404580;"/><path d="M96.9,9.4l2.1-.2c-.6-.6-1.2-1.3-1.7-2.1-.6-.8-1.3-1.9-1.6-3.5-.5-3,.4-5.8.4-5.8l-7.9.2v10.2s3.9-.6,7,.4c.3,0,.8.3,1.7,1h0v-.2Z" style="fill:#404580;"/><path d="M97.9,2.6c-.9,0-.2,5.1,5.6,7.8,8.3,3.8,10.4,0,11.1-1.4,2.6-5.8-7.5-13.1-11.9-10.1-1.9,1.3,6.3,3.3,6,6.5-.1,1.6-.8,2-1.7,2-5.5.4-7.5-4.9-9-4.8h-.1Z" style="fill:#6ebcdc;"/><path d="M89.8,10.8c0-.9,5-1,8.5,4.3,5,7.6,1.7,10.3.3,11.2-5.3,3.5-14.1-5.4-11.8-10.2,1-2.1,4.2,5.7,7.3,4.9,1.6-.4,1.8-1.1,1.8-2-.4-5.5-6-6.7-6.1-8.2Z" style="fill:#6ebcdc;"/><path d="M103.1,6.1s0-2.4-2.8-2.5c-1.7,0-9.5,8.5-8.5,10s1.6,2.2,2.7,1.6,8.2-7.2,8.6-9.1h0Z" style="fill:#6ebcdc;"/><path d="M161.1,29.7c-2,1.4-12.2,3.5-12.9,3.1,0,0,.4-11,3-13.6,1.9-2,2.4-1.1,13.6-6.5,1.5-.7,3.6-1.7,5.4-3.5l2.1.2c-1.1.9-2.5,2.5-4.3,5.7-4.7,8.3-3.3,12.1-7,14.6h.1Z" style="fill:#404580;"/><path d="M172.4,9.4l-2.1-.2c.6-.6,1.2-1.3,1.7-2.1.6-.8,1.3-1.9,1.6-3.5.5-3-.4-5.8-.4-5.8l7.9.2v10.2s-3.9-.6-7,.4c-.3,0-.8.3-1.7,1h0v-.2Z" style="fill:#404580;"/><path d="M171.3,2.6c.9,0,.2,5.1-5.6,7.8-8.3,3.8-10.4,0-11.1-1.4-2.6-5.8,7.5-13.1,11.9-10.1,1.9,1.3-6.3,3.3-6,6.5.1,1.6.9,2,1.7,2,5.5.4,7.5-4.9,9-4.8h.1Z" style="fill:#6ebcdc;"/><path d="M179.5,10.8c0-.9-5-1-8.5,4.3-5,7.6-1.7,10.3-.4,11.2,5.3,3.5,14.1-5.4,11.8-10.2-1-2.1-4.2,5.7-7.3,4.9-1.6-.4-1.8-1.1-1.8-2,.4-5.5,6-6.7,6.1-8.2h.1Z" style="fill:#6ebcdc;"/><path d="M166.1,6.1s0-2.4,2.8-2.5c1.6,0,9.5,8.5,8.5,10s-1.6,2.2-2.7,1.6-8.1-7.2-8.6-9.1h0Z" style="fill:#6ebcdc;"/><path d="M161.1,60.8c-2-1.4-12.2-3.5-12.9-3.1,0,0,.4,11,3,13.6,1.9,2,2.4,1.2,13.6,6.4,1.5.7,3.6,1.8,5.4,3.6l2.1-.2c-1.1-.9-2.5-2.5-4.3-5.7-4.7-8.3-3.3-12.1-7-14.6h.1Z" style="fill:#404580;"/><path d="M172.4,81.1l-2.1.2c.6.6,1.2,1.3,1.7,2.1.6.9,1.3,2,1.6,3.5.5,3.1-.4,5.8-.4,5.8l7.9-.2v-10.2s-3.9.6-7-.4c-.3,0-.8-.3-1.7-1h0v.2Z" style="fill:#404580;"/><path d="M171.3,87.9c.9,0,.2-5.1-5.6-7.8-8.3-3.8-10.4,0-11.1,1.4-2.6,5.8,7.5,13.1,11.9,10.1,1.9-1.3-6.3-3.3-6-6.5.1-1.6.9-2,1.7-2.1,5.5-.4,7.5,4.9,9,4.8h0l.1.1Z" style="fill:#6ebcdc;"/><path d="M179.5,79.8c0,.9-5,1-8.5-4.3-5-7.6-1.7-10.3-.4-11.2,5.3-3.5,14.1,5.4,11.8,10.2-1,2.1-4.2-5.7-7.3-4.9-1.6.4-1.8,1.2-1.8,2,.4,5.5,6,6.7,6.1,8.2h.1Z" style="fill:#6ebcdc;"/><path d="M166.1,84.4s0,2.4,2.8,2.6c1.6,0,9.5-8.5,8.5-10s-1.6-2.2-2.7-1.7-8.1,7.2-8.6,9.1h0Z" style="fill:#6ebcdc;"/></g><rect x="180.9" width="90.4" height="90.4" style="fill:#e1e8f6;"/><g style="clip-path:url(#j);"><path d="M241.5,55.4v5.6h-5c-.3,5.4-4.7,9.6-10.1,9.6s-9.9-4.3-10.1-9.6h-4.8v-5.6h-.2c-5.6,0-10.2-4.6-10.2-10.2s4.6-10.2,10.2-10.2.2,0,.2,0v-5.7h4.8c.3-5.3,4.7-9.5,10.1-9.5s9.8,4.2,10.1,9.5h5v5.7c5.4.2,9.8,4.7,9.8,10.2s-4.4,10-9.8,10.2h0ZM168,9.2h.2v5.6h4.8c.3,5.4,4.7,9.6,10.1,9.6s9.9-4.3,10.1-9.6h5v-5.6c5.4-.2,9.8-4.7,9.8-10.2s-4.4-10-9.8-10.2v-5.7h-5c-.3-5.3-4.7-9.5-10.1-9.5s-9.8,4.2-10.1,9.5h-4.8v5.7h-.2c-5.6,0-10.2,4.6-10.2,10.2s4.6,10.2,10.2,10.2h0ZM253.9,9.2v5.6h5c.3,5.4,4.7,9.6,10.1,9.6s9.9-4.3,10.1-9.6h4.8v-5.6h.2c5.6,0,10.2-4.6,10.2-10.2s-4.6-10.2-10.2-10.2-.2,0-.2,0v-5.7h-4.8c-.3-5.3-4.7-9.6-10.1-9.6s-9.8,4.2-10.1,9.5h-5v5.7c-5.4.2-9.8,4.7-9.8,10.2s4.4,10,9.8,10.2h0v.1ZM198.3,81.2v-5.6h-5c-.3-5.4-4.7-9.6-10.1-9.6s-9.9,4.3-10.1,9.6h-4.8v5.6h-.2c-5.6,0-10.2,4.6-10.2,10.2s4.6,10.2,10.2,10.2.2,0,.2,0v5.7h4.8c.3,5.3,4.7,9.6,10.1,9.6s9.8-4.2,10.1-9.6h5v-5.7c5.4-.2,9.8-4.7,9.8-10.2s-4.4-10-9.8-10.2h0ZM284.2,81.2h-.2v-5.6h-4.8c-.3-5.4-4.7-9.6-10.1-9.6s-9.9,4.3-10.1,9.6h-5v5.6c-5.4.2-9.8,4.7-9.8,10.2s4.4,10,9.8,10.2v5.7h5c.3,5.3,4.7,9.6,10.1,9.6s9.8-4.2,10.1-9.6h4.8v-5.7h.2c5.6,0,10.2-4.6,10.2-10.2s-4.6-10.2-10.2-10.2h0Z" style="fill:#404580;"/><path d="M228.8.1c0,1.6-1.3,2.9-2.9,2.9s-2.9-1.3-2.9-2.9,1.3-2.9,2.9-2.9,2.9,1.3,2.9,2.9ZM180.9,42.5c-1.6,0-2.9,1.3-2.9,2.9s1.3,2.9,2.9,2.9,2.9-1.3,2.9-2.9-1.3-2.9-2.9-2.9ZM271.1,42.5c-1.6,0-2.9,1.3-2.9,2.9s1.3,2.9,2.9,2.9,2.9-1.3,2.9-2.9-1.3-2.9-2.9-2.9ZM225.9,87.4c-1.6,0-2.9,1.3-2.9,2.9s1.3,2.9,2.9,2.9,2.9-1.3,2.9-2.9-1.3-2.9-2.9-2.9Z" style="fill:#404580;"/><path d="M222.9,4.2c0,.7-.6,1.3-1.3,1.3s-1.3-.6-1.3-1.3.6-1.3,1.3-1.3,1.3.6,1.3,1.3ZM221.6-5.2c-.7,0-1.3.6-1.3,1.3s.6,1.3,1.3,1.3,1.3-.6,1.3-1.3-.6-1.3-1.3-1.3ZM238.8,10.6c.3-.1.6-.2.8-.4.9-.8.8-2.1.4-2.4-.4-.3-1.2,1.4-3.1,1.1-.6,0-1.3-.8-1.7-.3-.5.6.5,1.4.6,2.1.2,1.4-.9,2-.9,2.6,0,.3,1.5.7,2.1-.3,0-.1.2-.6.3-.7.6,1.3,2.8,1.6,3.1,1.4.2-.4,0-2.2-1.6-3.2h0v.1ZM237.3-12c0-.1-.2-.6-.3-.7-.6-1-2.1-.7-2.1-.3,0,.6,1,1.2.9,2.6-.1.8-1.1,1.6-.6,2.1.4.4,1.1-.2,1.7-.3,1.9-.3,2.7,1.4,3.1,1.1.4-.3.6-1.5-.4-2.4-.2-.2-.5-.3-.8-.4,1.6-.9,1.8-2.8,1.6-3.2-.4-.1-2.5.2-3.1,1.4h0v.1ZM230.6-8.7c-.7,1.4,1.8,2.7,3.1.6.6-.9.9-6.4-4.2-5.6,0,0,3,1.7,1.1,5h0ZM234.9-6.8c-2.3,1-1.3,3.7.1,3.2,3.6-1.4,4.8,1.8,4.8,1.8,1.4-5-4.1-5.4-5-5h.1ZM229.5,14c5.1.8,4.8-4.7,4.2-5.6-1.3-2.2-3.9-.8-3.1.6,1.8,3.4-1.1,5-1.1,5h0ZM239.9,2.1s-1.2,3.2-4.8,1.8c-1.4-.6-2.5,2.1-.1,3.2.9.4,6.4,0,5-5h-.1ZM230.5,5.5c.7,0,1.3-.6,1.3-1.3s-.6-1.3-1.3-1.3-1.3.6-1.3,1.3.6,1.3,1.3,1.3ZM221.5-8.7c-1.8-3.4,1.1-5,1.1-5-5.1-.8-4.8,4.7-4.2,5.6,1.3,2.2,3.9.8,3.1-.6h0ZM218.4,8.4c-.6.9-.9,6.4,4.2,5.6,0,0-3-1.7-1.1-5,.7-1.4-1.8-2.7-3.1-.6h0ZM214.9,12.3c0,.1.2.6.3.7.6,1,2.1.7,2.1.3,0-.6-1-1.2-.9-2.6.1-.8,1.1-1.6.6-2.1-.4-.4-1.1.2-1.7.3-1.9.3-2.7-1.4-3.1-1.1-.4.3-.6,1.5.4,2.4.2.2.5.3.8.4-1.6.9-1.8,2.8-1.6,3.2.4.1,2.5-.2,3.1-1.4h0v-.1ZM213.3-10.3c-.3.1-.6.2-.8.4-.9.8-.8,2.1-.4,2.4.4.3,1.2-1.4,3.1-1.1.6,0,1.3.8,1.7.3.5-.6-.5-1.4-.6-2.1-.2-1.4.9-2,.9-2.6,0-.3-1.5-.7-2.1.3,0,.1-.2.6-.3.7-.6-1.3-2.8-1.6-3.1-1.4-.2.4,0,2.2,1.6,3.2h0v-.1ZM212.2-1.8s1.2-3.2,4.8-1.8c1.4.6,2.5-2.1.1-3.2-.9-.4-6.4,0-5,5h.1ZM217,3.9c-3.6,1.4-4.8-1.8-4.8-1.8-1.4,5,4.1,5.4,5,5,2.3-1,1.3-3.7-.1-3.2h-.1ZM230.5-2.7c.7,0,1.3-.6,1.3-1.3s-.6-1.3-1.3-1.3-1.3.6-1.3,1.3.6,1.3,1.3,1.3ZM182.9,31.3s3.2,1.2,1.8,4.8c-.6,1.5,2.1,2.5,3.2.2.4-.9,0-6.4-5-5ZM168.8,34c-.1,0-.6.2-.7.3-1,.6-.7,2.1-.3,2.1.6,0,1.2-1,2.6-.9.8,0,1.6,1.1,2.1.6.4-.4-.2-1.1-.3-1.7-.3-1.9,1.4-2.7,1.1-3.1-.3-.4-1.5-.6-2.4.4-.2.2-.3.5-.4.8-.9-1.6-2.8-1.8-3.2-1.6-.1.4.2,2.5,1.4,3.1h.1ZM189.2,37.5c-2.2,1.3-.8,3.9.6,3.1,3.4-1.8,5,1.1,5,1.1.8-5.1-4.7-4.8-5.6-4.2ZM184.7,54.3c1.4,3.6-1.8,4.8-1.8,4.8,5,1.4,5.4-4,5-5-1-2.3-3.7-1.3-3.2.2ZM189.8,49.8c-1.4-.7-2.7,1.8-.6,3.1.9.5,6.4.9,5.6-4.2,0,0-1.7,3-5,1.1ZM185,50.9c.7,0,1.3-.6,1.3-1.3s-.6-1.3-1.3-1.3-1.3.6-1.3,1.3.6,1.3,1.3,1.3ZM193.1,56.4c.1,0,.6-.2.7-.3,1-.6.7-2.1.3-2.1-.6,0-1.2,1-2.6.9-.8,0-1.6-1.1-2.1-.6-.4.4.2,1.1.3,1.7.3,1.9-1.4,2.7-1.1,3.1.3.4,1.5.6,2.4-.4.2-.2.3-.5.4-.8.9,1.6,2.8,1.8,3.2,1.6.1-.4-.2-2.5-1.4-3.1h-.1ZM185,42c.7,0,1.3-.6,1.3-1.3s-.6-1.3-1.3-1.3-1.3.6-1.3,1.3.6,1.3,1.3,1.3ZM189.8,34.4c0,.6-.8,1.3-.3,1.7.6.5,1.4-.5,2.1-.6,1.4-.2,2,.9,2.6.9.3,0,.7-1.5-.3-2.1-.1,0-.6-.2-.7-.3,1.3-.6,1.6-2.8,1.4-3.1-.4-.2-2.2,0-3.2,1.6-.1-.3-.2-.6-.4-.8-.8-.9-2.1-.8-2.4-.4-.3.4,1.4,1.2,1.1,3.1h.1ZM174,36.3c1,2.3,3.7,1.3,3.2-.2-1.4-3.6,1.8-4.8,1.8-4.8-5-1.4-5.4,4-5,5ZM172.1,49.8c-3.4,1.8-5-1.1-5-1.1-.8,5.1,4.7,4.8,5.6,4.2,2.2-1.3.8-3.9-.6-3.1ZM172.1,56c0-.6.8-1.3.3-1.7-.6-.5-1.4.5-2.1.6-1.4.2-2-.9-2.6-.9-.3,0-.7,1.5.3,2.1.1,0,.6.2.7.3-1.3.6-1.6,2.8-1.4,3.1.4.2,2.2,0,3.2-1.6.1.3.2.6.4.8.8.9,2.1.8,2.4.4.3-.4-1.4-1.2-1.1-3.1h-.1ZM172.6,37.5c-.9-.5-6.4-.9-5.6,4.2,0,0,1.7-3,5-1.1,1.4.7,2.7-1.8.6-3.1ZM177.2,54.3c.6-1.5-2.1-2.5-3.2-.2-.4.9,0,6.4,5,5,0,0-3.2-1.2-1.8-4.8ZM176.8,42c.7,0,1.3-.6,1.3-1.3s-.6-1.3-1.3-1.3-1.3.6-1.3,1.3.6,1.3,1.3,1.3ZM176.8,50.9c.7,0,1.3-.6,1.3-1.3s-.6-1.3-1.3-1.3-1.3.6-1.3,1.3.6,1.3,1.3,1.3ZM283.3,56.4c.1,0,.6-.2.7-.3,1-.6.7-2.1.3-2.1-.5,0-1.2,1-2.6.9-.8,0-1.6-1.1-2.1-.6-.4.4.2,1.1.3,1.7.3,1.9-1.4,2.7-1.1,3.1.3.4,1.5.6,2.4-.4.2-.2.3-.5.4-.8,1,1.6,2.8,1.8,3.2,1.6.1-.4-.2-2.5-1.5-3.1h0ZM264.2,36.3c1,2.3,3.7,1.3,3.2-.2-1.4-3.6,1.8-4.8,1.8-4.8-5-1.4-5.4,4-5,5ZM274.9,54.3c1.4,3.6-1.8,4.8-1.8,4.8,5,1.4,5.4-4,5-5-1-2.3-3.7-1.3-3.2.2ZM267,50.9c.7,0,1.3-.6,1.3-1.3s-.6-1.3-1.3-1.3-1.3.6-1.3,1.3.6,1.3,1.3,1.3ZM275.2,50.9c.7,0,1.3-.6,1.3-1.3s-.6-1.3-1.3-1.3-1.3.6-1.3,1.3.6,1.3,1.3,1.3ZM267,42c.7,0,1.3-.6,1.3-1.3s-.6-1.3-1.3-1.3-1.3.6-1.3,1.3.6,1.3,1.3,1.3ZM275.2,42c.7,0,1.3-.6,1.3-1.3s-.6-1.3-1.3-1.3-1.3.6-1.3,1.3.6,1.3,1.3,1.3ZM280,49.8c-1.4-.7-2.7,1.8-.6,3.1.9.5,6.4.9,5.6-4.2,0,0-1.7,3-5,1.1ZM273.1,31.3s3.2,1.2,1.8,4.8c-.6,1.5,2.1,2.5,3.2.2.4-.9,0-6.4-5-5ZM262.3,56c0-.6.8-1.3.3-1.7-.5-.5-1.4.5-2.1.6-1.4.2-2-.9-2.6-.9-.3,0-.7,1.5.3,2.1.1,0,.6.2.7.3-1.3.6-1.6,2.8-1.5,3.1.4.2,2.2,0,3.2-1.6.1.3.2.6.4.8.8.9,2,.8,2.4.4.3-.4-1.5-1.2-1.1-3.1h0ZM267.4,54.3c.6-1.5-2.1-2.5-3.2-.2-.4.9,0,6.4,5,5,0,0-3.2-1.2-1.8-4.8ZM280,34.4c0,.6-.8,1.3-.3,1.7.5.5,1.4-.5,2.1-.6,1.4-.2,2,.9,2.6.9.3,0,.7-1.5-.3-2.1-.1,0-.6-.2-.7-.3,1.3-.6,1.6-2.8,1.5-3.1-.4-.2-2.2,0-3.2,1.6-.1-.3-.2-.6-.4-.8-.8-.9-2-.8-2.4-.4-.3.4,1.5,1.2,1.1,3.1h0ZM259,34c-.1,0-.6.2-.7.3-1,.6-.7,2.1-.3,2.1.5,0,1.2-1,2.6-.9.8,0,1.6,1.1,2.1.6.4-.4-.2-1.1-.3-1.7-.3-1.9,1.4-2.7,1.1-3.1s-1.5-.6-2.4.4c-.2.2-.3.5-.4.8-1-1.6-2.8-1.8-3.2-1.6-.1.4.2,2.5,1.5,3.1h0ZM280,40.7c3.4-1.8,5,1.1,5,1.1.8-5.1-4.7-4.8-5.6-4.2-2.2,1.3-.8,3.9.6,3.1ZM262.8,37.5c-.9-.5-6.4-.9-5.6,4.2,0,0,1.7-3,5-1.1,1.4.7,2.7-1.8.6-3.1ZM262.3,49.8c-3.4,1.8-5-1.1-5-1.1-.8,5.1,4.7,4.8,5.6,4.2,2.2-1.3.8-3.9-.6-3.1ZM235.1,86.6c3.6-1.4,4.8,1.8,4.8,1.8,1.4-5-4.1-5.4-5-5-2.3,1-1.3,3.7.1,3.2h.1ZM233.7,82.1c.6-.9.9-6.4-4.2-5.6,0,0,3,1.7,1.1,5-.7,1.4,1.8,2.7,3.1.6h0ZM230.5,87.6c.7,0,1.3-.6,1.3-1.3s-.6-1.3-1.3-1.3-1.3.6-1.3,1.3.6,1.3,1.3,1.3ZM238.8,100.8c.3,0,.6-.2.8-.4.9-.8.8-2.1.4-2.4-.4-.3-1.2,1.4-3.1,1.1-.6,0-1.3-.8-1.7-.3-.5.6.5,1.3.6,2.1.2,1.4-.9,2-.9,2.6,0,.3,1.5.7,2.1-.3,0-.1.2-.6.3-.7.6,1.3,2.8,1.6,3.1,1.4.2-.4,0-2.2-1.6-3.2h0v.1ZM221.6,93.1c-.7,0-1.3.6-1.3,1.3s.6,1.3,1.3,1.3,1.3-.6,1.3-1.3-.6-1.3-1.3-1.3ZM230.6,99.2c1.8,3.4-1.1,5-1.1,5,5.1.8,4.8-4.7,4.2-5.6-1.3-2.2-3.9-.8-3.1.6h0ZM221.6,85c-.7,0-1.3.6-1.3,1.3s.6,1.3,1.3,1.3,1.3-.6,1.3-1.3-.6-1.3-1.3-1.3ZM230.5,95.7c.7,0,1.3-.6,1.3-1.3s-.6-1.3-1.3-1.3-1.3.6-1.3,1.3.6,1.3,1.3,1.3ZM237.3,78.2c0-.1-.2-.6-.3-.7-.6-1-2.1-.7-2.1-.3,0,.6,1,1.2.9,2.6-.1.8-1.1,1.6-.6,2.1.4.4,1.1-.2,1.7-.3,1.9-.3,2.7,1.4,3.1,1.1.4-.3.6-1.5-.4-2.4-.2-.2-.5-.3-.8-.4,1.6-.9,1.8-2.8,1.6-3.2-.4-.1-2.5.2-3.1,1.4h0v.1ZM239.9,92.3s-1.2,3.2-4.8,1.8c-1.4-.6-2.5,2.1-.1,3.2.9.4,6.4,0,5-5h-.1ZM222.6,76.4c-5.1-.8-4.8,4.7-4.2,5.6,1.3,2.2,3.9.8,3.1-.6-1.8-3.4,1.1-5,1.1-5h0ZM221.5,99.2c.7-1.4-1.8-2.7-3.1-.6-.6.9-.9,6.4,4.2,5.6,0,0-3-1.7-1.1-5h0ZM212.2,88.4s1.2-3.2,4.8-1.8c1.4.6,2.5-2.1.1-3.2-.9-.4-6.4,0-5,5h.1ZM213.3,79.9c-.3,0-.6.2-.8.4-.9.8-.8,2.1-.4,2.4.4.3,1.2-1.4,3.1-1.1.6,0,1.3.8,1.7.3.5-.6-.5-1.3-.6-2.1-.2-1.4.9-2,.9-2.6,0-.3-1.5-.7-2.1.3,0,.1-.2.6-.3.7-.6-1.3-2.8-1.6-3.1-1.4-.2.4,0,2.2,1.6,3.2h0v-.1ZM216.4,101c.1-.8,1.1-1.6.6-2.1-.4-.4-1.1.2-1.7.3-1.9.3-2.7-1.4-3.1-1.1-.4.3-.6,1.5.4,2.4.2.2.5.3.8.4-1.6.9-1.8,2.8-1.6,3.2.4.1,2.5-.2,3.1-1.4,0,.1.2.6.3.7.6,1,2.1.7,2.1.3,0-.6-1-1.2-.9-2.6h0v-.1ZM217,94.1c-3.6,1.4-4.8-1.8-4.8-1.8-1.4,5,4.1,5.4,5,5,2.3-1,1.3-3.7-.1-3.2h-.1Z" style="fill:#474080;"/><path d="M297.4-17.5v-13h-13v10.9h-2.8c-1.6-5.5-6.6-9.5-12.5-9.5s-11,4-12.5,9.5h-2.3v-10.9h-13v13h9.9v4c-5.6,1.5-9.7,6.6-9.7,12.6s4.1,11.1,9.7,12.6v3.9h-9.9v11h-2.3c-1.6-5.5-6.6-9.5-12.5-9.5s-11,4-12.5,9.5h-2.7v-11h-9.9v-3.9c5.6-1.5,9.7-6.6,9.7-12.6s-4.1-11.1-9.7-12.6v-4h9.9v-13h-13v10.9h-2.3c-1.6-5.5-6.6-9.5-12.5-9.5s-11,4-12.5,9.5h-2.8v-10.9h-13v13h10.6v3.8c-5.9,1.3-10.3,6.5-10.3,12.8s4.4,11.5,10.3,12.8v3.8h-10.6v13h13v-11h2.8c1.6,5.5,6.6,9.5,12.6,9.5s11-4,12.6-9.5h2.2v11.1h10.6v3.8c-5.9,1.3-10.3,6.5-10.3,12.8s4.4,11.5,10.3,12.8v3.8h-10.6v11.1h-2.2c-1.6-5.5-6.6-9.5-12.6-9.5s-11,4-12.6,9.5h-2.8v-11h-13v13h10.6v3.8c-5.9,1.3-10.3,6.5-10.3,12.8s4.4,11.5,10.3,12.8v3.8h-10.6v13h13v-10.9h2.8c1.6,5.5,6.6,9.4,12.5,9.4s11-4,12.5-9.4h2.3v10.9h13v-13h-9.9v-4c5.6-1.5,9.7-6.6,9.7-12.6s-4.1-11.1-9.7-12.6v-3.9h9.9v-11h2.7c1.6,5.5,6.6,9.5,12.6,9.5s11-4,12.6-9.5h2.3v11h9.9v3.9c-5.6,1.5-9.7,6.6-9.7,12.6s4.1,11.1,9.7,12.6v4h-9.9v13h13v-10.9h2.3c1.6,5.5,6.6,9.4,12.5,9.4s11-4,12.5-9.4h2.8v10.9h13v-13h-10.6v-3.8c5.9-1.3,10.3-6.5,10.3-12.8s-4.4-11.5-10.3-12.8v-3.8h10.6v-13h-13v11h-2.8c-1.5-5.5-6.6-9.5-12.6-9.5s-11,4-12.6,9.5h-2.3v-11h-9.9v-3.9c5.6-1.5,9.7-6.6,9.7-12.6s-4.1-11.1-9.7-12.6v-4h9.9v-11.1h2.3c1.5,5.5,6.6,9.5,12.6,9.5s11-4,12.6-9.5h2.8v11h13v-13.1h-10.6v-3.8c5.9-1.3,10.3-6.5,10.3-12.8s-4.4-11.5-10.3-12.8v-3.8h10.6l-.2-.1ZM287.3-27.7h7.2v7.2h-7.2v-7.2ZM164.9-20.5h-7.2v-7.2h7.2v7.2ZM164.9,25.7h-7.2v-7.2h7.2v7.2ZM164.9,71.9h-7.2v-7.2h7.2v7.2ZM164.9,118.1h-7.2v-7.2h7.2v7.2ZM287.3,110.9h7.2v7.2h-7.2v-7.2ZM287.3,64.7h7.2v7.2h-7.2v-7.2ZM287.3,18.5h7.2v7.2h-7.2v-7.2ZM244.1-20.5v-7.2h7.2v7.2h-7.2ZM244.1,25.7v-7.2h7.2v7.2h-7.2ZM200.9,25.7v-7.2h7.1v7.2h-7.1ZM200.9-27.7h7.2v7.2h-7.2v-7.2ZM193.5,14.7l-.6,2.1c-1.2,4.3-5.2,7.4-9.7,7.4s-8.5-3-9.8-7.4l-.6-2.1h-4.5v-5.2l-2.3-.5c-4.6-1-8-5.2-8-9.9s3.4-8.9,8-9.9l2.3-.5v-5.4h4.5l.6-2.1c1.2-4.3,5.2-7.3,9.7-7.3s8.5,3,9.7,7.3l.6,2.1h4.8v5.4l2.2.6c4.4,1.2,7.5,5.2,7.5,9.8s-3.1,8.6-7.5,9.8l-2.2.6v5.3h-4.8l.1-.1ZM208.1,71.9h-7.1v-7.2h7.1v7.2ZM208.1,110.9v7.2h-7.2v-7.2h7.2ZM207.9,91.4c0,4.6-3.1,8.6-7.5,9.8l-2.2.6v5.4h-4.8l-.6,2.1c-1.2,4.3-5.2,7.3-9.7,7.3s-8.5-3-9.7-7.3l-.6-2.1h-4.5v-5.4l-2.3-.5c-4.6-1-8-5.2-8-9.9s3.4-8.9,8-9.9l2.3-.5v-5.2h4.5l.6-2.1c1.2-4.3,5.2-7.4,9.8-7.4s8.5,3,9.7,7.4l.6,2.1h4.8v5.3l2.2.6c4.4,1.2,7.5,5.2,7.5,9.8h0l-.1-.1ZM251.3,71.9h-7.2v-7.2h7.2v7.2ZM251.3,118.1h-7.2v-7.2h7.2v7.2ZM256.5,75.8h2.2l.6-2.1c1.2-4.3,5.2-7.4,9.7-7.4s8.5,3,9.8,7.4l.6,2.1h4.5v5.2l2.3.5c4.6,1,8,5.2,8,9.9s-3.4,8.9-8,9.9l-2.3.5v5.4h-4.5l-.6,2.1c-1.2,4.3-5.2,7.3-9.7,7.3s-8.5-3-9.7-7.3l-.6-2.1h-4.8v-5.4l-2.2-.6c-4.4-1.2-7.5-5.2-7.5-9.8s3.1-8.6,7.5-9.8l2.2-.6v-5.3h2.5v.1ZM251.1,45.3c0,4.6-3.1,8.6-7.5,9.8l-2.2.6v5.3h-4.8l-.6,2.1c-1.2,4.3-5.2,7.4-9.7,7.4s-8.5-3-9.8-7.4l-.6-2.1h-4.5v-5.2l-2.3-.5c-4.6-1-8-5.2-8-9.9s3.4-8.9,8-9.9l2.3-.5v-5.4h4.5l.6-2.1c1.2-4.3,5.2-7.3,9.7-7.3s8.5,3,9.7,7.3l.6,2.1h4.8v5.4l2.2.6c4.4,1.2,7.5,5.2,7.5,9.8h0l.1-.1ZM294.2-1c0,4.7-3.4,8.9-8,9.9l-2.3.5v5.2h-4.5l-.6,2.1c-1.2,4.4-5.2,7.4-9.8,7.4s-8.5-3-9.7-7.4l-.6-2.1h-4.8v-5.3l-2.2-.6c-4.4-1.2-7.5-5.2-7.5-9.8s3.1-8.6,7.5-9.8l2.2-.6v-5.4h4.8l.6-2.1c1.2-4.3,5.2-7.3,9.7-7.3s8.5,3,9.7,7.3l.6,2.1h4.5v5.4l2.3.5c4.6,1,8,5.2,8,9.9h0l.1.1Z" style="fill:#474080;"/><path d="M229.6,60.8c.2.2-.6,1.5-1.7,1.3-.1,0-.6-.2-.7-.3.5,1.3-.8,3.1-1.2,3.2-.4-.1-1.6-1.6-1.1-3.4-.3.1-.5.3-.8.3-1.2,0-2-.9-1.9-1.4,0-.5,1.9.2,3-1.4.4-.5.4-1.5.9-1.4.7,0,.6,1.3,1.1,1.9.8,1.1,2.1.8,2.4,1.2h0ZM229.6,54.7c-.4-1.5-3.2-.7-2.6,1.8.2,1,3.9,5.1,7,1,0,0-3.3.9-4.4-2.8ZM237.3,46.2c-2.5-.6-3.3,2.2-1.8,2.6,3.7,1.1,2.8,4.4,2.8,4.4,4.1-3.1,0-6.7-1-7h0ZM226.9,34.1c-.9,2.4,1.7,3.5,2.3,2.1,1.6-3.5,4.7-2.2,4.7-2.2-2.5-4.5-6.7-1-7,0v.1ZM225.1,56.5c.9-2.4-1.7-3.5-2.3-2.1-1.6,3.5-4.7,2.2-4.7,2.2,2.5,4.5,6.7,1,7,0v-.1ZM237.2,44.3c1-.4,4.5-4.5,0-7,0,0,1.4,3.1-2.1,4.7-1.4.6-.2,3.2,2.1,2.3h0ZM220.2,45.2c0,3.2,2.6,5.9,5.9,5.9s5.9-2.6,5.9-5.9-2.6-5.9-5.9-5.9-5.9,2.6-5.9,5.9ZM222.5,35.8c.4,1.5,3.2.7,2.6-1.8-.2-1-3.9-5.1-7-1,0,0,3.3-.9,4.4,2.8ZM224.8,30.9c.5.6.4,1.9,1.1,1.9.6,0,.6-.9.9-1.4,1.1-1.6,2.9-.9,3-1.4,0-.5-.7-1.5-1.9-1.4-.3,0-.6.2-.8.3.5-1.8-.8-3.2-1.1-3.4-.4.2-1.7,1.9-1.2,3.2-.1,0-.6-.2-.7-.3-1.1-.3-2,1-1.7,1.3.4.4,1.6.1,2.4,1.2h0ZM214.8,44.3c2.5.6,3.3-2.2,1.8-2.6-3.7-1.1-2.8-4.4-2.8-4.4-4.1,3.1,0,6.7,1,7h0ZM242.4,44.1c.1-.3.3-.5.3-.8,0-1.2-.9-2-1.4-1.9-.5,0,.2,1.9-1.4,3-.5.3-1.5.4-1.4,1,0,.7,1.3.6,1.9,1.1,1.1.8.8,2,1.2,2.4.2.2,1.6-.6,1.3-1.7,0-.1-.2-.6-.3-.7,1.3.5,3.1-.8,3.2-1.2-.1-.4-1.6-1.6-3.4-1.1h0v-.1ZM214.9,46.1c-1,.4-4.5,4.5,0,7,0,0-1.4-3.1,2.1-4.7,1.4-.6.2-3.2-2.1-2.3h0ZM213.6,45.2c0-.7-1.3-.6-1.9-1.1-1.1-.8-.8-2-1.2-2.4-.2-.2-1.6.6-1.3,1.7,0,.1.2.6.3.7-1.3-.5-3.1.8-3.2,1.2.1.4,1.6,1.6,3.4,1.1-.1.3-.3.5-.3.8,0,1.2.9,2,1.4,1.9.5,0-.2-1.9,1.4-3,.5-.3,1.5-.4,1.4-1h0v.1ZM181.7-15.3c.5.6.4,1.9,1.1,1.9.6,0,.6-.9.9-1.4,1.1-1.6,2.9-.9,3-1.4,0-.5-.7-1.5-1.9-1.4-.3,0-.6.2-.8.3.5-1.8-.8-3.2-1.1-3.4-.4.2-1.7,1.9-1.2,3.2-.1,0-.6-.2-.7-.3-1.1-.3-2,1-1.7,1.3.4.4,1.6.1,2.4,1.2h0ZM194.1-1.9c1-.4,4.5-4.5,0-7,0,0,1.4,3.1-2.1,4.7-1.4.6-.2,3.2,2.1,2.3h0ZM199.3-2.1c.1-.3.3-.5.3-.8,0-1.2-.9-2-1.4-1.9-.5,0,.2,1.9-1.4,3-.5.4-1.5.4-1.4.9,0,.7,1.3.6,1.9,1.1,1.1.8.8,2,1.2,2.4.2.2,1.6-.6,1.3-1.7,0-.1-.2-.6-.3-.7,1.3.5,3.1-.8,3.2-1.2-.1-.4-1.6-1.6-3.4-1.1h0ZM194.2,0c-2.5-.6-3.3,2.2-1.8,2.6,3.7,1.1,2.8,4.4,2.8,4.4,4.1-3.1,0-6.7-1-7h0ZM186.4,8.5c-.4-1.5-3.2-.7-2.6,1.8.2,1,3.9,5.1,7,1,0,0-3.3.9-4.4-2.8ZM186.5,14.6c-.4-.4-1.6-.1-2.4-1.2-.5-.6-.4-1.9-1.1-1.9-.6,0-.6.9-.9,1.4-1.1,1.6-2.9.9-3,1.4,0,.5.7,1.5,1.9,1.4.3,0,.6-.2.8-.3-.5,1.8.8,3.2,1.1,3.4.4-.2,1.7-1.9,1.2-3.2.1,0,.6.2.7.3,1.1.3,2-1,1.7-1.3h0ZM183.8-12.1c-.9,2.4,1.7,3.6,2.3,2.1,1.6-3.5,4.7-2.1,4.7-2.1-2.5-4.5-6.7-.9-7,0ZM166.6.2c-.1.3-.3.5-.3.8,0,1.2.9,2,1.4,1.9.5,0-.2-1.9,1.4-3,.5-.3,1.5-.4,1.4-1,0-.7-1.3-.6-1.9-1.1-1.1-.8-.8-2.1-1.2-2.4-.2-.2-1.6.6-1.3,1.7,0,.1.2.6.3.7-1.3-.5-3.1.8-3.2,1.2.1.4,1.6,1.6,3.4,1.1h0v.1ZM171.7,0c-1,.4-4.5,4.5,0,7,0,0-1.4-3.1,2.1-4.7C175.2,1.7,174-.9,171.7,0h0ZM171.6-1.9c2.5.6,3.3-2.2,1.8-2.6-3.7-1.1-2.8-4.4-2.8-4.4-4.1,3.1,0,6.7,1,7h0ZM182,10.2c.9-2.4-1.7-3.6-2.3-2.1-1.6,3.5-4.7,2.2-4.7,2.2,2.5,4.5,6.7.9,7,0v-.1ZM188.7-1c0-3.2-2.6-5.9-5.9-5.9s-5.9,2.6-5.9,5.9,2.6,5.9,5.9,5.9,5.9-2.6,5.9-5.9ZM179.3-10.4c.4,1.5,3.2.7,2.6-1.8-.2-1-3.9-5.1-7-1,0,0,3.3-.9,4.4,2.8ZM270.3-12.2c-.6,2.5,2.2,3.3,2.6,1.8,1.1-3.7,4.4-2.8,4.4-2.8-3.1-4.1-6.7,0-7,1h0ZM266.1-10c.6,1.4,3.2.2,2.3-2.1-.4-1-4.5-4.5-7,0,0,0,3.1-1.4,4.7,2.2v-.1ZM252.8.2c0,.1-.2.5-.3.7-.3,1.1,1,2,1.3,1.7.4-.4.1-1.6,1.2-2.4.6-.5,1.9-.4,1.9-1.1,0-.6-.9-.6-1.4-.9-1.6-1.1-.9-2.9-1.4-3-.5,0-1.5.7-1.4,1.9,0,.3.2.6.3.8-1.8-.5-3.2.8-3.4,1.1.2.4,1.9,1.7,3.2,1.2h0ZM270.2,12.9c-.4-.5-.4-1.5-1-1.4-.7,0-.6,1.3-1.1,1.9-.8,1.1-2,.8-2.4,1.2-.2.2.6,1.6,1.7,1.3.1,0,.6-.2.7-.3-.5,1.3.8,3.1,1.2,3.2.4-.1,1.6-1.6,1.1-3.4.3.1.5.3.8.3,1.2,0,2-.9,1.9-1.4,0-.5-1.9.2-3-1.4h.1ZM268.4,10.3c.6-2.5-2.2-3.3-2.6-1.8-1.1,3.7-4.4,2.8-4.4,2.8,3.1,4.2,6.7,0,7-1h0ZM275.2-1c0-3.2-2.6-5.9-5.9-5.9s-5.9,2.6-5.9,5.9,2.6,5.9,5.9,5.9,5.9-2.6,5.9-5.9ZM258,0c-1,.2-5.1,3.9-1,7,0,0-.9-3.3,2.8-4.4,1.5-.4.7-3.2-1.8-2.6h0ZM280.5-1.9c1-.2,5.1-3.9,1-7,0,0,.9,3.3-2.8,4.4-1.5.4-.7,3.2,1.8,2.6h0ZM272.5,8.1c-.6-1.4-3.2-.2-2.3,2.1.4,1,4.5,4.5,7,0,0,0-3.1,1.4-4.7-2.2v.1ZM278.3,2.3c3.5,1.6,2.1,4.7,2.1,4.7,4.5-2.5,1-6.7,0-7-2.4-.9-3.5,1.7-2.1,2.3ZM281.7-1.1c0,.6.9.6,1.4.9,1.6,1.1.9,3,1.4,3s1.5-.7,1.4-1.9c0-.3-.2-.6-.3-.8,1.8.5,3.2-.8,3.4-1.1-.2-.3-1.9-1.7-3.2-1.2,0-.1.2-.5.3-.7.3-1.1-1-2-1.3-1.7-.4.4-.1,1.6-1.2,2.4-.6.5-1.9.4-1.9,1.1h0ZM260.2-4.2c-3.5-1.6-2.1-4.7-2.1-4.7-4.5,2.5-1,6.7,0,7,2.4.9,3.5-1.7,2.1-2.3ZM268.5-14.8c.4.5.4,1.5,1,1.4.7,0,.6-1.3,1.1-1.9.8-1.1,2-.8,2.4-1.2.2-.2-.6-1.5-1.7-1.3-.1,0-.6.2-.7.3.5-1.3-.8-3.1-1.2-3.2-.4.1-1.6,1.6-1.1,3.4-.3-.1-.5-.3-.8-.3-1.2,0-2,.9-1.9,1.4,0,.5,1.9-.2,3,1.4h-.1ZM179.6,82.3c.6,1.4,3.2.2,2.3-2.1-.4-1-4.5-4.5-7,0,0,0,3.1-1.4,4.7,2.1ZM181.9,102.7c.6-2.5-2.2-3.3-2.6-1.8-1.1,3.7-4.4,2.8-4.4,2.8,3.1,4.2,6.7,0,7-1ZM183.7,105.3c-.4-.5-.4-1.5-.9-1.4-.7,0-.6,1.3-1.1,1.9-.8,1.1-2.1.8-2.4,1.2-.2.2.6,1.6,1.7,1.3.1,0,.6-.2.7-.3-.5,1.3.8,3.1,1.2,3.2.4-.1,1.6-1.6,1.1-3.4.3.1.5.3.8.3,1.2,0,2-.9,1.9-1.4,0-.5-1.9.2-3-1.4h0ZM170.5,91.5c0-.6-.9-.6-1.4-.9-1.6-1.1-.9-2.9-1.4-3-.5,0-1.5.7-1.4,1.9,0,.3.2.6.3.8-1.8-.5-3.2.8-3.4,1.1.2.3,1.9,1.7,3.2,1.2,0,.1-.2.6-.3.7-.3,1.2,1,2,1.3,1.7.4-.4.1-1.6,1.2-2.4.6-.5,1.9-.4,1.9-1.1h0ZM171.6,92.4c-1,.2-5.1,3.9-1,7,0,0-.9-3.3,2.8-4.4,1.5-.4.7-3.2-1.8-2.6h0ZM173.9,88.2c-3.5-1.6-2.1-4.7-2.1-4.7-4.5,2.5-.9,6.7,0,7,2.4.9,3.6-1.7,2.1-2.3h0ZM186.5,75.8c.2-.2-.6-1.6-1.7-1.3-.1,0-.6.2-.7.3.5-1.3-.8-3.1-1.2-3.2-.4.1-1.6,1.6-1.1,3.4-.3-.1-.5-.3-.8-.3-1.2,0-2,.9-1.9,1.4,0,.5,1.9-.2,3,1.4.4.5.4,1.5.9,1.4.7,0,.6-1.3,1.1-1.9.8-1.1,2.1-.8,2.4-1.2h0ZM177,91.4c0,3.2,2.6,5.9,5.9,5.9s5.9-2.6,5.9-5.9-2.6-5.9-5.9-5.9-5.9,2.6-5.9,5.9ZM186.1,100.4c-.6-1.4-3.2-.2-2.3,2.1.4,1,4.5,4.5,7,0,0,0-3.1,1.4-4.7-2.1ZM199.4,90.2c0-.1.2-.6.3-.7.3-1.2-1-2-1.3-1.7-.4.4-.1,1.6-1.2,2.4-.6.5-1.9.4-1.9,1.1,0,.6.9.6,1.4.9,1.6,1.1.9,2.9,1.4,3,.5,0,1.5-.7,1.4-1.9,0-.3-.2-.6-.3-.8,1.8.5,3.2-.8,3.4-1.1-.2-.3-1.9-1.7-3.2-1.2h0ZM194.1,92.3c-2.4-.9-3.6,1.7-2.1,2.3,3.5,1.6,2.1,4.7,2.1,4.7,4.5-2.5.9-6.7,0-7h0ZM183.8,80.1c-.6,2.5,2.2,3.3,2.6,1.8,1.1-3.7,4.4-2.8,4.4-2.8-3.1-4.2-6.7,0-7,1ZM192.4,87.8c-1.5.4-.7,3.2,1.8,2.6,1-.2,5.1-3.9,1-7,0,0,.9,3.3-2.8,4.4h0ZM263.5,91.4c0,3.2,2.6,5.9,5.9,5.9s5.9-2.6,5.9-5.9-2.6-5.9-5.9-5.9-5.9,2.6-5.9,5.9ZM273.2,76.1c0-.5-.7-1.5-1.9-1.4-.3,0-.6.2-.8.3.5-1.8-.8-3.2-1.1-3.4-.4.2-1.7,1.9-1.2,3.2-.1,0-.5-.2-.7-.3-1.1-.3-2,1-1.7,1.3.4.4,1.6.1,2.4,1.2.5.6.4,1.9,1.1,1.9.6,0,.6-.9,1-1.4,1.1-1.6,3-.9,3-1.4h-.1ZM268.4,102.6c.9-2.4-1.7-3.6-2.3-2.1-1.6,3.5-4.7,2.2-4.7,2.2,2.5,4.5,6.7.9,7,0v-.1ZM270.2,80.2c-.9,2.4,1.7,3.6,2.3,2.1,1.6-3.5,4.7-2.2,4.7-2.2-2.5-4.5-6.7-.9-7,0v.1ZM270.5,105.7c-.5-.6-.4-1.9-1.1-1.9-.6,0-.6.9-1,1.4-1.1,1.6-3,.9-3,1.4s.7,1.5,1.9,1.4c.3,0,.6-.2.8-.3-.5,1.8.8,3.2,1.1,3.4.4-.2,1.7-1.9,1.2-3.2.1,0,.5.2.7.3,1.1.3,2-1,1.7-1.3-.4-.4-1.6-.1-2.4-1.2h.1ZM265.8,81.9c.4,1.5,3.2.7,2.6-1.8-.2-1-3.9-5.1-7-1,0,0,3.3-.9,4.4,2.8h0ZM258.1,92.3c-1,.4-4.5,4.5,0,7,0,0-1.4-3.1,2.1-4.7,1.4-.6.2-3.2-2.1-2.3ZM256.8,91.3c0-.7-1.3-.6-1.9-1.1-1.1-.8-.8-2.1-1.2-2.4-.2-.2-1.6.6-1.3,1.7,0,.1.2.6.3.7-1.3-.5-3.1.8-3.2,1.2.1.4,1.6,1.6,3.4,1.1-.1.3-.3.5-.3.8,0,1.2.9,2,1.4,1.9.5,0-.2-1.9,1.4-3,.5-.3,1.5-.4,1.4-.9h0ZM272.9,100.9c-.4-1.5-3.2-.7-2.6,1.8.2,1,3.9,5.1,7,1,0,0-3.3.9-4.4-2.8h0ZM280.5,90.5c1-.4,4.5-4.5,0-7,0,0,1.4,3.1-2.1,4.7-1.4.6-.2,3.2,2.1,2.3ZM285.6,90.3c.1-.3.3-.5.3-.8,0-1.2-.9-2-1.4-1.9-.5,0,.2,1.9-1.4,3-.5.3-1.5.4-1.4.9,0,.7,1.3.6,1.9,1.1,1.1.8.8,2.1,1.2,2.4.2.2,1.5-.6,1.3-1.7,0-.1-.2-.6-.3-.7,1.3.5,3.1-.8,3.2-1.2-.1-.4-1.6-1.6-3.4-1.1h0ZM258,90.4c2.5.6,3.3-2.2,1.8-2.6-3.7-1.1-2.8-4.4-2.8-4.4-4.1,3.1,0,6.7,1,7h0ZM280.5,92.4c-2.5-.6-3.3,2.2-1.8,2.6,3.7,1.1,2.8,4.4,2.8,4.4,4.1-3.1,0-6.7-1-7h0Z" style="fill:#e1e8f6;"/><path d="M230.1,45.2c0,2.3-1.8,4.1-4.1,4.1s-4.1-1.8-4.1-4.1,1.8-4.1,4.1-4.1,4.1,1.8,4.1,4.1ZM182.9-5.1c-2.3,0-4.1,1.8-4.1,4.1s1.8,4.1,4.1,4.1,4.1-1.8,4.1-4.1-1.8-4.1-4.1-4.1ZM269.3,3.1c2.3,0,4.1-1.8,4.1-4.1s-1.8-4.1-4.1-4.1-4.1,1.8-4.1,4.1,1.8,4.1,4.1,4.1ZM182.9,87.3c-2.3,0-4.1,1.8-4.1,4.1s1.8,4.1,4.1,4.1,4.1-1.8,4.1-4.1-1.8-4.1-4.1-4.1ZM269.3,87.3c-2.3,0-4.1,1.8-4.1,4.1s1.8,4.1,4.1,4.1,4.1-1.8,4.1-4.1-1.8-4.1-4.1-4.1Z" style="fill:#474080;"/></g><rect x="354.2" y="37.7" width="7.5" height="7.5" style="fill:#6ebcdc;"/><rect x="354.2" y="45.2" width="7.5" height="7.5" style="fill:#474080;"/><rect x="309" y="82.9" width="7.5" height="7.5" style="fill:#404580;"/><rect x="316.6" y="82.9" width="7.5" height="7.5" style="fill:#474080;"/><rect x="309" width="7.5" height="7.5" style="fill:#e1e8f6;"/><rect x="316.5" width="7.5" height="7.5" style="fill:#6ebcdc;"/><rect x="271.3" y="37.6" width="7.5" height="7.5" style="fill:#e1e8f6;"/><rect x="271.3" y="45.2" width="7.5" height="7.5" style="fill:#404580;"/><rect x="354.2" y="52.8" width="7.5" height="30.1" style="fill:#404580;"/><rect x="324.1" y="82.9" width="30.1" height="7.5" style="fill:#404580;"/><rect x="316.5" y="52.8" width="7.5" height="30.1" style="fill:#404580;"/><rect x="271.3" y="52.8" width="7.5" height="30.1" style="fill:#474080;"/><rect x="278.9" y="82.9" width="30.1" height="7.5" style="fill:#474080;"/><rect x="316.5" y="7.6" width="7.5" height="30.1" style="fill:#474080;"/><rect x="354.2" y="7.6" width="7.5" height="30.1" style="fill:#474080;"/><rect x="324.1" width="30.1" height="7.5" style="fill:#474080;"/><rect x="278.9" width="30.1" height="7.5" style="fill:#404580;"/><rect x="309" y="7.6" width="7.5" height="30.1" style="fill:#404580;"/><rect x="271.3" y="7.6" width="7.5" height="30.1" style="fill:#404580;"/><rect x="278.9" y="7.6" width="30.1" height="30.1" style="fill:#6ebcdc;"/><rect x="324.1" y="7.6" width="30.1" height="30.1" style="fill:#e1e8f6;"/><rect x="324.1" y="37.7" width="30.1" height="7.5" style="fill:#474080;"/><rect x="324.1" y="52.8" width="30.1" height="30.1" style="fill:#6ebcdc;"/><rect x="324.1" y="45.2" width="30.1" height="7.5" style="fill:#404580;"/><rect x="309" y="52.8" width="7.5" height="30.1" style="fill:#474080;"/><rect x="278.9" y="52.8" width="30.1" height="30.1" style="fill:#e1e8f6;"/><rect x="278.9" y="37.7" width="30.1" height="7.5" style="fill:#404580;"/><rect x="278.9" y="45.2" width="30.1" height="7.5" style="fill:#474080;"/><polygon points="309 37.7 316.6 45.2 316.6 37.7 309 37.7" style="fill:#474080;"/><polygon points="309 37.7 309 45.2 316.6 45.2 309 37.7" style="fill:#e1e8f6;"/><polygon points="316.5 45.2 324 52.7 324 45.2 316.5 45.2" style="fill:#e1e8f6;"/><polygon points="316.5 45.2 316.5 52.7 324 52.7 316.5 45.2" style="fill:#474080;"/><polygon points="354.2 82.8 361.7 90.4 361.7 82.8 354.2 82.8" style="fill:#e1e8f6;"/><polygon points="354.2 82.8 354.2 90.4 361.7 90.4 354.2 82.8" style="fill:#474080;"/><polygon points="316.5 45.3 324 37.7 316.5 37.7 316.5 45.3" style="fill:#e1e8f6;"/><polygon points="316.5 45.3 324 45.3 324 37.7 316.5 45.3" style="fill:#404580;"/><polygon points="354.2 7.6 361.8 0 354.2 0 354.2 7.6" style="fill:#e1e8f6;"/><polygon points="354.2 7.6 361.8 7.6 361.8 0 354.2 7.6" style="fill:#404580;"/><polygon points="308.9 52.7 316.4 45.2 308.9 45.2 308.9 52.7" style="fill:#404580;"/><polygon points="308.9 52.7 316.4 52.7 316.4 45.2 308.9 52.7" style="fill:#e1e8f6;"/><polygon points="271.3 90.4 278.9 82.9 271.3 82.9 271.3 90.4" style="fill:#404580;"/><polygon points="271.3 90.4 278.9 90.4 278.9 82.9 271.3 90.4" style="fill:#e1e8f6;"/><polygon points="271.3 0 278.9 7.6 278.9 0 271.3 0" style="fill:#474080;"/><polygon points="271.3 0 271.3 7.6 278.9 7.6 271.3 0" style="fill:#e1e8f6;"/></g></svg>