<svg id="a" xmlns="http://www.w3.org/2000/svg" xmlns:xlink="http://www.w3.org/1999/xlink" viewBox="0 0 375 280"><defs><clipPath id="b"><rect width="375" height="280" style="fill:none;"/></clipPath><clipPath id="c"><rect y="186.67" width="93.75" height="93.33" style="fill:none;"/></clipPath><clipPath id="d"><rect x="187.51" y="186.67" width="93.75" height="93.33" style="fill:none;"/></clipPath><clipPath id="e"><rect x="93.75" y="186.67" width="93.75" height="93.33" style="fill:none;"/></clipPath><clipPath id="f"><rect y="93.33" width="93.75" height="93.33" style="fill:none;"/></clipPath><clipPath id="h"><rect x="187.51" y="93.33" width="93.75" height="93.33" style="fill:none;"/></clipPath><clipPath id="i"><rect x="93.75" width="93.75" height="93.33" style="fill:none;"/></clipPath><clipPath id="j"><rect x="187.51" width="93.75" height="93.33" style="fill:none;"/></clipPath></defs><g style="clip-path:url(#b);"><g style="clip-path:url(#c);"><polygon points="10.27 237.05 -8.77 225.5 -8.77 239.04 10.27 250.59 10.27 237.05" style="fill:#6f4b52;"/><polygon points="10.27 196.43 -8.77 184.88 -8.77 198.42 10.27 209.97 10.27 196.43" style="fill:#f5f0e0;"/><polygon points="10.27 182.82 -8.77 171.27 -8.77 184.81 10.27 196.37 10.27 182.82" style="fill:#6f4b52;"/><polygon points="10.27 223.51 -8.77 211.96 -8.77 225.5 10.27 237.05 10.27 223.51" style="fill:#f5f0e0;"/><polygon points="10.27 209.97 -8.77 198.42 -8.77 211.96 10.27 223.51 10.27 209.97" style="fill:#6f4b52;"/><polygon points="10.27 250.59 -8.77 239.04 -8.77 252.58 10.27 264.13 10.27 250.59" style="fill:#f5f0e0;"/><polygon points="10.27 264.13 -8.77 252.58 -8.77 266.12 10.27 277.67 10.27 264.13" style="fill:#6f4b52;"/><polygon points="-8.77 266.12 -8.77 279.66 10.27 291.21 10.27 277.67 -8.77 266.12" style="fill:#f5f0e0;"/><polygon points="10.27 237.05 29.32 225.5 29.32 239.04 10.27 250.59 10.27 237.05" style="fill:#f5f0e0;"/><polygon points="10.27 196.43 29.32 184.88 29.32 198.42 10.27 209.97 10.27 196.43" style="fill:#6f4b52;"/><polygon points="10.27 182.82 29.32 171.27 29.32 184.81 10.27 196.37 10.27 182.82" style="fill:#f5f0e0;"/><polygon points="10.27 223.51 29.32 211.96 29.32 225.5 10.27 237.05 10.27 223.51" style="fill:#6f4b52;"/><polygon points="10.27 209.97 29.32 198.42 29.32 211.96 10.27 223.51 10.27 209.97" style="fill:#f5f0e0;"/><polygon points="10.27 250.59 29.32 239.04 29.32 252.58 10.27 264.13 10.27 250.59" style="fill:#6f4b52;"/><polygon points="10.27 264.13 29.32 252.58 29.32 266.12 10.27 277.67 10.27 264.13" style="fill:#f5f0e0;"/><polygon points="29.32 266.12 29.32 279.66 10.27 291.21 10.27 277.67 29.32 266.12" style="fill:#6f4b52;"/><polygon points="48.36 237.05 29.32 225.5 29.32 239.04 48.36 250.59 48.36 237.05" style="fill:#6f4b52;"/><polygon points="48.36 196.43 29.32 184.88 29.32 198.42 48.36 209.97 48.36 196.43" style="fill:#f5f0e0;"/><polygon points="48.36 182.82 29.32 171.27 29.32 184.81 48.36 196.37 48.36 182.82" style="fill:#6f4b52;"/><polygon points="48.36 223.51 29.32 211.96 29.32 225.5 48.36 237.05 48.36 223.51" style="fill:#f5f0e0;"/><polygon points="48.36 209.97 29.32 198.42 29.32 211.96 48.36 223.51 48.36 209.97" style="fill:#6f4b52;"/><polygon points="48.36 250.59 29.32 239.04 29.32 252.58 48.36 264.13 48.36 250.59" style="fill:#f5f0e0;"/><polygon points="48.36 264.13 29.32 252.58 29.32 266.12 48.36 277.67 48.36 264.13" style="fill:#6f4b52;"/><polygon points="29.32 266.12 29.32 279.66 48.36 291.21 48.36 277.67 29.32 266.12" style="fill:#f5f0e0;"/><polygon points="48.36 237.05 67.4 225.5 67.4 239.04 48.36 250.59 48.36 237.05" style="fill:#f5f0e0;"/><polygon points="48.36 196.43 67.4 184.88 67.4 198.42 48.36 209.97 48.36 196.43" style="fill:#6f4b52;"/><polygon points="48.36 182.82 67.4 171.27 67.4 184.81 48.36 196.37 48.36 182.82" style="fill:#f5f0e0;"/><polygon points="48.36 223.51 67.4 211.96 67.4 225.5 48.36 237.05 48.36 223.51" style="fill:#6f4b52;"/><polygon points="48.36 209.97 67.4 198.42 67.4 211.96 48.36 223.51 48.36 209.97" style="fill:#f5f0e0;"/><polygon points="48.36 250.59 67.4 239.04 67.4 252.58 48.36 264.13 48.36 250.59" style="fill:#6f4b52;"/><polygon points="48.36 264.13 67.4 252.58 67.4 266.12 48.36 277.67 48.36 264.13" style="fill:#f5f0e0;"/><polygon points="67.4 266.12 67.4 279.66 48.36 291.21 48.36 277.67 67.4 266.12" style="fill:#6f4b52;"/><polygon points="86.44 237.05 67.4 225.5 67.4 239.04 86.44 250.59 86.44 237.05" style="fill:#6f4b52;"/><polygon points="86.44 196.43 67.4 184.88 67.4 198.42 86.44 209.97 86.44 196.43" style="fill:#f5f0e0;"/><polygon points="86.44 182.82 67.4 171.27 67.4 184.81 86.44 196.37 86.44 182.82" style="fill:#6f4b52;"/><polygon points="86.44 223.51 67.4 211.96 67.4 225.5 86.44 237.05 86.44 223.51" style="fill:#f5f0e0;"/><polygon points="86.44 209.97 67.4 198.42 67.4 211.96 86.44 223.51 86.44 209.97" style="fill:#6f4b52;"/><polygon points="86.44 250.59 67.4 239.04 67.4 252.58 86.44 264.13 86.44 250.59" style="fill:#f5f0e0;"/><polygon points="86.44 264.13 67.4 252.58 67.4 266.12 86.44 277.67 86.44 264.13" style="fill:#6f4b52;"/><polygon points="67.4 266.12 67.4 279.66 86.44 291.21 86.44 277.67 67.4 266.12" style="fill:#f5f0e0;"/><polygon points="86.44 237.05 105.49 225.5 105.49 239.04 86.44 250.59 86.44 237.05" style="fill:#f5f0e0;"/><polygon points="86.44 196.43 105.49 184.88 105.49 198.42 86.44 209.97 86.44 196.43" style="fill:#6f4b52;"/><polygon points="86.44 182.82 105.49 171.27 105.49 184.81 86.44 196.37 86.44 182.82" style="fill:#f5f0e0;"/><polygon points="86.44 223.51 105.49 211.96 105.49 225.5 86.44 237.05 86.44 223.51" style="fill:#6f4b52;"/><polygon points="86.44 209.97 105.49 198.42 105.49 211.96 86.44 223.51 86.44 209.97" style="fill:#f5f0e0;"/><polygon points="86.44 250.59 105.49 239.04 105.49 252.58 86.44 264.13 86.44 250.59" style="fill:#6f4b52;"/><polygon points="86.44 264.13 105.49 252.58 105.49 266.12 86.44 277.67 86.44 264.13" style="fill:#f5f0e0;"/><polygon points="105.49 266.12 105.49 279.66 86.44 291.21 86.44 277.67 105.49 266.12" style="fill:#6f4b52;"/></g><rect x="281.26" y="186.67" width="93.75" height="93.33" style="fill:#f5f0e0;"/><path d="M327.5,214.85s.16-4.07-1.75-4.88-2.53.46-3.9.04c-3.01-.93-2.96-3.92-.93-4.74,1.39-.56,1.88.35,2.19-.2.36-.63-2.92-2.71-1.33-4.7,1.59-1.96,3.43.27,4.05-.35s.23-3.42,2.15-3.45c2.51-.04,1.52,2.83,2.15,3.45.62.62,2.47-1.61,4.05.35s-1.69,4.07-1.33,4.7c.31.55.79-.36,2.19.2,2.03.82,2.06,3.8-.93,4.74-1.37.42-1.99-.86-3.9-.04-1.91.82-1.75,4.88-1.75,4.88h-.95ZM309.57,233.02s-4.08.15-4.9-1.74.47-2.52.04-3.88c-.93-2.99-3.94-2.95-4.76-.93-.56,1.38.35,1.87-.2,2.18-.63.36-2.73-2.91-4.72-1.32s.27,3.42-.35,4.04-3.5-.36-3.46,2.14c.03,1.91,2.84,1.52,3.46,2.14s-1.62,2.46.35,4.04,4.08-1.68,4.72-1.32c.55.31-.36.78.2,2.18.82,2.02,3.81,2.05,4.76-.93.43-1.36-.86-1.98-.04-3.88.82-1.9,4.9-1.74,4.9-1.74v-.95ZM327.82,251.82s.16,4.07-1.75,4.88-2.53-.46-3.9-.04c-3.01.93-2.96,3.92-.93,4.74,1.39.56,1.88-.35,2.19.2.36.63-2.92,2.71-1.33,4.7s3.43-.27,4.05.35-.36,3.49,2.15,3.45c1.92-.03,1.52-2.83,2.15-3.45s2.47,1.61,4.05-.35c1.6-1.98-1.69-4.07-1.33-4.7.31-.55.79.36,2.19-.2,2.03-.82,2.06-3.8-.93-4.74-1.37-.42-1.99.86-3.9.04s-1.75-4.88-1.75-4.88h-.95ZM346.7,233.63s4.08-.15,4.9,1.74-.47,2.52-.04,3.88c.93,2.99,3.94,2.95,4.76.93.56-1.38-.35-1.87.2-2.18.63-.36,2.73,2.91,4.72,1.32s-.27-3.42.35-4.04,3.5.36,3.46-2.14c-.03-1.91-2.84-1.52-3.46-2.14s1.62-2.46-.35-4.04-4.08,1.68-4.72,1.32c-.55-.31.36-.78-.2-2.18-.82-2.02-3.81-2.05-4.76.93-.43,1.36.86,1.98.04,3.88s-4.9,1.74-4.9,1.74v.95Z" style="fill:#567483;"/><path d="M349.91,208.85c2.59-5.29,1.01-10.95,5.17-16.25,1.48-1.89,4.73-3.34,7.58-3,4.2.5,6.76-.17,6.76-.17,0,0,.92-.14.65.55s-.89,1.07-.89,1.07c0,0,.95.79-.27,1.29-1.22.5-5.4-1.26-5.4-1.26,0,0,3.55,2.47,2.49,3.56-1.06,1.08-4.4-.91-4.4-.91,0,0,3.41,4.07.55,5.23-2.42.98-1.32-3.3-2.75-3.28s-2.63,1.31-3.08,4.38c-.67,4.7-3.4,8.93-3.4,8.93,0,0,4.31-2.3,9.22-2.69,1.62-.13,4.45-1.97,4.34-3.4-.11-1.42-3.97.36-3.08-2.3.82-2.46,4.61-.27,4.61-.27,0,0-1.76-3.33-.77-4.48s3.3,1.64,3.3,1.64c0,0-.27-3.23.11-4.48s1.26-.38,1.26-.38c0,0,.33-.66.98-.98s.6.6.6.6c0,0-1.26,2.46-.93,5.96.31,3.3.13,6.63-1.7,8.18-6.1,5.16-11.48,2.52-16.81,5.06-2.85,1.35-7.96,3.28-7.96,3.28,0,0,1.18-.54,3.77-5.83l.03-.05ZM310.12,214.69s-5.12-1.93-7.96-3.28c-5.34-2.54-10.71.11-16.81-5.06-1.83-1.56-2.01-4.88-1.7-8.18.33-3.5-.93-5.96-.93-5.96,0,0-.05-.93.6-.6s.98.98.98.98c0,0,.88-.88,1.26.38s.11,4.48.11,4.48c0,0,2.31-2.79,3.3-1.64s-.77,4.48-.77,4.48c0,0,3.79-2.19,4.61.27.89,2.66-2.96.88-3.08,2.3s2.72,3.26,4.34,3.4c4.9.39,9.22,2.69,9.22,2.69,0,0-2.72-4.22-3.4-8.93-.44-3.07-1.65-4.36-3.08-4.38s-.33,4.26-2.75,3.28c-2.86-1.17.55-5.23.55-5.23,0,0-3.34,1.99-4.4.91s2.49-3.56,2.49-3.56c0,0-4.18,1.75-5.4,1.26s-.27-1.29-.27-1.29c0,0-.62-.39-.89-1.07s.65-.55.65-.55c0,0,2.57.67,6.76.17,2.86-.34,6.1,1.11,7.58,3,4.18,5.3,2.58,10.97,5.17,16.25,2.59,5.29,3.77,5.83,3.77,5.83l.03.05ZM346.14,251.98s5.12,1.93,7.96,3.28c5.34,2.54,10.71-.11,16.81,5.06,1.83,1.56,2.01,4.88,1.7,8.18-.33,3.5.93,5.96.93,5.96,0,0,.05.93-.6.6s-.98-.98-.98-.98c0,0-.88.88-1.26-.38s-.11-4.48-.11-4.48c0,0-2.31,2.79-3.3,1.64s.77-4.48.77-4.48c0,0-3.79,2.19-4.61-.27-.89-2.66,2.96-.88,3.08-2.3.11-1.42-2.72-3.26-4.34-3.4-4.9-.39-9.22-2.69-9.22-2.69,0,0,2.72,4.22,3.4,8.93.44,3.07,1.65,4.36,3.08,4.38s.33-4.26,2.75-3.28c2.86,1.17-.55,5.23-.55,5.23,0,0,3.34-1.99,4.4-.91s-2.49,3.56-2.49,3.56c0,0,4.18-1.75,5.4-1.26s.27,1.29.27,1.29c0,0,.62.39.89,1.07s-.65.55-.65.55c0,0-2.57-.67-6.76-.17-2.86.34-6.1-1.11-7.58-3-4.18-5.3-2.58-10.97-5.17-16.25-2.59-5.28-3.77-5.83-3.77-5.83l-.03-.05ZM306.34,257.81c-2.59,5.29-1.01,10.95-5.17,16.25-1.48,1.89-4.73,3.34-7.58,3-4.2-.5-6.76.17-6.76.17,0,0-.92.14-.65-.55s.89-1.07.89-1.07c0,0-.95-.79.27-1.29,1.22-.5,5.4,1.26,5.4,1.26,0,0-3.55-2.47-2.49-3.56,1.06-1.08,4.4.91,4.4.91,0,0-3.41-4.07-.55-5.23,2.42-.98,1.32,3.3,2.75,3.28s2.63-1.31,3.08-4.38c.67-4.7,3.4-8.93,3.4-8.93,0,0-4.31,2.3-9.22,2.69-1.62.13-4.45,1.97-4.34,3.4.1,1.42,3.97-.36,3.08,2.3-.82,2.46-4.61.27-4.61.27,0,0,1.76,3.33.77,4.48s-3.3-1.64-3.3-1.64c0,0,.27,3.23-.11,4.48s-1.26.38-1.26.38c0,0-.33.66-.98.98s-.6-.6-.6-.6c0,0,1.26-2.46.93-5.96-.31-3.3-.13-6.63,1.7-8.18,6.1-5.16,11.48-2.52,16.81-5.06,2.85-1.35,7.96-3.28,7.96-3.28,0,0-1.18.54-3.77,5.83l-.03.05ZM341.3,223.17c0-6.72,6.57-12.71,15.26-11.52,14.77,2.03,17.43,19.44,15.55,19.87-3.17-.37-2.31-4.5-3.61-4.87-.6-.18-1.99,1.34-2.91.5-1.18-1.09-.92-3.75-1.66-4.02-1.02-.38-2.32,1.74-2.8.8-.37-.75.45-.89.17-2.89-.2-1.42-1.38-2.46-1.72-2.57-.64-.22-1.03,5.62-4.89,2.84-1.23-.89-1.57-3.48-.05-4.01,1.12-.4,2.58.1,2.36-.96s-8.94-5.37-11.94,2.94c-2.83,7.81,3.26,13.91,3.26,13.91,0,0-6.08,6.1-3.26,13.91,3.02,8.32,11.72,4.01,11.94,2.94s-1.24-.57-2.36-.96c-1.5-.54-1.18-3.13.05-4.01,3.88-2.79,4.25,3.05,4.89,2.84.34-.11,1.52-1.15,1.72-2.57.28-2-.54-2.15-.17-2.89.48-.95,1.78,1.19,2.8.8.75-.28.48-2.93,1.66-4.02.92-.85,2.31.67,2.91.5,1.3-.37.44-4.5,3.61-4.87,1.89.43-.78,17.83-15.55,19.87-8.69,1.2-15.26-4.8-15.26-11.52,0-3.33,1.25-7.46,3.67-10-2.42-2.54-3.67-6.67-3.67-10v-.02ZM338.33,246.44c6.75,0,12.77,6.54,11.57,15.19-2.04,14.71-19.53,17.35-19.96,15.48.37-3.16,4.52-2.3,4.89-3.59.18-.6-1.35-1.98-.5-2.9,1.1-1.18,3.76-.92,4.04-1.65.38-1.01-1.75-2.31-.81-2.79.76-.37.89.44,2.9.17,1.43-.2,2.47-1.37,2.58-1.71.22-.64-5.65-1.02-2.85-4.87.89-1.23,3.49-1.56,4.03-.05.4,1.11-.1,2.57.96,2.35s5.39-8.9-2.95-11.89c-7.85-2.82-13.97,3.24-13.97,3.24,0,0-6.13-6.06-13.97-3.24-8.36,3-4.03,11.67-2.95,11.89s.57-1.24.96-2.35c.54-1.5,3.14-1.18,4.03.05,2.8,3.86-3.07,4.23-2.85,4.87.11.34,1.15,1.52,2.58,1.71,2.01.28,2.16-.54,2.9-.17.95.47-1.19,1.78-.81,2.79.28.74,2.94.47,4.04,1.65.85.92-.67,2.3-.5,2.9.37,1.29,4.52.43,4.89,3.59-.44,1.88-17.91-.77-19.96-15.48-1.2-8.65,4.82-15.19,11.57-15.19,3.35,0,7.49,1.25,10.04,3.65,2.55-2.4,6.7-3.65,10.04-3.65h.02ZM314.96,243.49c0,6.72-6.57,12.71-15.26,11.52-14.77-2.03-17.43-19.44-15.55-19.87,3.17.37,2.31,4.5,3.61,4.87.6.18,1.99-1.34,2.91-.5,1.18,1.09.92,3.75,1.66,4.02,1.02.38,2.32-1.74,2.8-.8.37.75-.45.89-.17,2.89.2,1.42,1.38,2.46,1.72,2.57.64.22,1.03-5.62,4.89-2.84,1.23.89,1.57,3.48.05,4.01-1.12.4-2.58-.1-2.36.96.22,1.07,8.94,5.37,11.94-2.94,2.83-7.81-3.26-13.91-3.26-13.91,0,0,6.08-6.1,3.26-13.91-3.02-8.32-11.72-4.01-11.94-2.94s1.24.57,2.36.96c1.5.54,1.18,3.13-.05,4.01-3.88,2.79-4.25-3.05-4.89-2.84-.34.11-1.52,1.15-1.72,2.57-.28,2,.54,2.15.17,2.89-.48.95-1.78-1.19-2.8-.8-.75.28-.48,2.93-1.66,4.02-.92.85-2.31-.67-2.91-.5-1.3.37-.44,4.5-3.61,4.87-1.89-.43.78-17.83,15.55-19.87,8.69-1.2,15.26,4.8,15.26,11.52,0,3.33-1.25,7.46-3.67,10,2.42,2.54,3.67,6.67,3.67,10v.02ZM317.92,220.22c-6.75,0-12.77-6.54-11.57-15.19,2.04-14.71,19.53-17.35,19.96-15.48-.37,3.16-4.52,2.3-4.89,3.59-.18.6,1.35,1.98.5,2.9-1.1,1.18-3.76.92-4.04,1.65-.38,1.01,1.75,2.31.81,2.79-.76.37-.89-.44-2.9-.17-1.43.2-2.47,1.37-2.58,1.71-.22.64,5.65,1.02,2.85,4.87-.89,1.23-3.49,1.56-4.03.05-.4-1.11.1-2.57-.96-2.35s-5.39,8.9,2.95,11.89c7.85,2.82,13.97-3.24,13.97-3.24,0,0,6.13,6.06,13.97,3.24,8.36-3,4.03-11.67,2.95-11.89s-.57,1.24-.96,2.35c-.54,1.5-3.14,1.18-4.03-.05-2.8-3.86,3.07-4.23,2.85-4.87-.11-.34-1.15-1.52-2.58-1.71-2.01-.28-2.16.54-2.9.17-.95-.47,1.19-1.78.81-2.79-.28-.74-2.94-.47-4.04-1.65-.85-.92.67-2.3.5-2.9-.37-1.29-4.52-.43-4.89-3.59.44-1.88,17.91.77,19.96,15.48,1.2,8.65-4.82,15.19-11.57,15.19-3.35,0-7.49-1.25-10.04-3.65-2.55,2.4-6.7,3.65-10.04,3.65h-.02Z" style="fill:#6f4b52;"/><path d="M314.25,247.24c.46-1.2.7-2.47.7-3.76,0-3.33-1.25-7.46-3.67-10,2.42-2.54,3.67-6.67,3.67-10,0-1.37-.29-2.72-.81-3.98,1.2.45,2.48.7,3.77.7,3.35,0,7.49-1.25,10.04-3.65,2.55,2.4,6.7,3.65,10.04,3.65,1.38,0,2.74-.29,4-.8-.46,1.2-.7,2.47-.7,3.76,0,3.33,1.25,7.46,3.67,10-2.42,2.54-3.67,6.67-3.67,10,0,1.37.29,2.72.81,3.98-1.2-.45-2.48-.7-3.77-.7-3.35,0-7.49,1.25-10.04,3.65-2.55-2.4-6.7-3.65-10.04-3.65-1.38,0-2.73.29-4,.8Z" style="fill:#e1c57f;"/><ellipse cx="327.97" cy="233.33" rx="7.91" ry="7.87" style="fill:#6f4b52;"/><rect x="187.51" y="186.67" width="93.75" height="93.33" style="fill:#f5f0e0;"/><g style="clip-path:url(#d);"><path d="M287.31,180.63l-10.58,10.54,10.58,10.54,10.58-10.54-10.58-10.54ZM287.31,195.79c-2.56,0-4.64-2.07-4.64-4.62s2.08-4.62,4.64-4.62,4.64,2.07,4.64,4.62-2.08,4.62-4.64,4.62Z" style="fill:#6f4b52;"/><path d="M287.28,201.73l-10.58,10.54,10.58,10.54,10.58-10.54-10.58-10.54ZM287.28,216.89c-2.56,0-4.64-2.07-4.64-4.62s2.08-4.62,4.64-4.62,4.64,2.07,4.64,4.62-2.08,4.62-4.64,4.62Z" style="fill:#7eb5d0;"/><path d="M266.11,180.66l-10.58,10.54,10.58,10.54,10.58-10.54-10.58-10.54ZM266.11,195.82c-2.56,0-4.64-2.07-4.64-4.62s2.08-4.62,4.64-4.62,4.64,2.07,4.64,4.62-2.08,4.62-4.64,4.62Z" style="fill:#7eb5d0;"/><path d="M276.72,170.09l-10.58,10.54,10.58,10.54,10.58-10.54-10.58-10.54ZM276.72,173.77c1.41,0,2.55,1.14,2.55,2.54,0,.17-.02.33-.05.5-.72-.46-1.58-.74-2.5-.74s-1.77.28-2.5.74c-.03-.17-.05-.33-.05-.5,0-1.4,1.14-2.54,2.55-2.54ZM272.87,183.11c-.17.03-.33.05-.5.05-1.41,0-2.55-1.14-2.55-2.54s1.14-2.54,2.55-2.54c.17,0,.33.02.5.05-.47.71-.75,1.57-.75,2.49s.28,1.76.75,2.49ZM276.72,187.48c-1.41,0-2.55-1.14-2.55-2.54,0-.17.02-.33.05-.5.72.46,1.58.74,2.5.74s1.77-.28,2.5-.74c.03.17.05.32.05.5,0,1.4-1.14,2.54-2.55,2.54ZM276.72,184.32c-2.05,0-3.72-1.66-3.72-3.7s1.67-3.7,3.72-3.7,3.72,1.66,3.72,3.7-1.67,3.7-3.72,3.7ZM281.06,183.16c-.17,0-.33-.02-.5-.05.47-.71.75-1.57.75-2.49s-.28-1.76-.75-2.49c.17-.03.33-.05.5-.05,1.41,0,2.55,1.14,2.55,2.54s-1.14,2.54-2.55,2.54Z" style="fill:#e1c57f;"/><path d="M276.72,191.15l-10.58,10.54,10.58,10.54,10.58-10.54-10.58-10.54ZM276.72,206.31c-2.56,0-4.64-2.07-4.64-4.62s2.08-4.62,4.64-4.62,4.64,2.07,4.64,4.62-2.08,4.62-4.64,4.62Z" style="fill:#e1c57f;"/><path d="M255.55,170.07l-10.58,10.54,10.58,10.54,10.58-10.54-10.58-10.54ZM255.55,185.23c-2.56,0-4.64-2.07-4.64-4.62s2.08-4.62,4.64-4.62,4.64,2.07,4.64,4.62-2.08,4.62-4.64,4.62Z" style="fill:#e1c57f;"/><path d="M287.31,222.78l-10.58,10.54,10.58,10.54,10.58-10.54-10.58-10.54ZM287.31,237.94c-2.56,0-4.64-2.07-4.64-4.62s2.08-4.62,4.64-4.62,4.64,2.07,4.64,4.62-2.08,4.62-4.64,4.62Z" style="fill:#6f4b52;"/><path d="M266.14,201.7l-10.58,10.54,10.58,10.54,10.58-10.54-10.58-10.54ZM266.14,216.86c-2.56,0-4.64-2.07-4.64-4.62s2.08-4.62,4.64-4.62,4.64,2.07,4.64,4.62-2.08,4.62-4.64,4.62Z" style="fill:#6f4b52;"/><path d="M244.98,180.63l-10.58,10.54,10.58,10.54,10.58-10.54-10.58-10.54ZM244.98,195.79c-2.56,0-4.64-2.07-4.64-4.62s2.08-4.62,4.64-4.62,4.64,2.07,4.64,4.62-2.08,4.62-4.64,4.62Z" style="fill:#6f4b52;"/><path d="M287.28,243.88l-10.58,10.54,10.58,10.54,10.58-10.54-10.58-10.54ZM287.28,259.04c-2.56,0-4.64-2.07-4.64-4.62s2.08-4.62,4.64-4.62,4.64,2.07,4.64,4.62-2.08,4.62-4.64,4.62Z" style="fill:#7eb5d0;"/><path d="M266.11,222.81l-10.58,10.54,10.58,10.54,10.58-10.54-10.58-10.54ZM266.11,237.97c-2.56,0-4.64-2.07-4.64-4.62s2.08-4.62,4.64-4.62,4.64,2.07,4.64,4.62-2.08,4.62-4.64,4.62Z" style="fill:#7eb5d0;"/><path d="M244.94,201.73l-10.58,10.54,10.58,10.54,10.58-10.54-10.58-10.54ZM244.94,216.89c-2.56,0-4.64-2.07-4.64-4.62s2.08-4.62,4.64-4.62,4.64,2.07,4.64,4.62-2.08,4.62-4.64,4.62Z" style="fill:#7eb5d0;"/><path d="M223.77,180.66l-10.58,10.54,10.58,10.54,10.58-10.54-10.58-10.54ZM223.77,195.82c-2.56,0-4.64-2.07-4.64-4.62s2.08-4.62,4.64-4.62,4.64,2.07,4.64,4.62-2.08,4.62-4.64,4.62Z" style="fill:#7eb5d0;"/><path d="M276.72,212.24l-10.58,10.54,10.58,10.54,10.58-10.54-10.58-10.54ZM276.72,215.92c1.41,0,2.55,1.14,2.55,2.54,0,.17-.02.33-.05.5-.72-.46-1.58-.74-2.5-.74s-1.77.28-2.5.74c-.03-.17-.05-.33-.05-.5,0-1.4,1.14-2.54,2.55-2.54ZM272.87,225.26c-.17.03-.33.05-.5.05-1.41,0-2.55-1.14-2.55-2.54s1.14-2.54,2.55-2.54c.17,0,.33.02.5.05-.47.71-.75,1.57-.75,2.49s.28,1.76.75,2.49ZM276.72,229.64c-1.41,0-2.55-1.14-2.55-2.54,0-.17.02-.33.05-.5.72.46,1.58.74,2.5.74s1.77-.28,2.5-.74c.03.17.05.32.05.5,0,1.4-1.14,2.54-2.55,2.54ZM276.72,226.48c-2.05,0-3.72-1.66-3.72-3.7s1.67-3.7,3.72-3.7,3.72,1.66,3.72,3.7-1.67,3.7-3.72,3.7ZM281.06,225.31c-.17,0-.33-.02-.5-.05.47-.71.75-1.57.75-2.49s-.28-1.76-.75-2.49c.17-.03.33-.05.5-.05,1.41,0,2.55,1.14,2.55,2.54s-1.14,2.54-2.55,2.54Z" style="fill:#e1c57f;"/><path d="M255.55,191.17l-10.58,10.54,10.58,10.54,10.58-10.54-10.58-10.54ZM255.55,194.84c1.41,0,2.55,1.14,2.55,2.54,0,.17-.02.33-.05.5-.72-.46-1.58-.74-2.5-.74s-1.77.28-2.5.74c-.03-.17-.05-.33-.05-.5,0-1.4,1.14-2.54,2.55-2.54ZM251.7,204.19c-.17.03-.33.05-.5.05-1.41,0-2.55-1.14-2.55-2.54s1.14-2.54,2.55-2.54c.17,0,.33.02.5.05-.47.71-.75,1.57-.75,2.49s.28,1.76.75,2.49ZM255.55,208.56c-1.41,0-2.55-1.14-2.55-2.54,0-.17.02-.33.05-.5.72.46,1.58.74,2.5.74s1.77-.28,2.5-.74c.03.17.05.32.05.5,0,1.4-1.14,2.54-2.55,2.54ZM255.55,205.4c-2.05,0-3.72-1.66-3.72-3.7s1.67-3.7,3.72-3.7,3.72,1.66,3.72,3.7-1.67,3.7-3.72,3.7ZM259.89,204.23c-.17,0-.33-.02-.5-.05.47-.71.75-1.57.75-2.49s-.28-1.76-.75-2.49c.17-.03.33-.05.5-.05,1.41,0,2.55,1.14,2.55,2.54s-1.14,2.54-2.55,2.54Z" style="fill:#e1c57f;"/><path d="M234.38,170.09l-10.58,10.54,10.58,10.54,10.58-10.54-10.58-10.54ZM234.38,173.77c1.41,0,2.55,1.14,2.55,2.54,0,.17-.02.33-.05.5-.72-.46-1.58-.74-2.5-.74s-1.77.28-2.5.74c-.03-.17-.05-.33-.05-.5,0-1.4,1.14-2.54,2.55-2.54ZM230.54,183.11c-.17.03-.33.05-.5.05-1.41,0-2.55-1.14-2.55-2.54s1.14-2.54,2.55-2.54c.17,0,.33.02.5.05-.47.71-.75,1.57-.75,2.49s.28,1.76.75,2.49ZM234.38,187.48c-1.41,0-2.55-1.14-2.55-2.54,0-.17.02-.33.05-.5.72.46,1.58.74,2.5.74s1.77-.28,2.5-.74c.03.17.05.32.05.5,0,1.4-1.14,2.54-2.55,2.54ZM234.38,184.32c-2.05,0-3.72-1.66-3.72-3.7s1.67-3.7,3.72-3.7,3.72,1.66,3.72,3.7-1.67,3.7-3.72,3.7ZM238.71,183.16c-.17,0-.33-.02-.5-.05.47-.71.75-1.57.75-2.49s-.28-1.76-.75-2.49c.17-.03.33-.05.5-.05,1.41,0,2.55,1.14,2.55,2.54s-1.14,2.54-2.55,2.54Z" style="fill:#e1c57f;"/><path d="M276.72,233.29l-10.58,10.54,10.58,10.54,10.58-10.54-10.58-10.54ZM276.72,248.45c-2.56,0-4.64-2.07-4.64-4.62s2.08-4.62,4.64-4.62,4.64,2.07,4.64,4.62-2.08,4.62-4.64,4.62Z" style="fill:#e1c57f;"/><path d="M255.55,212.22l-10.58,10.54,10.58,10.54,10.58-10.54-10.58-10.54ZM255.55,227.38c-2.56,0-4.64-2.07-4.64-4.62s2.08-4.62,4.64-4.62,4.64,2.07,4.64,4.62-2.08,4.62-4.64,4.62Z" style="fill:#e1c57f;"/><path d="M234.38,191.15l-10.58,10.54,10.58,10.54,10.58-10.54-10.58-10.54ZM234.38,206.31c-2.56,0-4.64-2.07-4.64-4.62s2.08-4.62,4.64-4.62,4.64,2.07,4.64,4.62-2.08,4.62-4.64,4.62Z" style="fill:#e1c57f;"/><path d="M213.21,170.07l-10.58,10.54,10.58,10.54,10.58-10.54-10.58-10.54ZM213.21,185.23c-2.56,0-4.64-2.07-4.64-4.62s2.08-4.62,4.64-4.62,4.64,2.07,4.64,4.62-2.08,4.62-4.64,4.62Z" style="fill:#e1c57f;"/><path d="M287.31,264.92l-10.58,10.54,10.58,10.54,10.58-10.54-10.58-10.54ZM287.31,280.08c-2.56,0-4.64-2.07-4.64-4.62s2.08-4.62,4.64-4.62,4.64,2.07,4.64,4.62-2.08,4.62-4.64,4.62Z" style="fill:#6f4b52;"/><path d="M266.14,243.85l-10.58,10.54,10.58,10.54,10.58-10.54-10.58-10.54h0ZM266.14,259.01c-2.56,0-4.64-2.07-4.64-4.62s2.08-4.62,4.64-4.62,4.64,2.07,4.64,4.62-2.08,4.62-4.64,4.62Z" style="fill:#6f4b52;"/><path d="M244.98,222.78l-10.58,10.54,10.58,10.54,10.58-10.54-10.58-10.54ZM244.98,237.94c-2.56,0-4.64-2.07-4.64-4.62s2.08-4.62,4.64-4.62,4.64,2.07,4.64,4.62-2.08,4.62-4.64,4.62Z" style="fill:#6f4b52;"/><path d="M223.81,201.7l-10.58,10.54,10.58,10.54,10.58-10.54-10.58-10.54ZM223.81,216.86c-2.56,0-4.64-2.07-4.64-4.62s2.08-4.62,4.64-4.62,4.64,2.07,4.64,4.62-2.08,4.62-4.64,4.62Z" style="fill:#6f4b52;"/><path d="M202.64,180.63l-10.58,10.54,10.58,10.54,10.58-10.54-10.58-10.54ZM202.64,195.79c-2.56,0-4.64-2.07-4.64-4.62s2.08-4.62,4.64-4.62,4.64,2.07,4.64,4.62-2.08,4.62-4.64,4.62Z" style="fill:#6f4b52;"/><path d="M266.11,264.96l-10.58,10.54,10.58,10.54,10.58-10.54-10.58-10.54ZM266.11,280.12c-2.56,0-4.64-2.07-4.64-4.62s2.08-4.62,4.64-4.62,4.64,2.07,4.64,4.62-2.08,4.62-4.64,4.62Z" style="fill:#7eb5d0;"/><path d="M244.94,243.88l-10.58,10.54,10.58,10.54,10.58-10.54-10.58-10.54ZM244.94,259.04c-2.56,0-4.64-2.07-4.64-4.62s2.08-4.62,4.64-4.62,4.64,2.07,4.64,4.62-2.08,4.62-4.64,4.62Z" style="fill:#7eb5d0;"/><path d="M223.77,222.81l-10.58,10.54,10.58,10.54,10.58-10.54-10.58-10.54ZM223.77,237.97c-2.56,0-4.64-2.07-4.64-4.62s2.08-4.62,4.64-4.62,4.64,2.07,4.64,4.62-2.08,4.62-4.64,4.62Z" style="fill:#7eb5d0;"/><path d="M202.6,201.73l-10.58,10.54,10.58,10.54,10.58-10.54-10.58-10.54ZM202.6,216.89c-2.56,0-4.64-2.07-4.64-4.62s2.08-4.62,4.64-4.62,4.64,2.07,4.64,4.62-2.08,4.62-4.64,4.62Z" style="fill:#7eb5d0;"/><path d="M181.43,180.66l-10.58,10.54,10.58,10.54,10.58-10.54-10.58-10.54ZM181.43,195.82c-2.56,0-4.64-2.07-4.64-4.62s2.08-4.62,4.64-4.62,4.64,2.07,4.64,4.62-2.08,4.62-4.64,4.62Z" style="fill:#7eb5d0;"/><path d="M276.72,254.39l-10.58,10.54,10.58,10.54,10.58-10.54-10.58-10.54h0ZM276.72,258.07c1.41,0,2.55,1.14,2.55,2.54,0,.17-.02.33-.05.5-.72-.46-1.58-.74-2.5-.74s-1.77.28-2.5.74c-.03-.17-.05-.33-.05-.5,0-1.4,1.14-2.54,2.55-2.54ZM272.87,267.41c-.17.03-.33.05-.5.05-1.41,0-2.55-1.14-2.55-2.54s1.14-2.54,2.55-2.54c.17,0,.33.02.5.05-.47.71-.75,1.57-.75,2.49s.28,1.76.75,2.49ZM276.72,271.79c-1.41,0-2.55-1.14-2.55-2.54,0-.17.02-.33.05-.5.72.46,1.58.74,2.5.74s1.77-.28,2.5-.74c.03.17.05.32.05.5,0,1.4-1.14,2.54-2.55,2.54ZM276.72,268.63c-2.05,0-3.72-1.66-3.72-3.7s1.67-3.7,3.72-3.7,3.72,1.66,3.72,3.7-1.67,3.7-3.72,3.7ZM281.06,267.46c-.17,0-.33-.02-.5-.05.47-.71.75-1.57.75-2.49s-.28-1.76-.75-2.49c.17-.03.33-.05.5-.05,1.41,0,2.55,1.14,2.55,2.54s-1.14,2.54-2.55,2.54Z" style="fill:#e1c57f;"/><path d="M255.55,233.31l-10.58,10.54,10.58,10.54,10.58-10.54-10.58-10.54ZM255.55,237c1.41,0,2.55,1.14,2.55,2.54,0,.17-.02.33-.05.5-.72-.46-1.58-.74-2.5-.74s-1.77.28-2.5.74c-.03-.17-.05-.33-.05-.5,0-1.4,1.14-2.54,2.55-2.54ZM251.7,246.34c-.17.03-.33.05-.5.05-1.41,0-2.55-1.14-2.55-2.54s1.14-2.54,2.55-2.54c.17,0,.33.02.5.05-.47.71-.75,1.57-.75,2.49s.28,1.76.75,2.49ZM255.55,250.71c-1.41,0-2.55-1.14-2.55-2.54,0-.17.02-.33.05-.5.72.46,1.58.74,2.5.74s1.77-.28,2.5-.74c.03.17.05.32.05.5,0,1.4-1.14,2.54-2.55,2.54ZM255.55,247.55c-2.05,0-3.72-1.66-3.72-3.7s1.67-3.7,3.72-3.7,3.72,1.66,3.72,3.7-1.67,3.7-3.72,3.7ZM259.89,246.39c-.17,0-.33-.02-.5-.05.47-.71.75-1.57.75-2.49s-.28-1.76-.75-2.49c.17-.03.33-.05.5-.05,1.41,0,2.55,1.14,2.55,2.54s-1.14,2.54-2.55,2.54Z" style="fill:#e1c57f;"/><path d="M234.38,212.24l-10.58,10.54,10.58,10.54,10.58-10.54-10.58-10.54ZM234.38,215.92c1.41,0,2.55,1.14,2.55,2.54,0,.17-.02.33-.05.5-.72-.46-1.58-.74-2.5-.74s-1.77.28-2.5.74c-.03-.17-.05-.33-.05-.5,0-1.4,1.14-2.54,2.55-2.54ZM230.54,225.26c-.17.03-.33.05-.5.05-1.41,0-2.55-1.14-2.55-2.54s1.14-2.54,2.55-2.54c.17,0,.33.02.5.05-.47.71-.75,1.57-.75,2.49s.28,1.76.75,2.49ZM234.38,229.64c-1.41,0-2.55-1.14-2.55-2.54,0-.17.02-.33.05-.5.72.46,1.58.74,2.5.74s1.77-.28,2.5-.74c.03.17.05.32.05.5,0,1.4-1.14,2.54-2.55,2.54ZM234.38,226.48c-2.05,0-3.72-1.66-3.72-3.7s1.67-3.7,3.72-3.7,3.72,1.66,3.72,3.7-1.67,3.7-3.72,3.7ZM238.71,225.31c-.17,0-.33-.02-.5-.05.47-.71.75-1.57.75-2.49s-.28-1.76-.75-2.49c.17-.03.33-.05.5-.05,1.41,0,2.55,1.14,2.55,2.54s-1.14,2.54-2.55,2.54Z" style="fill:#e1c57f;"/><path d="M213.2,191.17l-10.58,10.54,10.58,10.54,10.58-10.54-10.58-10.54ZM213.2,194.84c1.41,0,2.55,1.14,2.55,2.54,0,.17-.02.33-.05.5-.72-.46-1.58-.74-2.5-.74s-1.77.28-2.5.74c-.03-.17-.05-.33-.05-.5,0-1.4,1.14-2.54,2.55-2.54ZM209.36,204.19c-.17.03-.33.05-.5.05-1.41,0-2.55-1.14-2.55-2.54s1.14-2.54,2.55-2.54c.17,0,.33.02.5.05-.47.71-.75,1.57-.75,2.49s.28,1.76.75,2.49ZM213.2,208.56c-1.41,0-2.55-1.14-2.55-2.54,0-.17.02-.33.05-.5.72.46,1.58.74,2.5.74s1.77-.28,2.5-.74c.03.17.05.32.05.5,0,1.4-1.14,2.54-2.55,2.54ZM213.2,205.4c-2.05,0-3.72-1.66-3.72-3.7s1.67-3.7,3.72-3.7,3.72,1.66,3.72,3.7-1.67,3.7-3.72,3.7ZM217.55,204.23c-.17,0-.33-.02-.5-.05.47-.71.75-1.57.75-2.49s-.28-1.76-.75-2.49c.17-.03.33-.05.5-.05,1.41,0,2.55,1.14,2.55,2.54s-1.14,2.54-2.55,2.54Z" style="fill:#e1c57f;"/><path d="M192.04,170.09l-10.58,10.54,10.58,10.54,10.58-10.54-10.58-10.54ZM192.04,173.77c1.41,0,2.55,1.14,2.55,2.54,0,.17-.02.33-.05.5-.72-.46-1.58-.74-2.5-.74s-1.77.28-2.5.74c-.03-.17-.05-.33-.05-.5,0-1.4,1.14-2.54,2.55-2.54ZM188.19,183.11c-.17.03-.33.05-.5.05-1.41,0-2.55-1.14-2.55-2.54s1.14-2.54,2.55-2.54c.17,0,.33.02.5.05-.47.71-.75,1.57-.75,2.49s.28,1.76.75,2.49ZM192.04,187.48c-1.41,0-2.55-1.14-2.55-2.54,0-.17.02-.33.05-.5.72.46,1.58.74,2.5.74s1.77-.28,2.5-.74c.03.17.05.32.05.5,0,1.4-1.14,2.54-2.55,2.54ZM192.04,184.32c-2.05,0-3.72-1.66-3.72-3.7s1.67-3.7,3.72-3.7,3.72,1.66,3.72,3.7-1.67,3.7-3.72,3.7ZM196.38,183.16c-.17,0-.33-.02-.5-.05.47-.71.75-1.57.75-2.49s-.28-1.76-.75-2.49c.17-.03.33-.05.5-.05,1.41,0,2.55,1.14,2.55,2.54s-1.14,2.54-2.55,2.54Z" style="fill:#e1c57f;"/><path d="M276.72,275.45l-10.58,10.54,10.58,10.54,10.58-10.54-10.58-10.54ZM276.72,290.61c-2.56,0-4.64-2.07-4.64-4.62s2.08-4.62,4.64-4.62,4.64,2.07,4.64,4.62-2.08,4.62-4.64,4.62Z" style="fill:#e1c57f;"/><path d="M255.55,254.37l-10.58,10.54,10.58,10.54,10.58-10.54-10.58-10.54ZM255.55,269.53c-2.56,0-4.64-2.07-4.64-4.62s2.08-4.62,4.64-4.62,4.64,2.07,4.64,4.62-2.08,4.62-4.64,4.62Z" style="fill:#e1c57f;"/><path d="M234.38,233.29l-10.58,10.54,10.58,10.54,10.58-10.54-10.58-10.54ZM234.38,248.45c-2.56,0-4.64-2.07-4.64-4.62s2.08-4.62,4.64-4.62,4.64,2.07,4.64,4.62-2.08,4.62-4.64,4.62Z" style="fill:#e1c57f;"/><path d="M213.21,212.22l-10.58,10.54,10.58,10.54,10.58-10.54-10.58-10.54ZM213.21,227.38c-2.56,0-4.64-2.07-4.64-4.62s2.08-4.62,4.64-4.62,4.64,2.07,4.64,4.62-2.08,4.62-4.64,4.62Z" style="fill:#e1c57f;"/><path d="M192.04,191.15l-10.58,10.54,10.58,10.54,10.58-10.54-10.58-10.54ZM192.04,206.31c-2.56,0-4.64-2.07-4.64-4.62s2.08-4.62,4.64-4.62,4.64,2.07,4.64,4.62-2.08,4.62-4.64,4.62Z" style="fill:#e1c57f;"/><path d="M244.98,264.92l-10.58,10.54,10.58,10.54,10.58-10.54-10.58-10.54ZM244.98,280.08c-2.56,0-4.64-2.07-4.64-4.62s2.08-4.62,4.64-4.62,4.64,2.07,4.64,4.62-2.08,4.62-4.64,4.62Z" style="fill:#6f4b52;"/><path d="M223.81,243.85l-10.58,10.54,10.58,10.54,10.58-10.54-10.58-10.54h0ZM223.81,259.01c-2.56,0-4.64-2.07-4.64-4.62s2.08-4.62,4.64-4.62,4.64,2.07,4.64,4.62-2.08,4.62-4.64,4.62Z" style="fill:#6f4b52;"/><path d="M202.64,222.78l-10.58,10.54,10.58,10.54,10.58-10.54-10.58-10.54ZM202.64,237.94c-2.56,0-4.64-2.07-4.64-4.62s2.08-4.62,4.64-4.62,4.64,2.07,4.64,4.62-2.08,4.62-4.64,4.62Z" style="fill:#6f4b52;"/><path d="M181.46,201.7l-10.58,10.54,10.58,10.54,10.58-10.54-10.58-10.54ZM181.46,216.86c-2.56,0-4.64-2.07-4.64-4.62s2.08-4.62,4.64-4.62,4.64,2.07,4.64,4.62-2.08,4.62-4.64,4.62Z" style="fill:#6f4b52;"/><path d="M223.77,264.96l-10.58,10.54,10.58,10.54,10.58-10.54-10.58-10.54ZM223.77,280.12c-2.56,0-4.64-2.07-4.64-4.62s2.08-4.62,4.64-4.62,4.64,2.07,4.64,4.62-2.08,4.62-4.64,4.62Z" style="fill:#7eb5d0;"/><path d="M202.6,243.88l-10.58,10.54,10.58,10.54,10.58-10.54-10.58-10.54ZM202.6,259.04c-2.56,0-4.64-2.07-4.64-4.62s2.08-4.62,4.64-4.62,4.64,2.07,4.64,4.62-2.08,4.62-4.64,4.62Z" style="fill:#7eb5d0;"/><path d="M181.43,222.81l-10.58,10.54,10.58,10.54,10.58-10.54-10.58-10.54ZM181.43,237.97c-2.56,0-4.64-2.07-4.64-4.62s2.08-4.62,4.64-4.62,4.64,2.07,4.64,4.62-2.08,4.62-4.64,4.62Z" style="fill:#7eb5d0;"/><path d="M255.55,275.47l-10.58,10.54,10.58,10.54,10.58-10.54-10.58-10.54ZM255.55,279.14c1.41,0,2.55,1.14,2.55,2.54,0,.17-.02.33-.05.5-.72-.46-1.58-.74-2.5-.74s-1.77.28-2.5.74c-.03-.17-.05-.33-.05-.5,0-1.4,1.14-2.54,2.55-2.54ZM251.7,288.48c-.17.03-.33.05-.5.05-1.41,0-2.55-1.14-2.55-2.54s1.14-2.54,2.55-2.54c.17,0,.33.02.5.05-.47.71-.75,1.57-.75,2.49s.28,1.76.75,2.49ZM255.55,292.86c-1.41,0-2.55-1.14-2.55-2.54,0-.17.02-.33.05-.5.72.46,1.58.74,2.5.74s1.77-.28,2.5-.74c.03.17.05.32.05.5,0,1.4-1.14,2.54-2.55,2.54ZM255.55,289.7c-2.05,0-3.72-1.66-3.72-3.7s1.67-3.7,3.72-3.7,3.72,1.66,3.72,3.7-1.67,3.7-3.72,3.7ZM259.89,288.53c-.17,0-.33-.02-.5-.05.47-.71.75-1.57.75-2.49s-.28-1.76-.75-2.49c.17-.03.33-.05.5-.05,1.41,0,2.55,1.14,2.55,2.54s-1.14,2.54-2.55,2.54Z" style="fill:#e1c57f;"/><path d="M234.38,254.39l-10.58,10.54,10.58,10.54,10.58-10.54-10.58-10.54h0ZM234.38,258.07c1.41,0,2.55,1.14,2.55,2.54,0,.17-.02.33-.05.5-.72-.46-1.58-.74-2.5-.74s-1.77.28-2.5.74c-.03-.17-.05-.33-.05-.5,0-1.4,1.14-2.54,2.55-2.54ZM230.54,267.41c-.17.03-.33.05-.5.05-1.41,0-2.55-1.14-2.55-2.54s1.14-2.54,2.55-2.54c.17,0,.33.02.5.05-.47.71-.75,1.57-.75,2.49s.28,1.76.75,2.49ZM234.38,271.79c-1.41,0-2.55-1.14-2.55-2.54,0-.17.02-.33.05-.5.72.46,1.58.74,2.5.74s1.77-.28,2.5-.74c.03.17.05.32.05.5,0,1.4-1.14,2.54-2.55,2.54ZM234.38,268.63c-2.05,0-3.72-1.66-3.72-3.7s1.67-3.7,3.72-3.7,3.72,1.66,3.72,3.7-1.67,3.7-3.72,3.7ZM238.71,267.46c-.17,0-.33-.02-.5-.05.47-.71.75-1.57.75-2.49s-.28-1.76-.75-2.49c.17-.03.33-.05.5-.05,1.41,0,2.55,1.14,2.55,2.54s-1.14,2.54-2.55,2.54Z" style="fill:#e1c57f;"/><path d="M213.2,233.31l-10.58,10.54,10.58,10.54,10.58-10.54-10.58-10.54ZM213.2,237c1.41,0,2.55,1.14,2.55,2.54,0,.17-.02.33-.05.5-.72-.46-1.58-.74-2.5-.74s-1.77.28-2.5.74c-.03-.17-.05-.33-.05-.5,0-1.4,1.14-2.54,2.55-2.54ZM209.36,246.34c-.17.03-.33.05-.5.05-1.41,0-2.55-1.14-2.55-2.54s1.14-2.54,2.55-2.54c.17,0,.33.02.5.05-.47.71-.75,1.57-.75,2.49s.28,1.76.75,2.49ZM213.2,250.71c-1.41,0-2.55-1.14-2.55-2.54,0-.17.02-.33.05-.5.72.46,1.58.74,2.5.74s1.77-.28,2.5-.74c.03.17.05.32.05.5,0,1.4-1.14,2.54-2.55,2.54ZM213.2,247.55c-2.05,0-3.72-1.66-3.72-3.7s1.67-3.7,3.72-3.7,3.72,1.66,3.72,3.7-1.67,3.7-3.72,3.7ZM217.55,246.39c-.17,0-.33-.02-.5-.05.47-.71.75-1.57.75-2.49s-.28-1.76-.75-2.49c.17-.03.33-.05.5-.05,1.41,0,2.55,1.14,2.55,2.54s-1.14,2.54-2.55,2.54Z" style="fill:#e1c57f;"/><path d="M192.04,212.24l-10.58,10.54,10.58,10.54,10.58-10.54-10.58-10.54ZM192.04,215.92c1.41,0,2.55,1.14,2.55,2.54,0,.17-.02.33-.05.5-.72-.46-1.58-.74-2.5-.74s-1.77.28-2.5.74c-.03-.17-.05-.33-.05-.5,0-1.4,1.14-2.54,2.55-2.54ZM188.19,225.26c-.17.03-.33.05-.5.05-1.41,0-2.55-1.14-2.55-2.54s1.14-2.54,2.55-2.54c.17,0,.33.02.5.05-.47.71-.75,1.57-.75,2.49s.28,1.76.75,2.49ZM192.04,229.64c-1.41,0-2.55-1.14-2.55-2.54,0-.17.02-.33.05-.5.72.46,1.58.74,2.5.74s1.77-.28,2.5-.74c.03.17.05.32.05.5,0,1.4-1.14,2.54-2.55,2.54ZM192.04,226.48c-2.05,0-3.72-1.66-3.72-3.7s1.67-3.7,3.72-3.7,3.72,1.66,3.72,3.7-1.67,3.7-3.72,3.7ZM196.38,225.31c-.17,0-.33-.02-.5-.05.47-.71.75-1.57.75-2.49s-.28-1.76-.75-2.49c.17-.03.33-.05.5-.05,1.41,0,2.55,1.14,2.55,2.54s-1.14,2.54-2.55,2.54Z" style="fill:#e1c57f;"/><path d="M234.38,275.45l-10.58,10.54,10.58,10.54,10.58-10.54-10.58-10.54ZM234.38,290.61c-2.56,0-4.64-2.07-4.64-4.62s2.08-4.62,4.64-4.62,4.64,2.07,4.64,4.62-2.08,4.62-4.64,4.62Z" style="fill:#e1c57f;"/><path d="M213.21,254.37l-10.58,10.54,10.58,10.54,10.58-10.54-10.58-10.54ZM213.21,269.53c-2.56,0-4.64-2.07-4.64-4.62s2.08-4.62,4.64-4.62,4.64,2.07,4.64,4.62-2.08,4.62-4.64,4.62Z" style="fill:#e1c57f;"/><path d="M192.04,233.29l-10.58,10.54,10.58,10.54,10.58-10.54-10.58-10.54ZM192.04,248.45c-2.56,0-4.64-2.07-4.64-4.62s2.08-4.62,4.64-4.62,4.64,2.07,4.64,4.62-2.08,4.62-4.64,4.62Z" style="fill:#e1c57f;"/><path d="M202.64,264.92l-10.58,10.54,10.58,10.54,10.58-10.54-10.58-10.54ZM202.64,280.08c-2.56,0-4.64-2.07-4.64-4.62s2.08-4.62,4.64-4.62,4.64,2.07,4.64,4.62-2.08,4.62-4.64,4.62Z" style="fill:#6f4b52;"/><path d="M181.46,243.85l-10.58,10.54,10.58,10.54,10.58-10.54-10.58-10.54h0ZM181.46,259.01c-2.56,0-4.64-2.07-4.64-4.62s2.08-4.62,4.64-4.62,4.64,2.07,4.64,4.62-2.08,4.62-4.64,4.62Z" style="fill:#6f4b52;"/><path d="M181.43,264.96l-10.58,10.54,10.58,10.54,10.58-10.54-10.58-10.54ZM181.43,280.12c-2.56,0-4.64-2.07-4.64-4.62s2.08-4.62,4.64-4.62,4.64,2.07,4.64,4.62-2.08,4.62-4.64,4.62Z" style="fill:#7eb5d0;"/><path d="M213.2,275.47l-10.58,10.54,10.58,10.54,10.58-10.54-10.58-10.54ZM213.2,279.14c1.41,0,2.55,1.14,2.55,2.54,0,.17-.02.33-.05.5-.72-.46-1.58-.74-2.5-.74s-1.77.28-2.5.74c-.03-.17-.05-.33-.05-.5,0-1.4,1.14-2.54,2.55-2.54ZM209.36,288.48c-.17.03-.33.05-.5.05-1.41,0-2.55-1.14-2.55-2.54s1.14-2.54,2.55-2.54c.17,0,.33.02.5.05-.47.71-.75,1.57-.75,2.49s.28,1.76.75,2.49ZM213.2,292.86c-1.41,0-2.55-1.14-2.55-2.54,0-.17.02-.33.05-.5.72.46,1.58.74,2.5.74s1.77-.28,2.5-.74c.03.17.05.32.05.5,0,1.4-1.14,2.54-2.55,2.54ZM213.2,289.7c-2.05,0-3.72-1.66-3.72-3.7s1.67-3.7,3.72-3.7,3.72,1.66,3.72,3.7-1.67,3.7-3.72,3.7ZM217.55,288.53c-.17,0-.33-.02-.5-.05.47-.71.75-1.57.75-2.49s-.28-1.76-.75-2.49c.17-.03.33-.05.5-.05,1.41,0,2.55,1.14,2.55,2.54s-1.14,2.54-2.55,2.54Z" style="fill:#e1c57f;"/><path d="M192.04,254.39l-10.58,10.54,10.58,10.54,10.58-10.54-10.58-10.54h0ZM192.04,258.07c1.41,0,2.55,1.14,2.55,2.54,0,.17-.02.33-.05.5-.72-.46-1.58-.74-2.5-.74s-1.77.28-2.5.74c-.03-.17-.05-.33-.05-.5,0-1.4,1.14-2.54,2.55-2.54ZM188.19,267.41c-.17.03-.33.05-.5.05-1.41,0-2.55-1.14-2.55-2.54s1.14-2.54,2.55-2.54c.17,0,.33.02.5.05-.47.71-.75,1.57-.75,2.49s.28,1.76.75,2.49ZM192.04,271.79c-1.41,0-2.55-1.14-2.55-2.54,0-.17.02-.33.05-.5.72.46,1.58.74,2.5.74s1.77-.28,2.5-.74c.03.17.05.32.05.5,0,1.4-1.14,2.54-2.55,2.54ZM192.04,268.63c-2.05,0-3.72-1.66-3.72-3.7s1.67-3.7,3.72-3.7,3.72,1.66,3.72,3.7-1.67,3.7-3.72,3.7ZM196.38,267.46c-.17,0-.33-.02-.5-.05.47-.71.75-1.57.75-2.49s-.28-1.76-.75-2.49c.17-.03.33-.05.5-.05,1.41,0,2.55,1.14,2.55,2.54s-1.14,2.54-2.55,2.54Z" style="fill:#e1c57f;"/><path d="M192.04,275.45l-10.58,10.54,10.58,10.54,10.58-10.54-10.58-10.54ZM192.04,290.61c-2.56,0-4.64-2.07-4.64-4.62s2.08-4.62,4.64-4.62,4.64,2.07,4.64,4.62-2.08,4.62-4.64,4.62Z" style="fill:#e1c57f;"/></g><rect x="93.75" y="186.67" width="93.75" height="93.33" style="fill:#6f4b52;"/><g style="clip-path:url(#e);"><path d="M183.59,276.1h-32c-2.96,2.44-6.77,3.9-10.93,3.9s-7.95-1.47-10.93-3.9h-32.06v-31.86c-2.45-2.95-3.92-6.74-3.92-10.88s1.47-7.92,3.92-10.88v-31.92h32c2.96-2.44,6.77-3.9,10.93-3.9s7.95,1.47,10.93,3.9h32.06v31.86c2.45,2.95,3.92,6.74,3.92,10.88s-1.47,7.92-3.92,10.88v31.92Z" style="fill:#7eb5d0;"/><path d="M179.68,243.73v28.48h-28.55c-2.57,2.87-6.3,4.67-10.47,4.67s-7.9-1.82-10.47-4.67h-28.61v-28.42c-2.88-2.56-4.7-6.27-4.7-10.42s1.82-7.86,4.7-10.42v-28.48h28.55c2.57-2.87,6.3-4.67,10.47-4.67s7.9,1.82,10.47,4.67h28.61v28.42c2.88,2.56,4.7,6.27,4.7,10.42s-1.82,7.86-4.7,10.42h0Z" style="fill:#f5f0e0;"/><path d="M174.99,242.05v25.49h-25.54c-1.68,3.13-4.99,5.26-8.79,5.26s-7.11-2.14-8.79-5.26h-25.6v-25.43c-3.14-1.67-5.29-4.96-5.29-8.75s2.15-7.08,5.29-8.75v-25.49h25.54c1.68-3.13,4.99-5.26,8.79-5.26s7.11,2.14,8.79,5.26h25.6v25.43c3.14,1.67,5.29,4.96,5.29,8.75s-2.15,7.08-5.29,8.75Z" style="fill:#6f4b52;"/><path d="M170.31,239.15v23.73h-23.78c-.04,3.2-2.65,5.78-5.88,5.78s-5.84-2.58-5.88-5.78h-23.83v-23.67c-3.21-.04-5.81-2.64-5.81-5.85s2.59-5.81,5.81-5.85v-23.73h23.78c.04-3.2,2.65-5.78,5.88-5.78s5.83,2.58,5.88,5.78h23.83v23.67c3.21.04,5.81,2.64,5.81,5.85s-2.59,5.8-5.81,5.85Z" style="fill:#e1c57f;"/><path d="M165.43,233.33c-6.47,0-24.81,18.31-24.81,24.77,0-6.46-18.33-24.77-24.81-24.77,6.47,0,24.81-18.31,24.81-24.77,0,6.46,18.33,24.77,24.81,24.77h0Z" style="fill:#6f4b52;"/><path d="M131.87,231.09c-10.54-1.75-18.59-10.85-18.59-21.85,0-.99.09-1.96.22-2.92.96-.12,1.94-.22,2.93-.22,11.03,0,20.16,8,21.94,18.47-3.19.82-5.69,3.31-6.5,6.5h0ZM149.38,235.56c-.82,3.19-3.31,5.69-6.5,6.5,1.77,10.49,10.91,18.47,21.94,18.47,1,0,1.97-.09,2.93-.22.12-.96.22-1.93.22-2.92,0-10.99-8.04-20.09-18.59-21.85h0ZM149.38,231.09c10.54-1.75,18.59-10.85,18.59-21.85,0-.99-.09-1.96-.22-2.92-.96-.12-1.94-.22-2.93-.22-11.03,0-20.16,8-21.94,18.47,3.19.82,5.69,3.31,6.5,6.5h0ZM131.87,235.56c-10.54,1.75-18.59,10.85-18.59,21.85,0,.99.09,1.96.22,2.92.96.12,1.94.22,2.93.22,11.03,0,20.16-8,21.94-18.47-3.19-.82-5.69-3.31-6.5-6.5h0Z" style="fill:#7eb5d0;"/><path d="M148.26,238.62c-.11,0-.23.01-.33.01.66-.91,1.17-1.95,1.46-3.08.19-.72.31-1.46.31-2.23s-.12-1.52-.31-2.23c-.29-1.12-.8-2.17-1.46-3.08.11,0,.22.01.33.01,9.01,0,16.31-7.27,16.31-16.23,0-.73-.06-1.43-.16-2.14-.7-.09-1.42-.15-2.15-.15-9.01,0-16.31,7.27-16.31,16.23,0,.11,0,.22.01.32-.91-.67-1.95-1.18-3.08-1.47-.73-.19-1.47-.32-2.25-.32s-1.52.13-2.25.32c-1.13.29-2.17.8-3.08,1.47,0-.1.01-.22.01-.32,0-8.97-7.3-16.23-16.31-16.23-.73,0-1.44.06-2.15.15-.09.7-.16,1.41-.16,2.14,0,8.97,7.3,16.23,16.31,16.23.11,0,.23-.01.33-.01-.66.91-1.17,1.95-1.46,3.08-.19.72-.31,1.46-.31,2.23s.12,1.52.31,2.23c.29,1.12.8,2.17,1.46,3.08-.11,0-.22-.01-.33-.01-9.01,0-16.31,7.27-16.31,16.23,0,.73.06,1.43.16,2.14.7.09,1.42.15,2.15.15,9.01,0,16.31-7.27,16.31-16.23,0-.11,0-.22-.01-.32.91.67,1.95,1.18,3.08,1.47.73.19,1.47.32,2.25.32s1.52-.13,2.25-.32c1.13-.29,2.17-.8,3.08-1.47,0,.1-.01.22-.01.32,0,8.97,7.3,16.23,16.31,16.23.73,0,1.44-.06,2.15-.15.09-.7.16-1.41.16-2.14,0-8.97-7.3-16.23-16.31-16.23ZM145.04,234.82c-.47,1.37-1.53,2.45-2.91,2.91-.48.17-.97.27-1.5.27s-1.03-.1-1.5-.27c-1.37-.46-2.45-1.54-2.91-2.91-.16-.47-.27-.97-.27-1.5s.1-1.02.27-1.5c.47-1.37,1.53-2.45,2.91-2.91.48-.17.97-.27,1.5-.27s1.03.1,1.5.27c1.37.46,2.45,1.54,2.91,2.91.16.47.27.97.27,1.5s-.1,1.02-.27,1.5Z" style="fill:#f5f0e0;"/></g><rect y="93.33" width="93.75" height="93.33" style="fill:#f5f0e0;"/><g style="clip-path:url(#f);"><path d="M47.14,97.43c10.88,0,19.74,8.81,19.74,19.65s-8.85,19.65-19.74,19.65-19.74-8.81-19.74-19.65,8.85-19.65,19.74-19.65M47.14,94.15c-12.72,0-23.02,10.27-23.02,22.92s10.31,22.92,23.02,22.92,23.02-10.27,23.02-22.92-10.31-22.92-23.02-22.92h0ZM47.14,143.36c10.88,0,19.74,8.81,19.74,19.65s-8.85,19.65-19.74,19.65-19.74-8.81-19.74-19.65,8.85-19.65,19.74-19.65M47.14,140.08c-12.72,0-23.02,10.27-23.02,22.92s10.31,22.92,23.02,22.92,23.02-10.27,23.02-22.92-10.31-22.92-23.02-22.92h0ZM24.02,120.43c10.88,0,19.74,8.81,19.74,19.65s-8.85,19.65-19.74,19.65-19.74-8.81-19.74-19.65,8.85-19.65,19.74-19.65M24.02,117.16c-12.72,0-23.02,10.27-23.02,22.92s10.31,22.92,23.02,22.92,23.02-10.27,23.02-22.92-10.31-22.92-23.02-22.92h0ZM70.17,120.43c10.88,0,19.74,8.81,19.74,19.65s-8.85,19.65-19.74,19.65-19.74-8.81-19.74-19.65,8.85-19.65,19.74-19.65M70.17,117.16c-12.72,0-23.02,10.27-23.02,22.92s10.31,22.92,23.02,22.92,23.02-10.27,23.02-22.92-10.31-22.92-23.02-22.92h0ZM13.7,81.73c13.66,0,24.78,11.06,24.78,24.66s-11.11,24.66-24.78,24.66-24.78-11.06-24.78-24.66S.05,81.73,13.7,81.73M13.7,78.45c-15.5,0-28.06,12.51-28.06,27.94s12.56,27.94,28.06,27.94,28.06-12.51,28.06-27.94-12.56-27.94-28.06-27.94h0ZM80.05,81.73c13.66,0,24.78,11.06,24.78,24.66s-11.11,24.66-24.78,24.66-24.78-11.06-24.78-24.66,11.11-24.66,24.78-24.66M80.05,78.45c-15.5,0-28.06,12.51-28.06,27.94s12.56,27.94,28.06,27.94,28.06-12.51,28.06-27.94-12.56-27.94-28.06-27.94h0ZM13.7,148.95c13.66,0,24.78,11.06,24.78,24.66s-11.11,24.66-24.78,24.66-24.78-11.06-24.78-24.66S.05,148.95,13.7,148.95M13.7,145.67c-15.5,0-28.06,12.51-28.06,27.94s12.56,27.94,28.06,27.94,28.06-12.51,28.06-27.94-12.56-27.94-28.06-27.94h0ZM80.05,148.95c13.66,0,24.78,11.06,24.78,24.66s-11.11,24.66-24.78,24.66-24.78-11.06-24.78-24.66,11.11-24.66,24.78-24.66M80.05,145.67c-15.5,0-28.06,12.51-28.06,27.94s12.56,27.94,28.06,27.94,28.06-12.51,28.06-27.94-12.56-27.94-28.06-27.94h0Z" style="fill:#6f4b52;"/><path d="M46.88,114.67c-4.63,10.57-15.12,21.01-25.73,25.61,10.62,4.61,21.11,15.06,25.73,25.61,4.63-10.57,15.12-21.01,25.73-25.61-10.62-4.61-21.11-15.06-25.73-25.61Z" style="fill:#6f4b52;"/><path d="M46.88,158.65c-3.32-7.56-10.83-15.05-18.43-18.35,7.6-3.3,15.11-10.78,18.43-18.35,3.32,7.56,10.83,15.05,18.43,18.35-7.6,3.3-15.11,10.78-18.43,18.35Z" style="fill:#e1c57f;"/><g id="g"><path d="M2.43,162.17c-.04,2.27,2.36,5.02,2.65,9.77.29,4.76-1.17,9.03-3.41,10.78-2.24,1.74-13.66,7.77-13.66,7.77v5.24s17.27-12.33,21.96-12.82c4.69-.49,7.9-.68,15.52,3.98,2.05-3.11-1.17-5.73-3.32-5.35,1.17-1.94,1.66-3.89-.29-4.08s-9.17,3.98-10.15,2.72,8.98-3.89,8-6.12c-.39-1.65-2.05.39-2.54-.39s5.17-3.79,3.61-5.54c-1.57-1.74-4.4,1.65-5.37,1.65s.29-2.33-1.08-2.23c-5.17,2.14-4.53,9.47-5.86,8.65-1.86-1.17,1.17-2.23,1.46-7.68.17-3.03.78-4.18-.97-3.98-1.75.2-2.24,1.07-2.24,1.07,0,0-4.24-7.33-4.31-3.47h0Z" style="fill:#7eb5d0;"/><path d="M2.43,118.42c-.04-2.27,2.36-5.02,2.65-9.77.29-4.76-1.17-9.03-3.41-10.78-2.24-1.74-13.66-7.77-13.66-7.77v-5.24s17.27,12.33,21.96,12.82c4.69.49,7.9.68,15.52-3.98,2.05,3.11-1.17,5.73-3.32,5.35,1.17,1.94,1.66,3.89-.29,4.08s-9.17-3.98-10.15-2.72,8.98,3.89,8,6.12c-.39,1.65-2.05-.39-2.54.39s5.17,3.79,3.61,5.54-4.4-1.65-5.37-1.65.29,2.33-1.08,2.23c-5.17-2.14-4.53-9.47-5.86-8.65-1.86,1.17,1.17,2.23,1.46,7.68.17,3.03.78,4.18-.97,3.98s-2.24-1.07-2.24-1.07c0,0-4.24,7.33-4.31,3.47Z" style="fill:#7eb5d0;"/><path d="M91.91,162.17c.04,2.27-2.36,5.02-2.65,9.77s1.17,9.03,3.41,10.78,13.66,7.77,13.66,7.77v5.24s-17.27-12.33-21.96-12.82-7.9-.68-15.52,3.98c-2.05-3.11,1.17-5.73,3.32-5.35-1.17-1.94-1.66-3.89.29-4.08s9.17,3.98,10.15,2.72-8.98-3.89-8-6.12c.39-1.65,2.05.39,2.54-.39s-5.17-3.79-3.61-5.54,4.4,1.65,5.37,1.65-.29-2.33,1.08-2.23c5.17,2.14,4.53,9.47,5.86,8.65,1.86-1.17-1.17-2.23-1.46-7.68-.17-3.03-.78-4.18.97-3.98s2.24,1.07,2.24,1.07c0,0,4.24-7.33,4.31-3.47h0Z" style="fill:#7eb5d0;"/><path d="M91.91,118.42c.04-2.27-2.36-5.02-2.65-9.77s1.17-9.03,3.41-10.78c2.24-1.74,13.66-7.77,13.66-7.77v-5.24s-17.27,12.33-21.96,12.82-7.9.68-15.52-3.98c-2.05,3.11,1.17,5.73,3.32,5.35-1.17,1.94-1.66,3.89.29,4.08,1.95.2,9.17-3.98,10.15-2.72s-8.98,3.89-8,6.12c.39,1.65,2.05-.39,2.54.39s-5.17,3.79-3.61,5.54,4.4-1.65,5.37-1.65-.29,2.33,1.08,2.23c5.17-2.14,4.53-9.47,5.86-8.65,1.86,1.17-1.17,2.23-1.46,7.68-.17,3.03-.78,4.18.97,3.98s2.24-1.07,2.24-1.07c0,0,4.24,7.33,4.31,3.47Z" style="fill:#7eb5d0;"/></g></g><rect x="93.75" y="93.33" width="93.75" height="93.33" style="fill:#f5f0e0;"/><path d="M125.54,111.23c2.01,4.88,1.57,13.54,1.57,13.54,0,0-2.67-2-8.02-9.43s-.11-19.2-.11-19.2c-1.12,3.66,4.57,10.21,6.57,15.09ZM112.51,124.24c4.82,1.96,13.37,1.53,13.37,1.53,0,0-1.97-2.62-9.32-7.85s-18.96-.11-18.96-.11c3.62-1.09,10.09,4.47,14.91,6.44ZM155.83,112.82c-2.01,4.88-1.57,13.54-1.57,13.54,0,0,2.67-2,8.02-9.43,5.35-7.43.11-19.2.11-19.2,1.12,3.66-4.57,10.21-6.57,15.09h0ZM183.76,119.4s-11.62-5.13-18.96.11c-7.34,5.23-9.32,7.85-9.32,7.85,0,0,8.55.43,13.37-1.53s11.29-7.52,14.91-6.44ZM125.86,168.76c2.01-4.88,1.57-13.54,1.57-13.54,0,0-2.67,2-8.02,9.43-5.35,7.43-.11,19.2-.11,19.2-1.12-3.66,4.57-10.21,6.57-15.09h0ZM97.92,162.19s11.62,5.13,18.96-.11c7.34-5.23,9.32-7.85,9.32-7.85,0,0-8.55-.43-13.37,1.53s-11.29,7.52-14.91,6.44ZM162.4,183.53s5.23-11.76-.11-19.2c-5.35-7.43-8.02-9.43-8.02-9.43,0,0-.45,8.66,1.57,13.54s7.69,11.42,6.57,15.09h0ZM168.86,155.43c-4.82-1.96-13.37-1.53-13.37-1.53,0,0,1.97,2.62,9.32,7.85,7.34,5.23,18.96.11,18.96.11-3.62,1.09-10.09-4.47-14.91-6.44h0Z" style="fill:#7eb5d0;"/><path d="M130.79,120.59c.43-1.32,1.65-2.27,3.12-2.27,1.81,0,3.29,1.47,3.29,3.27,0,1.57-1.11,2.88-2.6,3.2,1.79,1.19,3.85,1.88,6.22,1.88s4.46-.7,6.25-1.88c-1.48-.32-2.6-1.63-2.6-3.2,0-1.81,1.47-3.27,3.29-3.27,1.46,0,2.68.96,3.12,2.27,1.44,4.76-4.06,8.26-10.04,8.26-6.47,0-11.49-3.5-10.04-8.26h.01ZM129,140.63c0-5.95-3.51-11.43-8.29-10-1.33.42-2.28,1.64-2.28,3.11,0,1.81,1.47,3.27,3.29,3.27,1.58,0,2.89-1.1,3.21-2.59,1.19,1.79,1.89,3.92,1.89,6.22s-.7,4.41-1.89,6.19c-.32-1.48-1.64-2.59-3.21-2.59-1.81,0-3.29,1.47-3.29,3.27,0,1.46.96,2.67,2.28,3.11,4.78,1.43,8.29-3.55,8.29-10h0ZM160.97,150.63c1.33-.42,2.28-1.64,2.28-3.11,0-1.81-1.47-3.27-3.29-3.27-1.58,0-2.89,1.1-3.21,2.59-1.19-1.79-1.89-3.83-1.89-6.19s.7-4.44,1.89-6.22c.32,1.48,1.64,2.59,3.21,2.59,1.81,0,3.29-1.47,3.29-3.27,0-1.46-.96-2.67-2.28-3.11-4.78-1.43-8.29,4.05-8.29,10,0,6.44,3.51,11.43,8.29,10h0ZM130.79,160.67c.43,1.32,1.65,2.27,3.12,2.27,1.81,0,3.29-1.47,3.29-3.27,0-1.57-1.11-2.88-2.6-3.2,1.79-1.19,3.85-1.88,6.22-1.88s4.46.7,6.25,1.88c-1.48.32-2.6,1.63-2.6,3.2,0,1.81,1.47,3.27,3.29,3.27,1.46,0,2.68-.96,3.12-2.27,1.44-4.76-4.06-8.26-10.04-8.26-6.47,0-11.49,3.5-10.04,8.26h.01Z" style="fill:#6f4b52;"/><path d="M175.62,141.93c-2.86-.34-5.66.64-5.94,2.85-.23,1.81.67,3.95,3.28,4.65h0c0,1.98-4.28,3.91-9.55,3.58-10.52-.65-11.81-5.66-12.3-7.98-.45-2.11-.59-6.25,0-8.8.54-2.3.84-7.15,12.3-7.98,5.26-.37,9.71,2.04,9.55,3.58-2.6.69-3.5,2.84-3.28,4.65.28,2.21,3.08,3.19,5.94,2.85,1.91-.23,4.68-2.04,4.68-6.68s-7.74-7.45-15.97-6.45c-2.77.34-5.15.82-7.2,1.44l-3.33-2.91c.67-2.11,1.18-4.59,1.53-7.48,1.02-8.2-1.81-15.9-6.48-15.9s-6.48,2.76-6.71,4.65c-.34,2.85.64,5.63,2.86,5.91,1.81.23,3.97-.67,4.68-3.26h0c1.55-.17,3.98,4.27,3.6,9.5-.82,11.41-5.69,11.71-8.01,12.25-2.56.59-6.73.44-8.84,0-2.32-.49-7.36-1.78-8.01-12.25-.33-5.24,1.61-9.5,3.6-9.5.69,2.59,2.85,3.49,4.68,3.26,2.22-.28,3.2-3.07,2.86-5.91-.23-1.9-2.05-4.65-6.71-4.65s-7.47,7.71-6.48,15.9c.29,2.35.65,4.36,1.09,6.08l-4.93,3.76h0c-1.55-.36-3.27-.65-5.16-.88-8.24-1.01-15.97,1.81-15.97,6.45s2.77,6.45,4.68,6.68c2.86.34,5.66-.64,5.94-2.85.23-1.81-.67-3.95-3.28-4.65-.17-1.55,4.29-3.96,9.55-3.58,11.47.82,11.77,5.67,12.3,7.98.59,2.55.45,6.7,0,8.8-.3,1.41-.91,3.82-3.7,5.62l-.28.19c-1.79,1.08-4.42,1.92-8.31,2.16-5.27.33-9.55-1.6-9.55-3.58h0c2.6-.69,3.5-2.84,3.28-4.65-.28-2.21-3.08-3.19-5.94-2.85-1.91.23-4.68,2.04-4.68,6.68s7.74,7.44,15.97,6.45c2.38-.29,4.41-.65,6.15-1.09l3.93,3.99c-.44,1.72-.8,3.72-1.09,6.06-1,8.2,1.81,15.9,6.48,15.9s6.48-2.76,6.71-4.65c.34-2.85-.64-5.63-2.86-5.91-1.81-.23-3.97.67-4.68,3.26-1.99,0-3.93-4.26-3.6-9.5.65-10.47,5.68-11.75,8.01-12.25,2.11-.44,6.28-.59,8.84,0,2.31.54,7.18.84,8.01,12.25.37,5.23-2.05,9.67-3.6,9.5h0c-.69-2.59-2.85-3.49-4.68-3.26-2.22.28-3.2,3.07-2.86,5.91.23,1.9,2.05,4.65,6.71,4.65s7.48-7.71,6.48-15.9c-.31-2.49-.73-4.69-1.26-6.59l3.9-3.52c1.79.47,3.88.86,6.35,1.16,8.24.99,15.97-1.81,15.97-6.45s-2.77-6.45-4.68-6.68h.02ZM136.29,147.96c-1.32.34-2.49.79-3.52,1.43l-.73-.72c.64-1.03,1.1-2.19,1.44-3.51.94-3.66.79-6.87.23-9.27-.37-1.59-1.08-2.95-2.08-4.13l.45-.37c1.2.89,2.59,1.49,4.22,1.9,3.68.94,6.9.78,9.31.23.83-.2,1.6-.49,2.31-.85h0l.81,1.1h0c-.32.65-.57,1.35-.76,2.12-.57,2.39-.73,5.6.23,9.27.34,1.31.8,2.47,1.43,3.49l-.63.58c-1.01-.69-2.13-1.2-3.4-1.5-2.4-.57-5.63-.72-9.31.23h.01Z" style="fill:#6f4b52;"/><path d="M146.29,140.59l-5.6,5.57-5.6-5.57,5.6-5.57,5.6,5.57Z" style="fill:#6f4b52;"/><path d="M181.81,110.9c-3.36,6.17-16.38,4.77-16.38,4.77,0,0,.56-12.76,3.84-15.24,4.69-3.55,5.74,5.48,5.74,5.48,0,0,8.25,2.33,6.8,4.99h0ZM181.81,170.37c-3.36-6.17-16.38-4.77-16.38-4.77,0,0,.56,12.76,3.84,15.24,4.69,3.55,5.74-5.48,5.74-5.48,0,0,8.25-2.33,6.8-4.99h0ZM99.55,109.62c3.36,6.17,16.38,4.77,16.38,4.77,0,0-.56-12.76-3.84-15.24-4.69-3.55-5.74,5.48-5.74,5.48,0,0-8.25,2.33-6.8,4.99ZM106.35,175.36s1.07,9.03,5.74,5.48c3.28-2.49,3.84-15.24,3.84-15.24,0,0-13.03-1.4-16.38,4.77-1.45,2.66,6.8,4.99,6.8,4.99h0Z" style="fill:#567483;"/><path d="M93.75,132.31v-38.99h93.75v39.07c-.12-.01-.25-.03-.38-.04-.27-14.05-1.82-26.43-4.83-28.97-14.47-12.28-69.41-13.19-83.03,0-2.82,2.72-4.51,15.04-5.02,28.97-.17-.01-.32-.05-.49-.05h0ZM186.9,148.38c-.69,14.79-2.71,28.09-5.88,30.65-10.36,8.38-66.98,10.63-81.34-.21-3.26-2.46-5.05-15.71-5.48-30.46-.15,0-.29.04-.45.04v38.26h93.75v-38.35c-.2.02-.39.05-.6.06h0Z" style="fill:#6f4b52;"/><rect x="187.51" y="93.33" width="93.75" height="93.33" style="fill:#f5f0e0;"/><g style="clip-path:url(#g);"><path d="M191.99,191.38s8.45-15.83,21.7-25.2c5.03-3.55,15.5-3.58,14.71,5.6-.48,5.46-3.92,4.97-4.98,4.57-4.03-1.55-2.48-4.87-.5-5.28.87-1.35-5.45-5.27-6.47,3.29-1.18-.76-2.74-1.51-4.02-.95-2.9,1.26-1.47,4.17-1.07,4.56-5.99-.09-8.81,2.93-5.05,6.04.65.54,1.93.04,2.31-.76-.62-.36-1.5-1-1.02-1.76,2.25-3.47,10.01,2.76,16.72-.54,3.28-1.6,5.95-4.76,6.44-8.34,0,0,1.42-9.27-6.22-11.29-7.21-1.91-12.18,1.83-12.18,1.83,0,0,3.97-4.78,2.36-12.03-1.7-7.69-11.06-6.69-11.06-6.69-3.63.33-6.9,2.85-8.66,6.04-3.6,6.52,2.31,14.52-1.26,16.6-.79.45-1.39-.44-1.72-1.08-.82.35-1.38,1.59-.86,2.26,2.95,3.87,6.12,1.21,6.28-4.76.38.42,3.23,1.97,4.62-.87.62-1.26-.06-2.84-.78-4.05,8.64-.63,4.98-7.09,3.59-6.28-.5,1.96-3.91,3.35-5.29-.72-.36-1.07-.69-4.52,4.81-4.76,9.25-.39,8.75,10.02,4.99,14.87-9.94,12.81-26.24,20.47-26.24,20.47l8.85,9.21-.02.02Z" style="fill:#6f4b52;"/><path d="M221.36,157.12c0-1.47-1.19-2.65-2.66-2.65-1.15,0-2.13.72-2.5,1.73l-1.28,4.31s3.56-.73,3.77-.73c.7,0,1.35-.28,1.82-.73h0c.51-.49.84-1.17.84-1.92h0Z" style="fill:#6f4b52;"/><path d="M276.76,191.38s-8.45-15.83-21.7-25.2c-5.03-3.55-15.5-3.58-14.71,5.6.48,5.46,3.92,4.97,4.98,4.57,4.03-1.55,2.48-4.87.5-5.28-.87-1.35,5.45-5.27,6.47,3.29,1.18-.76,2.74-1.51,4.02-.95,2.9,1.26,1.47,4.17,1.07,4.56,5.99-.09,8.81,2.93,5.05,6.04-.65.54-1.93.04-2.31-.76.62-.36,1.5-1,1.02-1.76-2.25-3.47-10.01,2.76-16.72-.54-3.28-1.6-5.95-4.76-6.44-8.34,0,0-1.42-9.27,6.22-11.29,7.21-1.91,12.18,1.83,12.18,1.83,0,0-3.97-4.78-2.36-12.03,1.7-7.69,11.06-6.69,11.06-6.69,3.63.33,6.9,2.85,8.66,6.04,3.6,6.52-2.31,14.52,1.26,16.6.79.45,1.39-.44,1.72-1.08.82.35,1.38,1.59.86,2.26-2.95,3.87-6.12,1.21-6.28-4.76-.38.42-3.23,1.97-4.62-.87-.62-1.26.06-2.84.78-4.05-8.64-.63-4.98-7.09-3.59-6.28.5,1.96,3.91,3.35,5.29-.72.36-1.07.69-4.52-4.81-4.76-9.25-.39-8.75,10.02-4.99,14.87,9.94,12.81,26.24,20.47,26.24,20.47l-8.85,9.21.02.02Z" style="fill:#6f4b52;"/><path d="M247.39,157.12c0-1.47,1.19-2.65,2.66-2.65,1.15,0,2.13.72,2.5,1.73l1.28,4.31s-3.56-.73-3.77-.73c-.7,0-1.35-.28-1.82-.73h0c-.51-.49-.84-1.17-.84-1.92h0Z" style="fill:#6f4b52;"/><path d="M191.99,88.77s8.45,15.83,21.7,25.2c5.03,3.55,15.5,3.58,14.71-5.6-.48-5.46-3.92-4.97-4.98-4.57-4.03,1.55-2.48,4.87-.5,5.28.87,1.35-5.45,5.27-6.47-3.29-1.18.76-2.74,1.51-4.02.95-2.9-1.26-1.47-4.17-1.07-4.56-5.99.09-8.81-2.93-5.05-6.04.65-.54,1.93-.04,2.31.76-.62.36-1.5,1-1.02,1.76,2.25,3.47,10.01-2.76,16.72.54,3.28,1.6,5.95,4.76,6.44,8.34,0,0,1.42,9.27-6.22,11.29-7.21,1.91-12.18-1.83-12.18-1.83,0,0,3.97,4.78,2.36,12.03-1.7,7.69-11.06,6.69-11.06,6.69-3.63-.33-6.9-2.85-8.66-6.04-3.6-6.52,2.31-14.52-1.26-16.6-.79-.45-1.39.44-1.72,1.08-.82-.35-1.38-1.59-.86-2.26,2.95-3.87,6.12-1.21,6.28,4.76.38-.42,3.23-1.97,4.62.87.62,1.26-.06,2.84-.78,4.05,8.64.63,4.98,7.09,3.59,6.28-.5-1.96-3.91-3.35-5.29.72-.36,1.07-.69,4.52,4.81,4.76,9.25.39,8.75-10.02,4.99-14.87-9.94-12.81-26.24-20.47-26.24-20.47l8.85-9.21-.02-.02Z" style="fill:#6f4b52;"/><path d="M221.36,123.03c0,1.47-1.19,2.65-2.66,2.65-1.15,0-2.13-.72-2.5-1.73l-1.28-4.31s3.56.73,3.77.73c.7,0,1.35.28,1.82.73h0c.51.49.84,1.17.84,1.92h0Z" style="fill:#6f4b52;"/><path d="M276.76,88.77s-8.45,15.83-21.7,25.2c-5.03,3.55-15.5,3.58-14.71-5.6.48-5.46,3.92-4.97,4.98-4.57,4.03,1.55,2.48,4.87.5,5.28-.87,1.35,5.45,5.27,6.47-3.29,1.18.76,2.74,1.51,4.02.95,2.9-1.26,1.47-4.17,1.07-4.56,5.99.09,8.81-2.93,5.05-6.04-.65-.54-1.93-.04-2.31.76.62.36,1.5,1,1.02,1.76-2.25,3.47-10.01-2.76-16.72.54-3.28,1.6-5.95,4.76-6.44,8.34,0,0-1.42,9.27,6.22,11.29,7.21,1.91,12.18-1.83,12.18-1.83,0,0-3.97,4.78-2.36,12.03,1.7,7.69,11.06,6.69,11.06,6.69,3.63-.33,6.9-2.85,8.66-6.04,3.6-6.52-2.31-14.52,1.26-16.6.79-.45,1.39.44,1.72,1.08.82-.35,1.38-1.59.86-2.26-2.95-3.87-6.12-1.21-6.28,4.76-.38-.42-3.23-1.97-4.62.87-.62,1.26.06,2.84.78,4.05-8.64.63-4.98,7.09-3.59,6.28.5-1.96,3.91-3.35,5.29.72.36,1.07.69,4.52-4.81,4.76-9.25.39-8.75-10.02-4.99-14.87,9.94-12.81,26.24-20.47,26.24-20.47l-8.85-9.21.02-.02Z" style="fill:#6f4b52;"/><path d="M247.39,123.03c0,1.47,1.19,2.65,2.66,2.65,1.15,0,2.13-.72,2.5-1.73l1.28-4.31s-3.56.73-3.77.73c-.7,0-1.35.28-1.82.73h0c-.51.49-.84,1.17-.84,1.92h0Z" style="fill:#6f4b52;"/><path d="M234.45,132.2c.91,0,1.77.19,2.58.47.77-1.72,1.2-3.61,1.2-5.61,0-3.66-1.43-7-3.74-9.49-2.32,2.5-3.74,5.82-3.74,9.49,0,1.99.44,3.88,1.19,5.59.79-.28,1.63-.45,2.51-.45Z" style="fill:#7eb5d0;"/><path d="M226.73,139.88c0-.82.17-1.59.4-2.33-1.76-.79-3.71-1.26-5.78-1.26-3.68,0-7.03,1.42-9.54,3.73,2.51,2.31,5.85,3.73,9.54,3.73,2.09,0,4.07-.47,5.86-1.29-.29-.8-.48-1.66-.48-2.57h0Z" style="fill:#7eb5d0;"/><path d="M247.52,136.41c-2.04,0-3.97.44-5.71,1.23.22.71.37,1.46.37,2.24,0,.95-.2,1.85-.52,2.69,1.78.83,3.76,1.29,5.86,1.29,3.68,0,7.03-1.42,9.54-3.73-2.51-2.31-5.85-3.73-9.54-3.73Z" style="fill:#7eb5d0;"/><path d="M234.45,147.56c-.87,0-1.69-.18-2.47-.43-.87,1.82-1.37,3.83-1.37,5.98,0,3.66,1.43,7,3.74,9.49,2.32-2.5,3.74-5.82,3.74-9.49,0-2.13-.49-4.13-1.35-5.92-.74.24-1.5.39-2.32.39h.02Z" style="fill:#7eb5d0;"/><path d="M228.3,135.29c.45-.59.96-1.1,1.54-1.54-.34-1.57-1.74-3.8-2.46-4.52-1.01-1-2.62-1-3.63,0s-1.01,2.61,0,3.61c.73.72,2.96,2.11,4.54,2.45h0Z" style="fill:#e1c57f;"/><path d="M240.33,144.82c-.43.5-.89.95-1.42,1.33.24,1.57,1.75,4.01,2.51,4.78,1.01,1,2.62,1,3.63,0s1.01-2.61,0-3.61c-.75-.74-3.14-2.22-4.72-2.5Z" style="fill:#e1c57f;"/><path d="M240.81,135.53c1.57-.36,3.77-1.72,4.49-2.44,1.01-1,1.01-2.61,0-3.61s-2.62-1-3.63,0c-.7.7-2.04,2.85-2.43,4.41.59.47,1.14,1.01,1.57,1.63h0Z" style="fill:#e1c57f;"/><path d="M228.37,144.56c-1.57.2-4.08,1.73-4.86,2.51-1.01,1-1.01,2.61,0,3.61s2.62,1,3.63,0c.77-.76,2.3-3.26,2.52-4.82-.48-.38-.9-.82-1.28-1.29h-.01Z" style="fill:#e1c57f;"/><path d="M231.7,93.32c-.64,1.6-1.01,3.35-1.01,5.18,0,3.66,1.43,7,3.74,9.49,2.32-2.5,3.74-5.82,3.74-9.49,0-1.83-.35-3.57-1-5.17l-5.49-.02h.01Z" style="fill:#7eb5d0;"/><path d="M187.44,142.78c1.61.64,3.37,1,5.2,1,3.68,0,7.03-1.42,9.54-3.73-2.51-2.31-5.85-3.73-9.54-3.73-1.83,0-3.59.35-5.19.99l-.02,5.47h.01Z" style="fill:#7eb5d0;"/><path d="M237.11,186.83c.64-1.6,1.01-3.35,1.01-5.18,0-3.66-1.43-7-3.74-9.49-2.32,2.5-3.74,5.82-3.74,9.49,0,1.83.35,3.57,1,5.17l5.49.02h-.01Z" style="fill:#7eb5d0;"/><path d="M281.36,137.38c-1.61-.64-3.37-1-5.2-1-3.68,0-7.03,1.42-9.54,3.73,2.51,2.31,5.85,3.73,9.54,3.73,1.83,0,3.59-.35,5.19-.99l.02-5.47h-.01Z" style="fill:#7eb5d0;"/></g><path d="M375,186.67h-93.75v-93.33h93.75v93.33Z" style="fill:#6f4b52;"/><path d="M345.44,184.37c1.97-1.96,1.97-9.79,0-11.74,1.97,1.96,9.84,1.96,11.8,0-1.97,1.96-1.97,9.79,0,11.74-1.97-1.96-9.84-1.96-11.8,0ZM326.3,184.37c-1.97-1.96-1.97-9.79,0-11.74-1.97,1.96-9.84,1.96-11.8,0,1.97,1.96,1.97,9.79,0,11.74,1.97-1.96,9.84-1.96,11.8,0ZM295.36,184.37c-1.97-1.96-1.97-9.79,0-11.74-1.97,1.96-9.84,1.96-11.8,0,1.97,1.96,1.97,9.79,0,11.74,1.97-1.96,9.84-1.96,11.8,0ZM372.7,168.97c-1.97-1.96-1.97-9.79,0-11.74-1.97,1.96-9.84,1.96-11.8,0,1.97,1.96,1.97,9.79,0,11.74,1.97-1.96,9.84-1.96,11.8,0ZM341.77,168.97c-1.97-1.96-1.97-9.79,0-11.74-1.97,1.96-9.84,1.96-11.8,0,1.97,1.96,1.97,9.79,0,11.74,1.97-1.96,9.84-1.96,11.8,0ZM310.82,168.97c-1.97-1.96-1.97-9.79,0-11.74-1.97,1.96-9.84,1.96-11.8,0,1.97,1.96,1.97,9.79,0,11.74,1.97-1.96,9.84-1.96,11.8,0ZM357.23,153.57c-1.97-1.96-1.97-9.79,0-11.74-1.97,1.96-9.84,1.96-11.8,0,1.97,1.96,1.97,9.79,0,11.74,1.97-1.96,9.84-1.96,11.8,0ZM326.3,153.57c-1.97-1.96-1.97-9.79,0-11.74-1.97,1.96-9.84,1.96-11.8,0,1.97,1.96,1.97,9.79,0,11.74,1.97-1.96,9.84-1.96,11.8,0ZM295.36,153.57c-1.97-1.96-1.97-9.79,0-11.74-1.97,1.96-9.84,1.96-11.8,0,1.97,1.96,1.97,9.79,0,11.74,1.97-1.96,9.84-1.96,11.8,0ZM372.7,138.17c-1.97-1.96-1.97-9.79,0-11.74-1.97,1.96-9.84,1.96-11.8,0,1.97,1.96,1.97,9.79,0,11.74,1.97-1.96,9.84-1.96,11.8,0ZM341.77,138.17c-1.97-1.96-1.97-9.79,0-11.74-1.97,1.96-9.84,1.96-11.8,0,1.97,1.96,1.97,9.79,0,11.74,1.97-1.96,9.84-1.96,11.8,0ZM310.82,138.17c-1.97-1.96-1.97-9.79,0-11.74-1.97,1.96-9.84,1.96-11.8,0,1.97,1.96,1.97,9.79,0,11.74,1.97-1.96,9.84-1.96,11.8,0ZM357.23,122.78c-1.97-1.96-1.97-9.79,0-11.74-1.97,1.96-9.84,1.96-11.8,0,1.97,1.96,1.97,9.79,0,11.74,1.97-1.96,9.84-1.96,11.8,0ZM326.3,122.78c-1.97-1.96-1.97-9.79,0-11.74-1.97,1.96-9.84,1.96-11.8,0,1.97,1.96,1.97,9.79,0,11.74,1.97-1.96,9.84-1.96,11.8,0ZM295.36,122.78c-1.97-1.96-1.97-9.79,0-11.74-1.97,1.96-9.84,1.96-11.8,0,1.97,1.96,1.97,9.79,0,11.74,1.97-1.96,9.84-1.96,11.8,0ZM372.7,107.38c-1.97-1.96-1.97-9.79,0-11.74-1.97,1.96-9.84,1.96-11.8,0,1.97,1.96,1.97,9.79,0,11.74,1.97-1.96,9.84-1.96,11.8,0ZM341.77,107.38c-1.97-1.96-1.97-9.79,0-11.74-1.97,1.96-9.84,1.96-11.8,0,1.97,1.96,1.97,9.79,0,11.74,1.97-1.96,9.84-1.96,11.8,0ZM310.82,107.38c-1.97-1.96-1.97-9.79,0-11.74-1.97,1.96-9.84,1.96-11.8,0,1.97,1.96,1.97,9.79,0,11.74,1.97-1.96,9.84-1.96,11.8,0Z" style="fill:#e1c57f;"/><path d="M360.9,184.37c1.97-1.96,1.97-9.79,0-11.74,1.97,1.96,9.84,1.96,11.8,0-1.97,1.96-1.97,9.79,0,11.74-1.97-1.96-9.84-1.96-11.8,0ZM341.77,184.37c-1.97-1.96-1.97-9.79,0-11.74-1.97,1.96-9.84,1.96-11.8,0,1.97,1.96,1.97,9.79,0,11.74,1.97-1.96,9.84-1.96,11.8,0ZM310.82,184.37c-1.97-1.96-1.97-9.79,0-11.74-1.97,1.96-9.84,1.96-11.8,0,1.97,1.96,1.97,9.79,0,11.74,1.97-1.96,9.84-1.96,11.8,0ZM357.23,168.97c-1.97-1.96-1.97-9.79,0-11.74-1.97,1.96-9.84,1.96-11.8,0,1.97,1.96,1.97,9.79,0,11.74,1.97-1.96,9.84-1.96,11.8,0ZM326.3,168.97c-1.97-1.96-1.97-9.79,0-11.74-1.97,1.96-9.84,1.96-11.8,0,1.97,1.96,1.97,9.79,0,11.74,1.97-1.96,9.84-1.96,11.8,0ZM295.36,168.97c-1.97-1.96-1.97-9.79,0-11.74-1.97,1.96-9.84,1.96-11.8,0,1.97,1.96,1.97,9.79,0,11.74,1.97-1.96,9.84-1.96,11.8,0ZM372.7,153.57c-1.97-1.96-1.97-9.79,0-11.74-1.97,1.96-9.84,1.96-11.8,0,1.97,1.96,1.97,9.79,0,11.74,1.97-1.96,9.84-1.96,11.8,0ZM341.77,153.57c-1.97-1.96-1.97-9.79,0-11.74-1.97,1.96-9.84,1.96-11.8,0,1.97,1.96,1.97,9.79,0,11.74,1.97-1.96,9.84-1.96,11.8,0ZM310.82,153.57c-1.97-1.96-1.97-9.79,0-11.74-1.97,1.96-9.84,1.96-11.8,0,1.97,1.96,1.97,9.79,0,11.74,1.97-1.96,9.84-1.96,11.8,0ZM357.23,138.17c-1.97-1.96-1.97-9.79,0-11.74-1.97,1.96-9.84,1.96-11.8,0,1.97,1.96,1.97,9.79,0,11.74,1.97-1.96,9.84-1.96,11.8,0ZM326.3,138.17c-1.97-1.96-1.97-9.79,0-11.74-1.97,1.96-9.84,1.96-11.8,0,1.97,1.96,1.97,9.79,0,11.74,1.97-1.96,9.84-1.96,11.8,0ZM295.36,138.17c-1.97-1.96-1.97-9.79,0-11.74-1.97,1.96-9.84,1.96-11.8,0,1.97,1.96,1.97,9.79,0,11.74,1.97-1.96,9.84-1.96,11.8,0ZM372.7,122.78c-1.97-1.96-1.97-9.79,0-11.74-1.97,1.96-9.84,1.96-11.8,0,1.97,1.96,1.97,9.79,0,11.74,1.97-1.96,9.84-1.96,11.8,0ZM341.77,122.78c-1.97-1.96-1.97-9.79,0-11.74-1.97,1.96-9.84,1.96-11.8,0,1.97,1.96,1.97,9.79,0,11.74,1.97-1.96,9.84-1.96,11.8,0ZM310.82,122.78c-1.97-1.96-1.97-9.79,0-11.74-1.97,1.96-9.84,1.96-11.8,0,1.97,1.96,1.97,9.79,0,11.74,1.97-1.96,9.84-1.96,11.8,0ZM357.23,107.38c-1.97-1.96-1.97-9.79,0-11.74-1.97,1.96-9.84,1.96-11.8,0,1.97,1.96,1.97,9.79,0,11.74,1.97-1.96,9.84-1.96,11.8,0ZM326.3,107.38c-1.97-1.96-1.97-9.79,0-11.74-1.97,1.96-9.84,1.96-11.8,0,1.97,1.96,1.97,9.79,0,11.74,1.97-1.96,9.84-1.96,11.8,0ZM295.36,107.38c-1.97-1.96-1.97-9.79,0-11.74-1.97,1.96-9.84,1.96-11.8,0,1.97,1.96,1.97,9.79,0,11.74,1.97-1.96,9.84-1.96,11.8,0Z" style="fill:#f5f0e0;"/><path d="M46.88,58.35v11.65h-11.7l11.7-11.65ZM23.44,46.66v11.65l11.7-11.65h-11.7ZM23.44,58.37v11.62h11.67s-11.67-11.62-11.67-11.62ZM35.14,46.66l11.73,11.68v-11.68h-11.73ZM93.74,58.4v11.59h-11.64s11.64-11.59,11.64-11.59ZM82.07,46.66l11.67,11.62v-11.62h-11.67ZM70.32,46.66v11.65l.03.03,11.72-11.68h-11.76ZM70.32,58.37v11.62h11.72l-11.69-11.65s-.03.03-.03.03ZM11.61,93.33H0v-11.56l11.61,11.56ZM23.41,81.71l-11.67,11.62h11.7v-11.59s-.03-.03-.03-.03ZM11.7,70l-.03.03,11.73,11.68.03-.03v-11.68h-11.73ZM11.64,70H0v11.65l11.67-11.62s-.03-.03-.03-.03ZM58.55,93.33h-11.67v-11.62s11.67,11.62,11.67,11.62ZM58.67,93.33h11.64v-11.59s-11.64,11.59-11.64,11.59ZM58.64,70l-.03.03,11.7,11.65v-11.68h-11.67ZM58.58,70h-11.7v11.71l11.73-11.68-.03-.03ZM58.58,23.34l-11.7,11.64v-11.64s11.7,0,11.7,0ZM46.88,34.97v11.68h11.73l-11.73-11.68ZM58.61,46.66h11.7v-11.65l-11.7,11.65ZM58.64,23.34l11.67,11.61v-11.61s-11.67,0-11.67,0ZM11.64,23.34L0,34.91v-11.58h11.64ZM0,35.04v11.62h11.67L0,35.04ZM11.7,23.34l11.7,11.64.03-.03v-11.61s-11.73,0-11.73,0ZM23.41,34.97l-11.73,11.68h11.77v-11.65l-.03-.03ZM93.74,0v11.56L82.13,0h11.61ZM82.07,23.31l.03.03h11.64v-11.65s-11.67,11.62-11.67,11.62ZM70.32,0v11.59l.03.03L82.01,0h-11.69.01ZM70.32,11.66v11.68h11.72l.03-.03-11.72-11.68s-.03.03-.03.03ZM35.17,23.33l-.03-.03,11.73-11.68v11.71h-11.7ZM35.14,23.3l-11.7-11.65v11.68h11.67l.03-.03ZM35.2,0l11.67,11.62V0h-11.67ZM35.08,0h-11.64v11.59L35.08,0Z" style="fill:#e1c57f;"/><path d="M46.88,58.35l-11.7,11.65h-.06l-11.67-11.62v-.06l11.7-11.65,11.73,11.68ZM93.74,58.29v.12l-11.64,11.59h-.06l-11.69-11.65,11.72-11.68s11.67,11.62,11.67,11.62ZM23.41,81.71l-11.67,11.62h-.12L0,81.78v-.12l11.67-11.62s11.73,11.68,11.73,11.68ZM70.32,81.68v.06l-11.64,11.59h-.12l-11.67-11.62,11.73-11.68,11.7,11.65ZM70.32,34.94v.06l-11.7,11.65-11.73-11.68,11.7-11.64h.06s11.67,11.61,11.67,11.61ZM23.41,34.97l-11.73,11.68L0,35.04v-.12l11.64-11.58h.06l11.7,11.64ZM93.74,11.57v.12l-11.67,11.62-11.72-11.68L82.01,0h.12l11.61,11.56h0ZM23.44,11.59L35.08,0h.12l11.67,11.62-11.73,11.68-11.7-11.65v-.06Z" style="fill:#7eb5d0;"/><path d="M23.41,58.35l-11.7,11.65h-.06L0,58.4v-.12l11.67-11.62,11.73,11.68h0ZM70.32,58.32v.06l-11.67,11.62h-.06l-11.7-11.65,11.73-11.68s11.7,11.65,11.7,11.65ZM93.74,81.65v.12l-11.61,11.56h-.12l-11.66-11.62,11.72-11.68,11.67,11.62ZM46.88,81.71l-11.67,11.62h-.12l-11.64-11.59v-.06l11.7-11.65s11.73,11.68,11.73,11.68ZM46.88,34.97l-11.73,11.68-11.7-11.65v-.06l11.67-11.61h.06s11.7,11.64,11.7,11.64ZM93.74,34.91v.12l-11.67,11.62-11.72-11.68,11.69-11.64h.06s11.64,11.58,11.64,11.58ZM0,11.68v-.12L11.61,0h.12l11.67,11.62-11.73,11.68L0,11.68ZM58.55,0h.12l11.64,11.59v.06l-11.7,11.65-11.73-11.68L58.55,0Z" style="fill:#f5f0e0;"/><path d="M23.44,58.32l-.03.03-11.73-11.68h11.77v11.65ZM23.41,58.35l-11.7,11.65h11.73v-11.62l-.03-.03ZM0,46.66v11.62l11.67-11.62H0ZM11.64,70H0v-11.59l11.64,11.59ZM70.32,46.66v11.65l-11.7-11.65h11.7ZM46.88,58.35v11.65h11.7l-11.7-11.65ZM46.88,46.66v11.68l11.73-11.68h-11.73ZM58.64,70h11.67v-11.62l-11.67,11.62ZM93.74,81.78v11.56h-11.61l11.61-11.56ZM82.1,70l-.03.03,11.67,11.62v-11.65h-11.64ZM82.04,70h-11.72v11.68l.03.03,11.72-11.68-.03-.03ZM70.32,81.74v11.59h11.69l-11.66-11.62-.03.03ZM46.88,81.71v11.62h-11.67l11.67-11.62ZM23.44,81.74v11.59h11.64s-11.64-11.59-11.64-11.59ZM35.17,70l-.03.03,11.73,11.68v-11.71h-11.7ZM35.11,70h-11.67v11.68l11.7-11.65-.03-.03ZM35.11,23.34l-11.67,11.61v-11.61s11.67,0,11.67,0ZM23.44,35.01v11.65h11.7l-11.7-11.65ZM35.17,23.34l11.7,11.64v-11.64s-11.7,0-11.7,0ZM35.14,46.66h11.73v-11.68l-11.73,11.68ZM93.74,35.04v11.62h-11.67s11.67-11.62,11.67-11.62ZM82.1,23.34l11.64,11.58v-11.58s-11.64,0-11.64,0ZM70.32,35.01v11.65h11.76l-11.72-11.68-.03.03ZM70.32,23.34v11.61l.03.03,11.69-11.64s-11.72,0-11.72,0ZM11.61,0L0,11.56V0h11.61ZM23.44,0h-11.7l11.67,11.62.03-.03s0-11.59,0-11.59ZM23.44,23.33v-11.68l-.03-.03-11.73,11.68.03.03s11.73,0,11.73,0ZM11.67,23.3L0,11.68v11.65h11.64s.03-.03.03-.03ZM58.64,23.33l-.03-.03,11.7-11.65v11.68h-11.67ZM58.58,23.33l.03-.03-11.73-11.68v11.71h11.7ZM46.88,0v11.62L58.55,0h-11.67ZM70.31,0h-11.64l11.64,11.59V0Z" style="fill:#6f4b52;"/><g style="clip-path:url(#i);"><rect x="93.51" y="-.24" width="94.53" height="94.11" style="fill:#f5f0e0;"/><path d="M133.51,93.35h-6.05c0-32.15,27.44-59.3,59.92-59.3v6.03c-28.69,0-53.86,24.89-53.86,53.27h0Z" style="fill:#6f4b52;"/><ellipse cx="187.11" cy="46.47" rx="13.07" ry="13.01" style="fill:#7eb5d0;"/><ellipse cx="187.11" cy="46.47" rx="9.34" ry="9.3" style="fill:#e1c57f;"/><ellipse cx="140.55" cy="92.96" rx="13.94" ry="13.88" style="fill:#7eb5d0;"/><ellipse cx="140.55" cy="92.96" rx="9.96" ry="9.92" style="fill:#e1c57f;"/><path d="M93.89,59.78v-6.03c28.98,0,54.41-25.06,54.41-53.62h6.05c0,31.78-28.26,59.65-60.48,59.65h.01Z" style="fill:#6f4b52;"/><ellipse cx="140.95" cy=".02" rx="13.11" ry="13.05" style="fill:#7eb5d0;"/><ellipse cx="140.95" cy=".02" rx="9.37" ry="9.33" style="fill:#e1c57f;"/><path d="M187.37,59.28c-32.48,0-59.92-27.15-59.92-59.3h6.05c0,28.38,25.17,53.27,53.86,53.27v6.03Z" style="fill:#6f4b52;"/><ellipse cx="94.69" cy="47.16" rx="13.58" ry="13.52" style="fill:#7eb5d0;"/><ellipse cx="94.69" cy="47.16" rx="9.7" ry="9.66" style="fill:#e1c57f;"/><path d="M154.35,93.2h-6.05c0-28.57-25.43-53.62-54.41-53.62v-6.03c32.22,0,60.48,27.87,60.48,59.65h-.01Z" style="fill:#6f4b52;"/><path d="M112.14,62.78c2.06-1.41,12.7-3.65,13.35-3.2,0,0-.48,11.35-3.1,14.06-1.96,2.02-2.54,1.19-14.12,6.65-1.55.74-3.74,1.81-5.64,3.66l-2.22-.25c1.1-.91,2.63-2.6,4.48-5.85,4.84-8.53,3.39-12.46,7.25-15.08h0Z" style="fill:#7eb5d0;"/><path d="M100.42,83.7l2.22.25c-.64.62-1.25,1.32-1.78,2.15-.58.9-1.32,2.02-1.61,3.65-.55,3.15.38,6.01.38,6.01l-8.19-.2.06-10.49s3.99.64,7.18-.38c.28-.09.87-.3,1.74-.99h-.01Z" style="fill:#7eb5d0;"/><path d="M101.54,90.73c-.92-.07-.24-5.28,5.77-8.02,8.56-3.9,10.81-.05,11.49,1.42,2.71,5.96-7.77,13.56-12.34,10.43-1.95-1.33,6.49-3.41,6.23-6.68-.13-1.65-.88-2.04-1.79-2.12-5.72-.44-7.79,5.08-9.35,4.95h-.01Z" style="fill:#567483;"/><path d="M93.08,82.31c-.07.92,5.21,1.05,8.85-4.45,5.19-7.82,1.72-10.63.36-11.52-5.5-3.59-14.66,5.55-12.26,10.53,1.02,2.12,4.38-5.86,7.59-5.1,1.62.38,1.9,1.19,1.82,2.09-.45,5.7-6.24,6.87-6.36,8.44Z" style="fill:#567483;"/><path d="M106.89,87.12s-.02,2.49-2.85,2.63c-1.71.07-9.84-8.8-8.84-10.3s1.64-2.26,2.82-1.7,8.45,7.45,8.88,9.37h-.01Z" style="fill:#e1c57f;"/><path d="M112.14,30.68c2.06,1.4,12.7,3.63,13.35,3.18,0,0-.48-11.33-3.1-14.05-1.96-2.02-2.54-1.19-14.12-6.67-1.55-.74-3.74-1.8-5.64-3.65l-2.22.25c1.1.9,2.63,2.59,4.48,5.84,4.84,8.54,3.39,12.48,7.25,15.09h0Z" style="fill:#7eb5d0;"/><path d="M100.42,9.74l2.22-.25c-.64-.62-1.25-1.34-1.78-2.16-.58-.88-1.32-2.01-1.61-3.65-.55-3.14.38-6,.38-6l-8.19.19.06,10.5s3.99-.65,7.18.38c.28.09.87.3,1.74.99h-.01Z" style="fill:#7eb5d0;"/><path d="M101.54,2.7c-.92.07-.24,5.28,5.77,8.02,8.56,3.9,10.81.05,11.49-1.42,2.71-5.96-7.77-13.56-12.34-10.43-1.95,1.33,6.49,3.41,6.23,6.68-.13,1.65-.88,2.04-1.79,2.12-5.72.44-7.79-5.08-9.35-4.95h-.01Z" style="fill:#567483;"/><path d="M93.08,11.14c-.07-.92,5.21-1.05,8.85,4.45,5.19,7.82,1.72,10.63.36,11.52-5.5,3.59-14.66-5.55-12.26-10.53,1.02-2.12,4.38,5.86,7.59,5.1,1.62-.38,1.9-1.19,1.82-2.09-.45-5.7-6.24-6.87-6.36-8.44Z" style="fill:#567483;"/><path d="M106.89,6.33s-.02-2.49-2.85-2.63c-1.71-.07-9.84,8.8-8.84,10.3s1.64,2.26,2.82,1.7,8.45-7.45,8.88-9.37h-.01Z" style="fill:#e1c57f;"/><path d="M166.99,30.68c-2.06,1.4-12.7,3.63-13.35,3.18,0,0,.46-11.33,3.1-14.05,1.96-2.02,2.54-1.19,14.12-6.67,1.55-.74,3.74-1.8,5.65-3.65l2.2.25c-1.1.9-2.63,2.59-4.48,5.84-4.84,8.54-3.39,12.48-7.25,15.09h.01Z" style="fill:#7eb5d0;"/><path d="M178.7,9.74l-2.2-.25c.64-.62,1.23-1.34,1.77-2.16.58-.88,1.32-2.01,1.61-3.65.55-3.14-.38-6-.38-6l8.19.19-.06,10.5s-3.99-.65-7.18.38c-.28.09-.87.3-1.74.99h0Z" style="fill:#7eb5d0;"/><path d="M177.58,2.7c.92.07.24,5.28-5.77,8.02-8.56,3.9-10.81.05-11.49-1.42-2.71-5.96,7.77-13.56,12.34-10.43,1.95,1.33-6.49,3.41-6.23,6.68.13,1.65.88,2.04,1.79,2.12,5.72.44,7.79-5.08,9.35-4.95h.01Z" style="fill:#567483;"/><path d="M186.04,11.14c.07-.92-5.21-1.05-8.85,4.45-5.19,7.82-1.72,10.63-.36,11.52,5.5,3.59,14.66-5.55,12.26-10.53-1.02-2.12-4.38,5.86-7.59,5.1-1.62-.38-1.9-1.19-1.82-2.09.45-5.7,6.24-6.87,6.36-8.44Z" style="fill:#567483;"/><path d="M172.24,6.33s.02-2.49,2.85-2.63c1.71-.07,9.84,8.8,8.84,10.3s-1.64,2.26-2.82,1.7-8.45-7.45-8.88-9.37h.01Z" style="fill:#e1c57f;"/><path d="M166.99,62.78c-2.06-1.41-12.7-3.65-13.35-3.2,0,0,.46,11.35,3.1,14.06,1.96,2.02,2.54,1.19,14.12,6.65,1.55.74,3.74,1.81,5.65,3.66l2.2-.25c-1.1-.91-2.63-2.6-4.48-5.85-4.84-8.53-3.39-12.46-7.25-15.08h.01Z" style="fill:#7eb5d0;"/><path d="M178.7,83.7l-2.2.25c.64.62,1.23,1.32,1.77,2.15.58.9,1.32,2.02,1.61,3.65.55,3.15-.38,6.01-.38,6.01l8.19-.2-.06-10.49s-3.99.64-7.18-.38c-.28-.09-.87-.3-1.74-.99h0Z" style="fill:#7eb5d0;"/><path d="M177.58,90.73c.92-.07.24-5.28-5.77-8.02-8.56-3.9-10.81-.05-11.49,1.42-2.71,5.96,7.77,13.56,12.34,10.43,1.95-1.33-6.49-3.41-6.23-6.68.13-1.65.88-2.04,1.79-2.12,5.72-.44,7.79,5.08,9.35,4.95h.01Z" style="fill:#567483;"/><path d="M186.04,82.31c.07.92-5.21,1.05-8.85-4.45-5.19-7.82-1.72-10.63-.36-11.52,5.5-3.59,14.66,5.55,12.26,10.53-1.02,2.12-4.38-5.86-7.59-5.1-1.62.38-1.9,1.19-1.82,2.09.45,5.7,6.24,6.87,6.36,8.44Z" style="fill:#567483;"/><path d="M172.24,87.12s.02,2.49,2.85,2.63c1.71.07,9.84-8.8,8.84-10.3s-1.64-2.26-2.82-1.7-8.45,7.45-8.88,9.37h.01Z" style="fill:#e1c57f;"/></g><rect x="187.51" width="93.75" height="93.33" style="fill:#f5f0e0;"/><g style="clip-path:url(#j);"><path d="M250.32,57.17v5.78h-5.22c-.31,5.53-4.89,9.92-10.52,9.92s-10.21-4.4-10.52-9.92h-4.98v-5.77c-.08,0-.17.01-.25.01-5.83,0-10.55-4.71-10.55-10.51s4.73-10.51,10.55-10.51c.08,0,.17.01.25.01v-5.88h4.99c.34-5.5,4.91-9.86,10.52-9.86s10.18,4.36,10.52,9.86h5.22v5.89c5.64.21,10.16,4.82,10.16,10.49s-4.51,10.28-10.16,10.49h-.01ZM174.11,9.5c.08,0,.17-.01.25-.01v5.77h4.98c.31,5.53,4.89,9.92,10.52,9.92s10.21-4.4,10.52-9.92h5.22v-5.78c5.64-.21,10.16-4.82,10.16-10.49s-4.51-10.28-10.16-10.49v-5.89h-5.22c-.34-5.5-4.91-9.86-10.52-9.86s-10.18,4.36-10.52,9.86h-4.99v5.88c-.08,0-.17-.01-.25-.01-5.83,0-10.55,4.71-10.55,10.51s4.73,10.51,10.55,10.51h.01ZM263.16,9.49v5.78h5.22c.31,5.53,4.89,9.92,10.52,9.92s10.21-4.4,10.52-9.92h4.98v-5.77c.08,0,.17.01.25.01,5.83,0,10.55-4.71,10.55-10.51s-4.73-10.51-10.55-10.51c-.08,0-.17.01-.25.01v-5.88h-4.99c-.34-5.5-4.91-9.86-10.52-9.86s-10.18,4.36-10.52,9.86h-5.22v5.89c-5.64.21-10.16,4.82-10.16,10.49s4.51,10.28,10.16,10.49h.01ZM205.6,83.84v-5.78h-5.22c-.31-5.53-4.89-9.92-10.52-9.92s-10.21,4.4-10.52,9.92h-4.98v5.77c-.08,0-.17-.01-.25-.01-5.83,0-10.55,4.71-10.55,10.51s4.73,10.51,10.55,10.51c.08,0,.17-.01.25-.01v5.88h4.99c.34,5.5,4.91,9.86,10.52,9.86s10.18-4.36,10.52-9.86h5.22v-5.89c5.64-.21,10.16-4.82,10.16-10.49s-4.51-10.28-10.16-10.49h-.01ZM294.65,83.82c-.08,0-.17.01-.25.01v-5.77h-4.98c-.31-5.53-4.89-9.92-10.52-9.92s-10.21,4.4-10.52,9.92h-5.22v5.78c-5.64.21-10.16,4.82-10.16,10.49s4.51,10.28,10.16,10.49v5.89h5.22c.34,5.5,4.91,9.86,10.52,9.86s10.18-4.36,10.52-9.86h4.99v-5.88c.08,0,.17.01.25.01,5.83,0,10.55-4.71,10.55-10.51s-4.73-10.51-10.55-10.51h-.01Z" style="fill:#7eb5d0;"/><path d="M237.19.12c0,1.67-1.36,3.02-3.04,3.02s-3.04-1.35-3.04-3.02,1.36-3.02,3.04-3.02,3.04,1.35,3.04,3.02ZM187.53,43.82c-1.68,0-3.04,1.35-3.04,3.02s1.36,3.02,3.04,3.02,3.04-1.35,3.04-3.02-1.36-3.02-3.04-3.02ZM281.08,43.82c-1.68,0-3.04,1.35-3.04,3.02s1.36,3.02,3.04,3.02,3.04-1.35,3.04-3.02-1.36-3.02-3.04-3.02ZM234.15,90.24c-1.68,0-3.04,1.35-3.04,3.02s1.36,3.02,3.04,3.02,3.04-1.35,3.04-3.02-1.36-3.02-3.04-3.02Z" style="fill:#7eb5d0;"/><path d="M231.05,4.36c0,.73-.6,1.33-1.34,1.33s-1.34-.6-1.34-1.33.6-1.33,1.34-1.33,1.34.6,1.34,1.33ZM229.73-5.4c-.74,0-1.34.6-1.34,1.33s.6,1.33,1.34,1.33,1.34-.6,1.34-1.33-.6-1.33-1.34-1.33ZM247.53,10.9c.29-.1.6-.18.83-.38.96-.85.83-2.12.38-2.44-.4-.29-1.25,1.5-3.24,1.18-.61-.09-1.35-.78-1.74-.35-.5.57.51,1.39.6,2.19.18,1.4-.9,2.08-.89,2.65,0,.35,1.55.71,2.19-.34.07-.12.26-.58.3-.71.61,1.33,2.85,1.63,3.22,1.5.17-.38,0-2.32-1.65-3.3h0ZM245.95-12.41c-.04-.13-.23-.59-.3-.71-.63-1.05-2.18-.69-2.19-.34-.01.57,1.07,1.25.89,2.65-.1.79-1.1,1.62-.6,2.19.39.44,1.13-.25,1.74-.35,1.99-.31,2.84,1.48,3.24,1.18.45-.32.58-1.59-.38-2.44-.24-.21-.55-.27-.83-.38,1.66-.98,1.82-2.92,1.65-3.3-.38-.14-2.61.17-3.22,1.5h0ZM239.05-9c-.77,1.41,1.83,2.82,3.22.59.57-.91.89-6.57-4.41-5.78,0,0,3.08,1.71,1.18,5.19ZM243.56-7c-2.4,1.07-1.35,3.84.16,3.26,3.72-1.41,5.02,1.86,5.02,1.86,1.49-5.12-4.2-5.55-5.17-5.12h0ZM237.86,14.48c5.3.78,4.98-4.88,4.41-5.78-1.39-2.23-4-.83-3.22.59,1.91,3.48-1.18,5.19-1.18,5.19ZM248.73,2.17s-1.3,3.27-5.02,1.86c-1.5-.58-2.56,2.19-.16,3.26.97.43,6.67,0,5.17-5.12h0ZM238.95,5.69c.74,0,1.34-.6,1.34-1.33s-.6-1.33-1.34-1.33-1.34.6-1.34,1.33.6,1.33,1.34,1.33ZM229.63-9c-1.91-3.48,1.18-5.19,1.18-5.19-5.3-.78-4.98,4.88-4.41,5.78,1.39,2.23,4,.83,3.22-.59ZM226.4,8.7c-.57.91-.89,6.57,4.41,5.78,0,0-3.08-1.71-1.18-5.19.77-1.41-1.83-2.82-3.22-.59ZM222.72,12.7c.04.13.23.59.3.71.63,1.05,2.18.69,2.19.34.01-.57-1.07-1.25-.89-2.65.1-.79,1.1-1.62.6-2.19-.39-.44-1.13.25-1.74.35-1.99.31-2.84-1.48-3.24-1.18-.45.32-.58,1.59.38,2.44.24.21.55.27.83.38-1.66.98-1.82,2.92-1.65,3.3.38.14,2.61-.17,3.22-1.5h0ZM221.14-10.61c-.29.1-.6.18-.83.38-.96.85-.83,2.12-.38,2.44.4.29,1.25-1.5,3.24-1.18.61.09,1.35.78,1.74.35.5-.57-.51-1.39-.6-2.19-.18-1.4.9-2.08.89-2.65,0-.35-1.55-.71-2.19.34-.07.12-.26.58-.3.71-.61-1.33-2.85-1.63-3.22-1.5-.17.38,0,2.32,1.65,3.3h0ZM219.94-1.88s1.3-3.27,5.02-1.86c1.5.58,2.56-2.19.16-3.26-.97-.43-6.67,0-5.17,5.12h0ZM224.96,4.02c-3.72,1.41-5.02-1.86-5.02-1.86-1.49,5.12,4.2,5.55,5.17,5.12,2.4-1.07,1.35-3.84-.16-3.26h0ZM238.95-2.75c.74,0,1.34-.6,1.34-1.33s-.6-1.33-1.34-1.33-1.34.6-1.34,1.33.6,1.33,1.34,1.33ZM189.58,32.32s3.29,1.29,1.87,4.99c-.58,1.5,2.2,2.55,3.28.15.44-.97,0-6.64-5.14-5.15ZM174.93,35.09c-.13.04-.59.23-.72.3-1.06.63-.69,2.17-.34,2.18.57.01,1.25-1.06,2.66-.89.8.1,1.63,1.09,2.2.6.45-.39-.25-1.12-.35-1.73-.31-1.98,1.48-2.83,1.18-3.23-.32-.44-1.6-.58-2.45.38-.21.24-.27.55-.38.83-.98-1.65-2.93-1.82-3.32-1.64-.15.38.17,2.6,1.5,3.21h.01ZM196.14,38.75c-2.24,1.38-.83,3.98.59,3.21,3.49-1.9,5.21,1.18,5.21,1.18.79-5.27-4.9-4.95-5.81-4.39ZM191.44,55.99c1.42,3.7-1.87,4.99-1.87,4.99,5.14,1.49,5.58-4.18,5.14-5.15-1.08-2.39-3.86-1.34-3.28.15ZM196.73,51.34c-1.42-.76-2.83,1.83-.59,3.21.91.57,6.6.89,5.81-4.39,0,0-1.72,3.07-5.21,1.18ZM191.78,52.57c.74,0,1.34-.6,1.34-1.33s-.6-1.33-1.34-1.33-1.34.6-1.34,1.33.6,1.33,1.34,1.33ZM200.16,58.21c.13-.04.59-.23.72-.3,1.06-.63.69-2.17.34-2.18-.57-.01-1.25,1.06-2.66.89-.8-.1-1.63-1.09-2.2-.6-.45.39.25,1.12.35,1.73.31,1.98-1.48,2.83-1.18,3.23.32.44,1.6.58,2.45-.38.21-.24.27-.55.38-.83.98,1.65,2.93,1.82,3.32,1.64.15-.38-.17-2.6-1.5-3.21h-.01ZM191.78,43.38c.74,0,1.34-.6,1.34-1.33s-.6-1.33-1.34-1.33-1.34.6-1.34,1.33.6,1.33,1.34,1.33ZM196.71,35.54c-.09.61-.79,1.34-.35,1.73.57.5,1.4-.51,2.2-.6,1.41-.18,2.09.9,2.66.89.35,0,.72-1.55-.34-2.18-.12-.07-.58-.26-.72-.3,1.34-.61,1.64-2.84,1.5-3.21-.38-.17-2.33,0-3.32,1.64-.1-.29-.18-.6-.38-.83-.85-.96-2.13-.83-2.45-.38-.29.4,1.5,1.25,1.18,3.23h.01ZM180.37,37.47c1.08,2.39,3.86,1.34,3.28-.15-1.42-3.7,1.87-4.99,1.87-4.99-5.14-1.49-5.58,4.18-5.14,5.15ZM178.36,51.34c-3.49,1.9-5.21-1.18-5.21-1.18-.79,5.27,4.9,4.95,5.81,4.39,2.24-1.38.83-3.98-.59-3.21ZM178.38,57.76c.09-.61.79-1.34.35-1.73-.57-.5-1.4.51-2.2.6-1.41.18-2.09-.9-2.66-.89-.35,0-.72,1.55.34,2.18.12.07.58.26.72.3-1.34.61-1.64,2.84-1.5,3.21.38.17,2.33,0,3.32-1.64.1.29.18.6.38.83.85.96,2.13.83,2.45.38.29-.4-1.5-1.25-1.18-3.23h-.01ZM178.95,38.75c-.91-.57-6.6-.89-5.81,4.39,0,0,1.72-3.07,5.21-1.18,1.42.76,2.83-1.83.59-3.21ZM183.65,55.99c.58-1.5-2.2-2.55-3.28-.15-.44.97,0,6.64,5.14,5.15,0,0-3.29-1.29-1.87-4.99ZM183.32,43.38c.74,0,1.34-.6,1.34-1.33s-.6-1.33-1.34-1.33-1.34.6-1.34,1.33.6,1.33,1.34,1.33ZM183.32,52.57c.74,0,1.34-.6,1.34-1.33s-.6-1.33-1.34-1.33-1.34.6-1.34,1.33.6,1.33,1.34,1.33ZM293.68,58.21c.13-.04.59-.23.72-.3,1.06-.63.69-2.17.34-2.18-.57-.01-1.25,1.06-2.66.89-.8-.1-1.63-1.09-2.2-.6-.45.39.25,1.12.35,1.73.31,1.98-1.48,2.83-1.18,3.23.32.44,1.6.58,2.45-.38.21-.24.27-.55.38-.83.98,1.65,2.93,1.82,3.32,1.64.15-.38-.17-2.6-1.5-3.21h-.01ZM273.89,37.47c1.08,2.39,3.86,1.34,3.28-.15-1.42-3.7,1.87-4.99,1.87-4.99-5.14-1.49-5.58,4.18-5.14,5.15ZM284.95,55.99c1.42,3.7-1.87,4.99-1.87,4.99,5.14,1.49,5.58-4.18,5.14-5.15-1.08-2.39-3.86-1.34-3.28.15ZM276.82,52.57c.74,0,1.34-.6,1.34-1.33s-.6-1.33-1.34-1.33-1.34.6-1.34,1.33.6,1.33,1.34,1.33ZM285.29,52.57c.74,0,1.34-.6,1.34-1.33s-.6-1.33-1.34-1.33-1.34.6-1.34,1.33.6,1.33,1.34,1.33ZM276.82,43.38c.74,0,1.34-.6,1.34-1.33s-.6-1.33-1.34-1.33-1.34.6-1.34,1.33.6,1.33,1.34,1.33ZM285.29,43.38c.74,0,1.34-.6,1.34-1.33s-.6-1.33-1.34-1.33-1.34.6-1.34,1.33.6,1.33,1.34,1.33ZM290.23,51.34c-1.42-.76-2.83,1.83-.59,3.21.91.57,6.6.89,5.81-4.39,0,0-1.72,3.07-5.21,1.18ZM283.09,32.32s3.29,1.29,1.87,4.99c-.58,1.5,2.2,2.55,3.28.15.44-.97,0-6.64-5.14-5.15ZM271.9,57.76c.09-.61.79-1.34.35-1.73-.57-.5-1.4.51-2.2.6-1.41.18-2.09-.9-2.66-.89-.35,0-.72,1.55.34,2.18.12.07.58.26.72.3-1.34.61-1.64,2.84-1.5,3.21.38.17,2.33,0,3.32-1.64.1.29.18.6.38.83.85.96,2.13.83,2.45.38.29-.4-1.5-1.25-1.18-3.23h-.01ZM277.16,55.99c.58-1.5-2.2-2.55-3.28-.15-.44.97,0,6.64,5.14,5.15,0,0-3.29-1.29-1.87-4.99ZM290.22,35.54c-.09.61-.79,1.34-.35,1.73.57.5,1.4-.51,2.2-.6,1.41-.18,2.09.9,2.66.89.35,0,.72-1.55-.34-2.18-.12-.07-.58-.26-.72-.3,1.34-.61,1.64-2.84,1.5-3.21-.38-.17-2.33,0-3.32,1.64-.1-.29-.18-.6-.38-.83-.85-.96-2.13-.83-2.45-.38-.29.4,1.5,1.25,1.18,3.23h.01ZM268.45,35.09c-.13.04-.59.23-.72.3-1.06.63-.69,2.17-.34,2.18.57.01,1.25-1.06,2.66-.89.8.1,1.63,1.09,2.2.6.45-.39-.25-1.12-.35-1.73-.31-1.98,1.48-2.83,1.18-3.23-.32-.44-1.6-.58-2.45.38-.21.24-.27.55-.38.83-.98-1.65-2.93-1.82-3.32-1.64-.15.38.17,2.6,1.5,3.21h.01ZM290.23,41.97c3.49-1.9,5.21,1.18,5.21,1.18.79-5.27-4.9-4.95-5.81-4.39-2.24,1.38-.83,3.98.59,3.21ZM272.47,38.75c-.91-.57-6.6-.89-5.81,4.39,0,0,1.72-3.07,5.21-1.18,1.42.76,2.83-1.83.59-3.21ZM271.88,51.34c-3.49,1.9-5.21-1.18-5.21-1.18-.79,5.27,4.9,4.95,5.81,4.39,2.24-1.38.83-3.98-.59-3.21ZM243.71,89.36c3.72-1.41,5.02,1.86,5.02,1.86,1.49-5.12-4.2-5.55-5.17-5.12-2.4,1.07-1.35,3.84.16,3.26h0ZM242.27,84.69c.57-.91.89-6.57-4.41-5.78,0,0,3.08,1.71,1.18,5.19-.77,1.41,1.83,2.82,3.22.59ZM238.95,90.35c.74,0,1.34-.6,1.34-1.33s-.6-1.33-1.34-1.33-1.34.6-1.34,1.33.6,1.33,1.34,1.33ZM247.53,103.98c.29-.1.6-.18.83-.38.96-.85.83-2.12.38-2.44-.4-.29-1.25,1.5-3.24,1.18-.61-.09-1.35-.78-1.74-.35-.5.57.51,1.39.6,2.19.18,1.4-.9,2.08-.89,2.65,0,.35,1.55.71,2.19-.34.07-.12.26-.58.3-.71.61,1.33,2.85,1.63,3.22,1.5.17-.38,0-2.32-1.65-3.3h0ZM229.73,96.12c-.74,0-1.34.6-1.34,1.33s.6,1.33,1.34,1.33,1.34-.6,1.34-1.33-.6-1.33-1.34-1.33ZM239.05,102.37c1.91,3.48-1.18,5.19-1.18,5.19,5.3.78,4.98-4.88,4.41-5.78-1.39-2.23-4-.83-3.22.59ZM229.73,87.7c-.74,0-1.34.6-1.34,1.33s.6,1.33,1.34,1.33,1.34-.6,1.34-1.33-.6-1.33-1.34-1.33ZM238.95,98.77c.74,0,1.34-.6,1.34-1.33s-.6-1.33-1.34-1.33-1.34.6-1.34,1.33.6,1.33,1.34,1.33ZM245.95,80.68c-.04-.13-.23-.59-.3-.71-.63-1.05-2.18-.69-2.19-.34-.01.57,1.07,1.25.89,2.65-.1.79-1.1,1.62-.6,2.19.39.44,1.13-.25,1.74-.35,1.99-.31,2.84,1.48,3.24,1.18.45-.32.58-1.59-.38-2.44-.24-.21-.55-.27-.83-.38,1.66-.98,1.82-2.92,1.65-3.3-.38-.14-2.61.17-3.22,1.5h0ZM248.73,95.26s-1.3,3.27-5.02,1.86c-1.5-.58-2.56,2.19-.16,3.26.97.43,6.67,0,5.17-5.12h0ZM230.81,78.9c-5.3-.78-4.98,4.88-4.41,5.78,1.39,2.23,4,.83,3.22-.59-1.91-3.48,1.18-5.19,1.18-5.19ZM229.63,102.37c.77-1.41-1.83-2.82-3.22-.59-.57.91-.89,6.57,4.41,5.78,0,0-3.08-1.71-1.18-5.19ZM219.94,91.22s1.3-3.27,5.02-1.86c1.5.58,2.56-2.19.16-3.26-.97-.43-6.67,0-5.17,5.12h0ZM221.14,82.49c-.29.1-.6.18-.83.38-.96.85-.83,2.12-.38,2.44.4.29,1.25-1.5,3.24-1.18.61.09,1.35.78,1.74.35.5-.57-.51-1.39-.6-2.19-.18-1.4.9-2.08.89-2.65,0-.35-1.55-.71-2.19.34-.07.12-.26.58-.3.71-.61-1.33-2.85-1.63-3.22-1.5-.17.38,0,2.32,1.65,3.3h0ZM224.32,104.2c.1-.79,1.1-1.62.6-2.19-.39-.44-1.13.25-1.74.35-1.99.31-2.84-1.48-3.24-1.18-.45.32-.58,1.59.38,2.44.24.21.55.27.83.38-1.66.98-1.82,2.92-1.65,3.3.38.14,2.61-.17,3.22-1.5.04.13.23.59.3.71.63,1.05,2.18.69,2.19.34.01-.57-1.07-1.25-.89-2.65h0ZM224.96,97.11c-3.72,1.41-5.02-1.86-5.02-1.86-1.49,5.12,4.2,5.55,5.17,5.12,2.4-1.07,1.35-3.84-.16-3.26h0Z" style="fill:#6f4b52;"/><path d="M308.3-18.11v-13.46h-13.52v11.29h-2.87c-1.63-5.64-6.87-9.75-13-9.75s-11.36,4.1-13,9.75h-2.4v-11.29h-13.52v13.46h10.25v4.1c-5.83,1.53-10.04,6.77-10.04,13.01s4.23,11.5,10.04,13.01v4.05h-10.25v.05h0v11.29h-2.4c-1.63-5.64-6.87-9.75-13-9.75s-11.36,4.1-13,9.75h-2.8v-11.34h-10.25v-4.05c5.83-1.53,10.04-6.77,10.04-13.01s-4.23-11.5-10.04-13.01v-4.1h10.25v-13.46h-13.52v11.29h-2.4c-1.63-5.64-6.87-9.75-13-9.75s-11.36,4.1-13,9.75h-2.87v-11.29h-13.52v13.46h10.97v3.94c-6.1,1.31-10.69,6.72-10.69,13.18s4.58,11.87,10.69,13.18v3.89h-10.97v13.47h13.52v-11.36h2.85c1.61,5.69,6.85,9.81,13.02,9.81s11.41-4.13,13.02-9.81h2.31v11.4h10.97v3.94c-6.1,1.31-10.69,6.72-10.69,13.18s4.58,11.87,10.69,13.18v3.89h-10.97v11.4h-2.31c-1.61-5.69-6.85-9.81-13.02-9.81s-11.41,4.13-13.02,9.81h-2.85v-11.36h-13.52v13.46h10.97v3.89c-6.1,1.31-10.69,6.72-10.69,13.18s4.58,11.87,10.69,13.18v3.94h-10.97v13.46h13.52v-11.29h2.87c1.63,5.64,6.87,9.75,13,9.75s11.36-4.1,13-9.75h2.4v11.29h13.52v-13.46h-10.25v-4.1c5.83-1.53,10.04-6.77,10.04-13.01s-4.23-11.5-10.04-13.01v-4.05h10.25v-11.4h2.78c1.61,5.69,6.85,9.81,13.02,9.81s11.41-4.13,13.02-9.81h2.38v11.36h0v.04h10.25v4.05c-5.83,1.53-10.04,6.77-10.04,13.01s4.23,11.5,10.04,13.01v4.1h-10.25v13.46h13.52v-11.29h2.4c1.63,5.64,6.87,9.75,13,9.75s11.36-4.1,13-9.75h2.87v11.29h13.52v-13.46h-10.97v-3.94c6.1-1.31,10.69-6.72,10.69-13.18s-4.58-11.87-10.69-13.18v-3.89h10.97v-13.46h-13.52v11.36h-2.85c-1.61-5.69-6.85-9.81-13.02-9.81s-11.41,4.13-13.02,9.81h-2.38v-11.36h0v-.04h-10.25v-4.05c5.83-1.53,10.04-6.77,10.04-13.01s-4.23-11.5-10.04-13.01v-4.1h10.25v-.05h0v-11.36h2.38c1.61,5.69,6.85,9.81,13.02,9.81s11.41-4.13,13.02-9.81h2.85v11.36h13.52v-13.47h-10.97v-3.89c6.1-1.31,10.69-6.72,10.69-13.18s-4.58-11.87-10.69-13.18v-3.94h10.97ZM297.8-28.56h7.46v7.43h-7.46s0-7.43,0-7.43ZM170.95-21.12h-7.46v-7.43h7.46s0,7.43,0,7.43ZM170.95,26.52h-7.46v-7.43h7.46v7.43ZM170.95,74.25h-7.46v-7.43h7.46v7.43ZM170.95,121.89h-7.46v-7.43h7.46v7.43ZM297.8,114.46h7.46v7.43h-7.46v-7.43ZM297.8,66.81h7.46v7.43h-7.46v-7.43ZM297.8,19.08h7.46v7.43h-7.46s0-7.43,0-7.43ZM253.01-21.12v-7.43h7.46v7.43s-7.46,0-7.46,0ZM253.01,26.52v-7.39h7.45v7.39h-7.45ZM208.28,26.52v-7.39h7.39v7.39h-7.39ZM208.28-28.56h7.46v7.43h-7.46s0-7.43,0-7.43ZM200.58,15.16l-.62,2.2c-1.26,4.48-5.42,7.62-10.1,7.62s-8.83-3.13-10.11-7.62l-.62-2.2h-4.68v-5.42l-2.39-.52c-4.8-1.03-8.29-5.34-8.29-10.23s3.48-9.2,8.29-10.23l2.39-.52v-5.53h4.69l.63-2.18c1.29-4.46,5.43-7.56,10.09-7.56s8.8,3.11,10.09,7.56l.63,2.18h4.92v5.58l2.26.59c4.58,1.2,7.79,5.36,7.79,10.1s-3.2,8.9-7.79,10.1l-2.26.59v5.46h-4.92,0ZM215.67,74.2h-7.39v-7.39h7.39s0,7.39,0,7.39ZM215.74,114.46v7.43h-7.46v-7.43h7.46ZM215.55,94.32c0,4.75-3.2,8.9-7.79,10.1l-2.26.59v5.58h-4.92l-.63,2.18c-1.29,4.46-5.43,7.56-10.09,7.56s-8.8-3.11-10.09-7.56l-.63-2.18h-4.69v-5.53l-2.39-.52c-4.8-1.03-8.29-5.34-8.29-10.23s3.48-9.2,8.29-10.23l2.39-.52v-5.42h4.68l.62-2.2c1.26-4.49,5.42-7.62,10.11-7.62s8.83,3.13,10.1,7.62l.62,2.2h4.92v5.46l2.26.59c4.58,1.2,7.79,5.36,7.79,10.1h0ZM260.46,74.2h-7.45v-7.39h7.45s0,7.39,0,7.39ZM260.47,121.89h-7.46v-7.43h7.46v7.43ZM265.88,78.17h2.29l.62-2.2c1.26-4.48,5.42-7.62,10.1-7.62s8.83,3.13,10.11,7.62l.62,2.2h4.68v5.42l2.39.52c4.8,1.03,8.29,5.34,8.29,10.23s-3.48,9.2-8.29,10.23l-2.39.52v5.53h-4.69l-.63,2.18c-1.29,4.46-5.43,7.56-10.09,7.56s-8.8-3.11-10.09-7.56l-.63-2.18h-4.92v-5.58l-2.26-.59c-4.58-1.2-7.79-5.36-7.79-10.1s3.2-8.9,7.79-10.1l2.26-.59v-5.46h2.63,0ZM260.27,46.7c0,4.75-3.2,8.9-7.79,10.1l-2.26.59v5.46h-4.92l-.62,2.2c-1.26,4.48-5.42,7.62-10.1,7.62s-8.83-3.13-10.11-7.62l-.62-2.2h-4.68v-5.42l-2.39-.52c-4.8-1.03-8.29-5.34-8.29-10.23s3.48-9.2,8.29-10.23l2.39-.52v-5.53h4.69l.63-2.18c1.29-4.46,5.43-7.56,10.09-7.56s8.8,3.11,10.09,7.56l.63,2.18h4.92v5.58l2.26.59c4.58,1.2,7.79,5.36,7.79,10.1h0ZM304.99-.99c0,4.89-3.48,9.2-8.29,10.23l-2.39.52v5.42h-4.68l-.62,2.2c-1.26,4.49-5.42,7.62-10.11,7.62s-8.83-3.13-10.1-7.62l-.62-2.2h-4.92v-5.46l-2.26-.59c-4.58-1.2-7.79-5.36-7.79-10.1s3.2-8.9,7.79-10.1l2.26-.59v-5.58h4.92l.63-2.18c1.29-4.46,5.43-7.56,10.09-7.56s8.8,3.11,10.09,7.56l.63,2.18h4.69v5.53l2.39.52c4.8,1.03,8.29,5.34,8.29,10.23h0Z" style="fill:#6f4b52;"/><path d="M238.04,62.77c.24.25-.59,1.6-1.78,1.3-.15-.04-.59-.23-.72-.29.51,1.37-.85,3.16-1.22,3.32-.39-.14-1.66-1.64-1.18-3.5-.28.12-.55.3-.86.32-1.29.08-2.08-.91-2-1.44.08-.5,1.95.17,3.13-1.46.36-.5.39-1.51.98-1.48.75.05.63,1.34,1.12,1.97.87,1.11,2.13.84,2.52,1.25h.01ZM237.99,56.49c-.46-1.54-3.3-.7-2.71,1.86.24,1.03,4.04,5.27,7.23.99,0,0-3.4.96-4.52-2.85ZM246.02,47.68c-2.56-.59-3.41,2.24-1.87,2.69,3.83,1.12,2.86,4.5,2.86,4.5,4.3-3.17.05-6.96-1-7.19h0ZM235.22,35.17c-.93,2.46,1.77,3.66,2.43,2.2,1.63-3.62,4.86-2.22,4.86-2.22-2.58-4.66-6.91-.98-7.29.02ZM233.38,58.26c.93-2.46-1.77-3.66-2.43-2.2-1.63,3.62-4.86,2.22-4.86,2.22,2.58,4.66,6.91.98,7.29-.02ZM245.93,45.77c1-.38,4.71-4.69.02-7.25,0,0,1.41,3.22-2.23,4.84-1.47.66-.25,3.34,2.21,2.41h0ZM228.22,46.69c0,3.34,2.72,6.05,6.07,6.05s6.07-2.7,6.07-6.05-2.72-6.05-6.07-6.05-6.07,2.7-6.07,6.05ZM230.61,36.93c.46,1.54,3.3.7,2.71-1.86-.24-1.03-4.04-5.27-7.23-.99,0,0,3.4-.96,4.52,2.85ZM233.08,31.91c.49.63.37,1.92,1.12,1.97.59.04.62-.97.98-1.48,1.18-1.62,3.06-.96,3.13-1.46.08-.54-.72-1.53-2-1.44-.31.02-.58.2-.86.32.48-1.86-.79-3.34-1.18-3.5-.36.17-1.73,1.96-1.22,3.32-.12-.06-.57-.26-.72-.29-1.19-.3-2.03,1.04-1.78,1.3.39.41,1.65.12,2.52,1.25h.01ZM222.66,45.71c2.56.59,3.41-2.24,1.87-2.69-3.83-1.12-2.86-4.5-2.86-4.5-4.3,3.17-.05,6.96,1,7.19h0ZM251.3,45.53c.12-.28.3-.55.32-.86.08-1.28-.91-2.07-1.45-1.99-.5.08.17,1.94-1.46,3.12-.5.36-1.51.39-1.48.98.05.74,1.35.63,1.98,1.11,1.12.87.84,2.12,1.25,2.51.25.24,1.61-.59,1.31-1.78-.04-.14-.23-.59-.29-.71,1.38.51,3.17-.85,3.34-1.22-.15-.39-1.65-1.65-3.51-1.18h0ZM222.74,47.61c-1,.38-4.71,4.69-.02,7.25,0,0-1.41-3.22,2.23-4.84,1.47-.66.25-3.34-2.21-2.41h0ZM221.44,46.59c-.05-.74-1.35-.63-1.98-1.11-1.12-.87-.84-2.12-1.25-2.51-.25-.24-1.61.59-1.31,1.78.04.14.23.59.29.71-1.38-.51-3.17.85-3.34,1.22.15.39,1.65,1.65,3.51,1.18-.12.28-.3.55-.32.86-.08,1.28.91,2.07,1.45,1.99.5-.08-.17-1.94,1.46-3.12.5-.36,1.51-.39,1.48-.98h0ZM188.36-15.78c.49.63.37,1.92,1.12,1.97.59.04.62-.97.98-1.48,1.18-1.62,3.06-.96,3.13-1.46.08-.54-.72-1.53-2-1.44-.31.02-.58.2-.86.32.48-1.86-.79-3.34-1.18-3.5-.36.17-1.73,1.96-1.22,3.32-.12-.06-.57-.26-.72-.29-1.19-.3-2.03,1.04-1.78,1.3.39.41,1.65.12,2.52,1.25h.01ZM201.21-1.92c1-.38,4.71-4.69.02-7.25,0,0,1.41,3.22-2.23,4.84-1.47.66-.25,3.34,2.21,2.41h0ZM206.58-2.16c.12-.28.3-.55.32-.86.08-1.28-.91-2.07-1.45-1.99-.5.08.17,1.94-1.46,3.12-.5.36-1.51.39-1.48.98.05.74,1.35.63,1.98,1.11,1.12.87.84,2.12,1.25,2.51.25.24,1.61-.59,1.31-1.78-.04-.14-.23-.59-.29-.71,1.38.51,3.17-.85,3.34-1.22-.15-.39-1.65-1.65-3.51-1.18h0ZM201.3-.01c-2.56-.59-3.41,2.24-1.87,2.69,3.83,1.12,2.86,4.5,2.86,4.5,4.3-3.17.05-6.96-1-7.19h0ZM193.27,8.8c-.46-1.54-3.3-.7-2.71,1.86.24,1.03,4.04,5.27,7.23.99,0,0-3.4.96-4.52-2.85ZM193.32,15.08c-.39-.41-1.65-.12-2.52-1.25-.49-.63-.37-1.92-1.12-1.97-.59-.04-.62.97-.98,1.48-1.18,1.62-3.06.96-3.13,1.46-.08.54.72,1.53,2,1.44.31-.02.58-.2.86-.32-.48,1.86.79,3.34,1.18,3.5.36-.17,1.73-1.96,1.22-3.32.12.06.57.26.72.29,1.19.3,2.03-1.04,1.78-1.3h-.01ZM190.5-12.52c-.93,2.46,1.77,3.66,2.43,2.2,1.63-3.62,4.86-2.22,4.86-2.22-2.58-4.66-6.91-.98-7.29.02ZM172.65.17c-.12.28-.3.55-.32.86-.08,1.28.91,2.07,1.45,1.99.5-.08-.17-1.94,1.46-3.12.5-.36,1.51-.39,1.48-.98-.05-.74-1.35-.63-1.98-1.11-1.12-.87-.84-2.12-1.25-2.51-.25-.24-1.61.59-1.31,1.78.04.14.23.59.29.71-1.38-.51-3.17.85-3.34,1.22.15.39,1.65,1.65,3.51,1.18h0ZM178.02-.08c-1,.38-4.71,4.69-.02,7.25,0,0-1.41-3.22,2.23-4.84,1.47-.66.25-3.34-2.21-2.41h0ZM177.93-1.98c2.56.59,3.41-2.24,1.87-2.69-3.83-1.12-2.86-4.5-2.86-4.5-4.3,3.17-.05,6.96,1,7.19h0ZM188.66,10.57c.93-2.46-1.77-3.66-2.43-2.2-1.63,3.62-4.86,2.22-4.86,2.22,2.58,4.66,6.91.98,7.29-.02ZM195.65-1c0-3.34-2.72-6.05-6.07-6.05s-6.07,2.7-6.07,6.05,2.72,6.05,6.07,6.05,6.07-2.7,6.07-6.05ZM185.89-10.75c.46,1.54,3.3.7,2.71-1.86-.24-1.03-4.04-5.27-7.23-.99,0,0,3.4-.96,4.52,2.85ZM280.17-12.61c-.59,2.55,2.25,3.4,2.71,1.86,1.13-3.81,4.52-2.85,4.52-2.85-3.18-4.28-6.99-.05-7.23.99h0ZM275.83-10.32c.66,1.47,3.36.25,2.43-2.2-.38-.99-4.71-4.69-7.29-.02,0,0,3.23-1.4,4.86,2.22ZM262.01.23c-.06.12-.26.57-.29.71-.3,1.19,1.05,2.02,1.31,1.78.41-.39.12-1.64,1.25-2.51.63-.49,1.93-.37,1.98-1.11.04-.59-.97-.62-1.48-.98-1.63-1.18-.96-3.04-1.46-3.12-.54-.08-1.53.71-1.45,1.99.02.31.2.58.32.86-1.87-.47-3.36.78-3.51,1.18.17.36,1.97,1.72,3.34,1.22h0ZM280.07,13.33c-.36-.5-.39-1.51-.98-1.48-.75.05-.63,1.34-1.12,1.97-.87,1.11-2.13.84-2.52,1.25-.24.25.59,1.6,1.78,1.3.15-.04.59-.23.72-.29-.51,1.37.85,3.16,1.22,3.32.39-.14,1.66-1.64,1.18-3.5.28.12.55.3.86.32,1.29.08,2.08-.91,2-1.44-.08-.5-1.95.17-3.13-1.46h-.01ZM278.19,10.66c.59-2.55-2.25-3.4-2.71-1.86-1.13,3.81-4.52,2.85-4.52,2.85,3.18,4.28,6.99.05,7.23-.99h0ZM285.25-1c0-3.34-2.72-6.05-6.07-6.05s-6.07,2.7-6.07,6.05,2.72,6.05,6.07,6.05,6.07-2.7,6.07-6.05ZM267.45-.01c-1.04.24-5.3,4.02-1,7.19,0,0-.96-3.38,2.86-4.5,1.54-.45.7-3.28-1.87-2.69h0ZM290.83-1.98c1.04-.24,5.3-4.02,1-7.19,0,0,.96,3.38-2.86,4.5-1.54.45-.7,3.28,1.87,2.69h0ZM282.52,8.37c-.66-1.47-3.36-.25-2.43,2.2.38.99,4.71,4.69,7.29.02,0,0-3.23,1.4-4.86-2.22ZM288.52,2.34c3.64,1.62,2.23,4.84,2.23,4.84,4.69-2.57.98-6.88-.02-7.25-2.47-.93-3.68,1.76-2.21,2.41ZM292.03-1.09c-.04.59.97.62,1.48.98,1.63,1.18.96,3.04,1.46,3.12.54.08,1.53-.71,1.45-1.99-.02-.31-.2-.58-.32-.86,1.87.47,3.36-.78,3.51-1.18-.17-.36-1.97-1.72-3.34-1.22.06-.12.26-.57.29-.71.3-1.19-1.05-2.02-1.31-1.78-.41.39-.12,1.64-1.25,2.51-.63.49-1.93.37-1.98,1.11h0ZM269.75-4.33c-3.64-1.62-2.23-4.84-2.23-4.84-4.69,2.57-.98,6.88.02,7.25,2.47.93,3.68-1.76,2.21-2.41ZM278.29-15.28c.36.5.39,1.51.98,1.48.75-.05.63-1.34,1.12-1.97.87-1.11,2.13-.84,2.52-1.25.24-.25-.59-1.6-1.78-1.3-.15.04-.59.23-.72.29.51-1.37-.85-3.16-1.22-3.32-.39.14-1.66,1.64-1.18,3.5-.28-.12-.55-.3-.86-.32-1.29-.08-2.08.91-2,1.44.08.5,1.95-.17,3.13,1.46h.01ZM186.23,84.96c.66,1.47,3.36.26,2.43-2.2-.38-.99-4.71-4.69-7.29-.02,0,0,3.23-1.4,4.86,2.22ZM188.59,105.94c.59-2.55-2.25-3.4-2.71-1.86-1.13,3.81-4.52,2.85-4.52,2.85,3.18,4.28,6.99.05,7.23-.99ZM190.47,108.62c-.36-.5-.39-1.51-.98-1.48-.75.05-.63,1.34-1.12,1.97-.87,1.11-2.13.84-2.52,1.25-.24.25.59,1.6,1.78,1.3.15-.04.59-.23.72-.29-.51,1.37.85,3.16,1.22,3.32.39-.14,1.66-1.64,1.18-3.5.28.12.55.3.86.32,1.29.08,2.08-.91,2-1.44-.08-.5-1.95.17-3.13-1.46h-.01ZM176.72,94.43c.04-.59-.97-.62-1.48-.98-1.63-1.18-.96-3.04-1.46-3.12-.54-.08-1.53.71-1.45,1.99.02.31.2.58.32.86-1.87-.47-3.36.78-3.51,1.18.17.36,1.97,1.72,3.34,1.22-.06.12-.26.57-.29.71-.3,1.19,1.05,2.02,1.31,1.78.41-.39.12-1.64,1.25-2.51.63-.49,1.93-.37,1.98-1.11h0ZM177.93,95.31c-1.04.24-5.3,4.02-1,7.19,0,0-.96-3.38,2.86-4.5,1.54-.45.7-3.28-1.87-2.69h0ZM180.23,90.99c-3.64-1.62-2.23-4.84-2.23-4.84-4.69,2.57-.98,6.88.02,7.25,2.47.93,3.68-1.76,2.21-2.41h0ZM193.32,78.26c.24-.25-.59-1.6-1.78-1.3-.15.04-.59.23-.72.29.51-1.37-.85-3.16-1.22-3.32-.39.14-1.66,1.64-1.18,3.5-.28-.12-.55-.3-.86-.32-1.29-.08-2.08.91-2,1.44.08.5,1.95-.17,3.13,1.46.36.5.39,1.51.98,1.48.75-.05.63-1.34,1.12-1.97.87-1.11,2.13-.84,2.52-1.25h.01ZM183.5,94.33c0,3.34,2.72,6.05,6.07,6.05s6.07-2.7,6.07-6.05-2.72-6.05-6.07-6.05-6.07,2.7-6.07,6.05ZM192.93,103.65c-.66-1.47-3.36-.26-2.43,2.2.38.99,4.71,4.69,7.29.02,0,0-3.23,1.4-4.86-2.22ZM206.74,93.1c.06-.12.26-.57.29-.71.3-1.19-1.05-2.02-1.31-1.78-.41.39-.12,1.64-1.25,2.51-.63.49-1.93.37-1.98,1.11-.04.59.97.62,1.48.98,1.63,1.18.96,3.04,1.46,3.12.54.08,1.53-.71,1.45-1.99-.02-.31-.2-.58-.32-.86,1.87.47,3.36-.78,3.51-1.18-.17-.36-1.97-1.72-3.34-1.22h0ZM201.21,95.25c-2.47-.93-3.68,1.76-2.21,2.41,3.64,1.62,2.23,4.84,2.23,4.84,4.69-2.57.98-6.88-.02-7.25h0ZM190.57,82.67c-.59,2.55,2.25,3.4,2.71,1.86,1.13-3.81,4.52-2.85,4.52-2.85-3.18-4.28-6.99-.05-7.23.99ZM199.44,90.65c-1.54.45-.7,3.28,1.87,2.69,1.04-.24,5.3-4.02,1-7.19,0,0,.96,3.38-2.86,4.5h0ZM273.1,94.33c0,3.34,2.72,6.05,6.07,6.05s6.07-2.7,6.07-6.05-2.72-6.05-6.07-6.05-6.07,2.7-6.07,6.05ZM283.2,78.54c.08-.54-.72-1.53-2-1.44-.31.02-.58.2-.86.32.48-1.86-.79-3.34-1.18-3.5-.36.17-1.73,1.96-1.22,3.32-.12-.06-.57-.26-.72-.29-1.19-.3-2.03,1.04-1.78,1.3.39.41,1.65.12,2.52,1.25.49.63.37,1.92,1.12,1.97.59.04.62-.97.98-1.48,1.18-1.62,3.06-.96,3.13-1.46h.01ZM278.25,105.85c.93-2.46-1.77-3.66-2.43-2.2-1.63,3.62-4.86,2.22-4.86,2.22,2.58,4.66,6.91.98,7.29-.02ZM280.1,82.77c-.93,2.46,1.77,3.66,2.43,2.2,1.63-3.62,4.86-2.22,4.86-2.22-2.58-4.66-6.91-.98-7.29.02ZM280.4,109.11c-.49-.63-.37-1.92-1.12-1.97-.59-.04-.62.97-.98,1.48-1.18,1.62-3.06.96-3.13,1.46-.08.54.72,1.53,2,1.44.31-.02.58-.2.86-.32-.48,1.86.79,3.34,1.18,3.5.36-.17,1.73-1.96,1.22-3.32.12.06.57.26.72.29,1.19.3,2.03-1.04,1.78-1.3-.39-.41-1.65-.12-2.52-1.25h-.01ZM275.48,84.53c.46,1.54,3.3.7,2.71-1.86-.24-1.03-4.04-5.27-7.23-.99,0,0,3.4-.96,4.52,2.85h0ZM267.54,95.25c-1,.38-4.71,4.69-.02,7.25,0,0-1.41-3.22,2.23-4.84,1.47-.66.25-3.34-2.21-2.41ZM266.25,94.23c-.05-.75-1.35-.63-1.98-1.11-1.12-.87-.84-2.12-1.25-2.51-.25-.24-1.61.59-1.31,1.78.04.14.23.59.29.71-1.38-.51-3.17.85-3.34,1.22.15.39,1.65,1.65,3.51,1.18-.12.28-.3.55-.32.86-.08,1.28.91,2.07,1.45,1.99.5-.08-.17-1.94,1.46-3.12.5-.36,1.51-.39,1.48-.98h0ZM282.86,104.09c-.46-1.54-3.3-.7-2.71,1.86.24,1.03,4.04,5.27,7.23.99,0,0-3.4.96-4.52-2.85h0ZM290.73,93.42c1-.38,4.71-4.69.02-7.25,0,0,1.41,3.22-2.23,4.84-1.47.66-.25,3.34,2.21,2.41ZM296.1,93.17c.12-.28.3-.55.32-.86.08-1.28-.91-2.07-1.45-1.99-.5.08.17,1.94-1.46,3.12-.5.36-1.51.39-1.48.98.05.74,1.35.63,1.98,1.11,1.12.87.84,2.12,1.25,2.51.25.24,1.61-.59,1.31-1.78-.04-.14-.23-.59-.29-.71,1.38.51,3.17-.85,3.34-1.22-.15-.39-1.65-1.65-3.51-1.18h0ZM267.45,93.34c2.56.59,3.41-2.24,1.87-2.69-3.83-1.12-2.86-4.5-2.86-4.5-4.3,3.17-.05,6.96,1,7.19h0ZM290.83,95.31c-2.56-.59-3.41,2.24-1.87,2.69,3.83,1.12,2.86,4.5,2.86,4.5,4.3-3.17.05-6.96-1-7.19h0Z" style="fill:#f5f0e0;"/><path d="M238.56,46.69c0,2.34-1.91,4.24-4.26,4.24s-4.26-1.9-4.26-4.24,1.91-4.24,4.26-4.24,4.26,1.9,4.26,4.24ZM189.58-5.24c-2.35,0-4.26,1.9-4.26,4.24s1.91,4.24,4.26,4.24,4.26-1.9,4.26-4.24-1.91-4.24-4.26-4.24ZM279.17,3.24c2.35,0,4.26-1.9,4.26-4.24s-1.91-4.24-4.26-4.24-4.26,1.9-4.26,4.24,1.91,4.24,4.26,4.24ZM189.58,90.08c-2.35,0-4.26,1.9-4.26,4.24s1.91,4.24,4.26,4.24,4.26-1.9,4.26-4.24-1.91-4.24-4.26-4.24ZM279.17,90.08c-2.35,0-4.26,1.9-4.26,4.24s1.91,4.24,4.26,4.24,4.26-1.9,4.26-4.24-1.91-4.24-4.26-4.24Z" style="fill:#6f4b52;"/></g><rect x="367.19" y="38.85" width="7.82" height="7.78" style="fill:#e1c57f;"/><rect x="367.19" y="46.69" width="7.82" height="7.78" style="fill:#6f4b52;"/><rect x="320.37" y="85.54" width="7.82" height="7.78" style="fill:#7eb5d0;"/><rect x="328.21" y="85.54" width="7.82" height="7.78" style="fill:#6f4b52;"/><rect x="320.36" y=".01" width="7.82" height="7.78" style="fill:#f5f0e0;"/><rect x="328.13" y=".01" width="7.82" height="7.78" style="fill:#e1c57f;"/><rect x="281.26" y="38.81" width="7.82" height="7.78" style="fill:#f5f0e0;"/><rect x="281.26" y="46.59" width="7.82" height="7.78" style="fill:#7eb5d0;"/><rect x="367.19" y="54.44" width="7.82" height="31.1" style="fill:#7eb5d0;"/><rect x="335.94" y="85.54" width="31.24" height="7.78" style="fill:#7eb5d0;"/><rect x="328.13" y="54.44" width="7.82" height="31.1" style="fill:#7eb5d0;"/><rect x="281.26" y="54.44" width="7.82" height="31.1" style="fill:#6f4b52;"/><rect x="289.07" y="85.54" width="31.24" height="7.78" style="fill:#6f4b52;"/><rect x="328.13" y="7.79" width="7.82" height="31.1" style="fill:#6f4b52;"/><rect x="367.19" y="7.79" width="7.82" height="31.1" style="fill:#6f4b52;"/><rect x="335.94" y=".01" width="31.24" height="7.78" style="fill:#6f4b52;"/><rect x="289.07" y=".01" width="31.24" height="7.78" style="fill:#7eb5d0;"/><rect x="320.32" y="7.79" width="7.82" height="31.1" style="fill:#7eb5d0;"/><rect x="281.26" y="7.79" width="7.82" height="31.1" style="fill:#7eb5d0;"/><rect x="289.07" y="7.79" width="31.24" height="31.1" style="fill:#e1c57f;"/><rect x="335.94" y="7.79" width="31.24" height="31.1" style="fill:#f5f0e0;"/><rect x="335.94" y="38.9" width="31.24" height="7.76" style="fill:#6f4b52;"/><rect x="335.94" y="54.44" width="31.24" height="31.1" style="fill:#e1c57f;"/><rect x="335.94" y="46.66" width="31.24" height="7.78" style="fill:#7eb5d0;"/><rect x="320.32" y="54.44" width="7.82" height="31.1" style="fill:#6f4b52;"/><rect x="289.07" y="54.44" width="31.24" height="31.1" style="fill:#f5f0e0;"/><rect x="289.07" y="38.9" width="31.24" height="7.76" style="fill:#7eb5d0;"/><rect x="289.07" y="46.66" width="31.24" height="7.78" style="fill:#6f4b52;"/><polygon points="320.34 38.92 328.15 46.69 328.15 38.92 320.34 38.92" style="fill:#6f4b52;"/><polygon points="320.34 38.92 320.34 46.69 328.15 46.69 320.34 38.92" style="fill:#f5f0e0;"/><polygon points="328.11 46.65 335.92 54.43 335.92 46.65 328.11 46.65" style="fill:#f5f0e0;"/><polygon points="328.11 46.65 328.11 54.43 335.92 54.43 328.11 46.65" style="fill:#6f4b52;"/><polygon points="367.13 85.49 374.94 93.27 374.94 85.49 367.13 85.49" style="fill:#f5f0e0;"/><polygon points="367.13 85.49 367.13 93.27 374.94 93.27 367.13 85.49" style="fill:#6f4b52;"/><polygon points="328.11 46.71 335.92 38.93 328.11 38.93 328.11 46.71" style="fill:#f5f0e0;"/><polygon points="328.11 46.71 335.92 46.71 335.92 38.93 328.11 46.71" style="fill:#7eb5d0;"/><polygon points="367.19 7.79 375 .01 367.19 .01 367.19 7.79" style="fill:#f5f0e0;"/><polygon points="367.19 7.79 375 7.79 375 .01 367.19 7.79" style="fill:#7eb5d0;"/><polygon points="320.21 54.41 328.03 46.64 320.21 46.64 320.21 54.41" style="fill:#7eb5d0;"/><polygon points="320.21 54.41 328.03 54.41 328.03 46.64 320.21 54.41" style="fill:#f5f0e0;"/><polygon points="281.26 93.33 289.06 85.55 281.26 85.55 281.26 93.33" style="fill:#7eb5d0;"/><polygon points="281.26 93.33 289.06 93.33 289.06 85.55 281.26 93.33" style="fill:#f5f0e0;"/><polygon points="281.26 .01 289.07 7.79 289.07 .01 281.26 .01" style="fill:#6f4b52;"/><polygon points="281.26 .01 281.26 7.79 289.07 7.79 281.26 .01" style="fill:#f5f0e0;"/></g></svg>